<svg width="62" height="62" viewBox="0 0 62 62" version="1.1" xmlns="http://www.w3.org/2000/svg" xmlns:xlink="http://www.w3.org/1999/xlink" xmlns:figma="http://www.figma.com/figma/ns">
<title>Ellipse 4</title>
<desc>Created using Figma</desc>
<g id="Canvas" transform="translate(-3053 -5542)" figma:type="canvas">
<g id="Ellipse 4" style="mix-blend-mode:normal;" figma:type="ellipse">
<mask id="mask0_outline_ins">
<use xlink:href="#path0_fill" fill="white" transform="translate(3053.49 5542.12)"/>
</mask>
<g mask="url(#mask0_outline_ins)">
<use xlink:href="#path1_stroke_2x" transform="translate(3053.49 5542.12)" fill="#C4C4C4" style="mix-blend-mode:normal;"/>
</g>
</g>
</g>
<defs>
<path id="path0_fill" d="M 61 30.5C 61 47.3447 47.3447 61 30.5 61C 13.6553 61 0 47.3447 0 30.5C 0 13.6553 13.6553 0 30.5 0C 47.3447 0 61 13.6553 61 30.5Z"/>
<path id="path1_stroke_2x" d="M 60 30.5C 60 46.7924 46.7924 60 30.5 60L 30.5 62C 47.897 62 62 47.897 62 30.5L 60 30.5ZM 30.5 60C 14.2076 60 1 46.7924 1 30.5L -1 30.5C -1 47.897 13.103 62 30.5 62L 30.5 60ZM 1 30.5C 1 14.2076 14.2076 1 30.5 1L 30.5 -1C 13.103 -1 -1 13.103 -1 30.5L 1 30.5ZM 30.5 1C 46.7924 1 60 14.2076 60 30.5L 62 30.5C 62 13.103 47.897 -1 30.5 -1L 30.5 1Z"/>
</defs>
</svg>
