<svg width="104" height="96" viewBox="0 0 104 96" version="1.1" xmlns="http://www.w3.org/2000/svg" xmlns:xlink="http://www.w3.org/1999/xlink" xmlns:figma="http://www.figma.com/figma/ns">
<title>noun_182235_cc</title>
<desc>Created using Figma</desc>
<g id="Canvas" transform="translate(-2048 66)" figma:type="canvas">
<g id="noun_182235_cc" style="mix-blend-mode:normal;" figma:type="frame">
<g id="Vector" style="mix-blend-mode:normal;" figma:type="vector">
<use xlink:href="#path0_fill" transform="translate(2049.89 -43.1152)" fill="#F2F2F2" style="mix-blend-mode:normal;"/>
</g>
<g id="Vector" style="mix-blend-mode:normal;" figma:type="vector">
<use xlink:href="#path1_fill" transform="translate(2048.5 -43.1151)" fill="#F2F2F2" style="mix-blend-mode:normal;"/>
</g>
<g id="Vector" style="mix-blend-mode:normal;" figma:type="vector">
<use xlink:href="#path2_fill" transform="translate(2064.34 -61.0857)" fill="#F2F2F2" style="mix-blend-mode:normal;"/>
</g>
<g id="Vector" style="mix-blend-mode:normal;" figma:type="vector">
<use xlink:href="#path3_fill" transform="translate(2097.12 -66)" fill="#F2F2F2" style="mix-blend-mode:normal;"/>
</g>
<g id="Vector" style="mix-blend-mode:normal;" figma:type="vector">
<use xlink:href="#path4_fill" transform="translate(2139.68 -43.1149)" fill="#F2F2F2" style="mix-blend-mode:normal;"/>
</g>
<g id="Vector" style="mix-blend-mode:normal;" figma:type="vector">
<use xlink:href="#path5_fill" transform="translate(2123.36 -61.0858)" fill="#F2F2F2" style="mix-blend-mode:normal;"/>
</g>
</g>
</g>
<defs>
<path id="path0_fill" d="M 73.1122 0.296527L 5.48872 19.5042C 1.45746 20.6494 -0.868408 24.7849 0.303501 28.7232L 11.9171 67.7527C 13.0893 71.691 17.322 73.9637 21.3533 72.8187L 88.9765 53.6108C 93.0077 52.4656 95.3339 48.3301 94.1617 44.3918L 82.5484 5.3623C 81.3759 1.42397 77.1429 -0.848445 73.1122 0.296527ZM 79.4147 6.25251L 81.8439 14.4156L 45.4092 24.7644C 44.77 22.7157 43.7253 19.8091 42.4101 17.7323C 42.4101 17.7323 35.1959 19.2584 31.9932 22.9319L 29.8979 15.891L 74.0228 3.35767C 76.3261 2.70336 78.745 4.00188 79.4147 6.25251ZM 6.39933 22.5653L 22.8485 17.8932L 25.0762 25.3802C 20.2279 25.0627 14.3512 28.9687 14.3512 28.9687C 14.6892 30.3105 15.2577 31.7758 15.8777 33.153L 5.86531 35.9968L 3.43639 27.8335C 2.76668 25.5832 4.09603 23.2196 6.39933 22.5653ZM 15.05 66.8627L 7.91493 42.8839L 24.0459 38.3022C 23.2468 40.6213 22.1461 43.3884 20.6273 46.6573L 25.4979 55.3078C 25.4979 55.3078 27.8192 48.7706 29.9542 41.7722L 36.8913 65.0855L 20.4421 69.7576C 18.1385 70.4119 15.7197 69.1134 15.05 66.8627ZM 88.0653 50.5499L 43.9406 63.0833L 36.1264 36.8222C 43.3022 42.4121 51.9322 48.4436 51.9322 48.4436L 50.0422 38.7445C 46.785 36.6328 44.168 34.7793 42.0683 33.1827L 83.8932 21.3029L 91.0285 45.2817C 91.6982 47.5324 90.3689 49.8956 88.0653 50.5499Z"/>
<path id="path1_fill" d="M 9.10044 9.59624C 8.56995 9.59624 8.03403 9.44534 7.56391 9.12948L 1.18013 4.84686C -0.0578507 4.01642 -0.372172 2.36245 0.477801 1.15319C 1.3275 -0.0565988 3.02065 -0.363696 4.25863 0.467007L 10.6421 4.74963C 11.8801 5.58033 12.1947 7.23403 11.3447 8.44329C 10.8172 9.19297 9.96618 9.59624 9.10044 9.59624Z"/>
<path id="path2_fill" d="M 9.57641 15.1538C 8.70658 15.1538 7.85199 14.747 7.32585 13.9918L 0.47141 4.15166C -0.373397 2.93868 -0.0520064 1.28604 1.18951 0.460388C 2.4313 -0.364736 4.12255 -0.0507315 4.96735 1.16198L 11.8218 11.0021C 12.6666 12.2151 12.3449 13.8677 11.1037 14.6934C 10.6352 15.0045 10.1028 15.1538 9.57641 15.1538Z"/>
<path id="path3_fill" d="M 2.71905 15.1423C 1.21732 15.1423 7.72799e-15 13.953 7.72799e-15 12.4858L 7.72799e-15 2.65655C 7.72799e-15 1.18934 1.21732 0 2.71905 0C 4.2205 0 5.43809 1.18934 5.43809 2.65655L 5.43809 12.4858C 5.43809 13.953 4.2205 15.1423 2.71905 15.1423Z"/>
<path id="path4_fill" d="M 2.72182 9.59601C 1.85607 9.59601 1.00529 9.193 0.477791 8.44306C -0.372183 7.23353 -0.0578656 5.5801 1.18039 4.7494L 7.56416 0.466774C 8.8016 -0.363397 10.4942 -0.0568316 11.3447 1.15296C 12.1947 2.36249 11.8804 4.01619 10.6421 4.84663L 4.25835 9.12925C 3.78823 9.44458 3.2523 9.59601 2.72182 9.59601Z"/>
<path id="path5_fill" d="M 2.71687 15.1539C 2.18992 15.1539 1.6578 15.0046 1.18958 14.6936C -0.0519384 13.8682 -0.373329 12.2155 0.471206 11.0025L 7.32538 1.16242C 8.17019 -0.0508243 9.86116 -0.364829 11.1032 0.460561C 12.3447 1.28595 12.6661 2.93859 11.8216 4.15157L 4.96741 13.9917C 4.44101 14.7472 3.58642 15.1539 2.71687 15.1539Z"/>
</defs>
</svg>
