<svg width="199" height="235" viewBox="0 0 199 235" version="1.1" xmlns="http://www.w3.org/2000/svg" xmlns:xlink="http://www.w3.org/1999/xlink" xmlns:figma="http://www.figma.com/figma/ns">
<title>Group</title>
<desc>Created using Figma</desc>
<g id="Canvas" transform="translate(-2129 -49)" figma:type="canvas">
<g id="Group" style="mix-blend-mode:normal;" figma:type="frame">
<g id="Ellipse 7" style="mix-blend-mode:normal;" figma:type="ellipse">
<mask id="mask0_outline_ins">
<use xlink:href="#path0_fill" fill="white" transform="translate(2143 99)"/>
</mask>
<g mask="url(#mask0_outline_ins)">
<use xlink:href="#path1_stroke_2x" transform="translate(2143 99)" fill="#E0E0E0" style="mix-blend-mode:normal;"/>
</g>
</g>
<g id="Ellipse 7" style="mix-blend-mode:normal;" figma:type="ellipse">
<mask id="mask1_outline_ins">
<use xlink:href="#path2_fill" fill="white" transform="translate(2129.51 49)"/>
</mask>
<g mask="url(#mask1_outline_ins)">
<use xlink:href="#path3_stroke_2x" transform="translate(2129.51 49)" fill="#E0E0E0" style="mix-blend-mode:normal;"/>
</g>
</g>
</g>
</g>
<defs>
<path id="path0_fill" d="M 185 92.5C 185 143.586 143.586 185 92.5 185C 41.4137 185 0 143.586 0 92.5C 0 41.4137 41.4137 0 92.5 0C 143.586 0 185 41.4137 185 92.5Z"/>
<path id="path1_stroke_2x" d="M 184 92.5C 184 143.034 143.034 184 92.5 184L 92.5 186C 144.139 186 186 144.139 186 92.5L 184 92.5ZM 92.5 184C 41.9659 184 1 143.034 1 92.5L -1 92.5C -1 144.139 40.8614 186 92.5 186L 92.5 184ZM 1 92.5C 1 41.9659 41.9659 1 92.5 1L 92.5 -1C 40.8614 -1 -1 40.8614 -1 92.5L 1 92.5ZM 92.5 1C 143.034 1 184 41.9659 184 92.5L 186 92.5C 186 40.8614 144.139 -1 92.5 -1L 92.5 1Z"/>
<path id="path2_fill" d="M 98 49C 98 76.062 76.062 98 49 98C 21.938 98 0 76.062 0 49C 0 21.938 21.938 0 49 0C 76.062 0 98 21.938 98 49Z"/>
<path id="path3_stroke_2x" d="M 97 49C 97 75.5097 75.5097 97 49 97L 49 99C 76.6142 99 99 76.6142 99 49L 97 49ZM 49 97C 22.4903 97 1 75.5097 1 49L -1 49C -1 76.6142 21.3858 99 49 99L 49 97ZM 1 49C 1 22.4903 22.4903 1 49 1L 49 -1C 21.3858 -1 -1 21.3858 -1 49L 1 49ZM 49 1C 75.5097 1 97 22.4903 97 49L 99 49C 99 21.3858 76.6142 -1 49 -1L 49 1Z"/>
</defs>
</svg>
