<svg width="97" height="97" viewBox="0 0 97 97" version="1.1" xmlns="http://www.w3.org/2000/svg" xmlns:xlink="http://www.w3.org/1999/xlink" xmlns:figma="http://www.figma.com/figma/ns">
<title>Vector</title>
<desc>Created using Figma</desc>
<g id="Canvas" transform="translate(-3624 -28)" figma:type="canvas">
<g id="Vector" style="mix-blend-mode:normal;" figma:type="vector">
<use xlink:href="#path0_fill" transform="translate(3624.9 28.6009)" fill="#F2F2F2" style="mix-blend-mode:normal;"/>
<use xlink:href="#path1_fill" transform="translate(3624.9 28.6009)" fill="#F2F2F2" style="mix-blend-mode:normal;"/>
</g>
</g>
<defs>
<path id="path0_fill" d="M 57.2007 31.0409C 53.7847 31.0295 50.4913 32.2866 47.984 34.5588C 45.3656 32.2343 41.9252 31.0008 38.3933 31.1201C 34.8613 31.2395 31.5159 32.7022 29.0672 35.1978C 26.6185 37.6935 25.2594 41.0255 25.2783 44.4866C 25.2972 47.9477 26.6926 51.2653 29.1685 53.7352L 45.6296 69.8567C 46.2564 70.4805 47.1106 70.8349 48.0042 70.8421C 48.447 70.8407 48.8851 70.7529 49.2928 70.5837C 49.7005 70.4145 50.0697 70.1673 50.3788 69.8567L 66.7896 53.7647C 68.6937 51.9053 69.9916 49.5343 70.5187 46.9519C 71.0458 44.3695 70.7784 41.692 69.7505 39.2585C 68.7226 36.825 66.9803 34.7451 64.7444 33.2822C 62.5085 31.8193 59.8796 31.0393 57.1906 31.0409L 57.2007 31.0409ZM 64.6565 51.6756L 48.2356 67.7676C 48.1719 67.8272 48.0872 67.8605 47.9991 67.8605C 47.911 67.8605 47.8263 67.8272 47.7627 67.7676L 31.3116 51.6559C 30.2917 50.7043 29.4764 49.5626 28.9136 48.2979C 28.3509 47.0331 28.0521 45.671 28.0348 44.2915C 28.0175 42.912 28.282 41.543 28.8129 40.2652C 29.3437 38.9873 30.1301 37.8263 31.1259 36.8504C 32.1216 35.8746 33.3065 35.1036 34.611 34.5828C 35.9154 34.0621 37.313 33.8021 38.7216 33.8181C 40.1301 33.8341 41.5212 34.1259 42.8129 34.6761C 44.1047 35.2264 45.271 36.0241 46.2433 37.0224L 46.9175 37.6826C 47.2065 37.948 47.5879 38.0956 47.984 38.0956C 48.3802 38.0956 48.7615 37.948 49.0506 37.6826L 49.7147 37.0322C 51.6974 35.0917 54.3861 34.002 57.1891 34.003C 58.5771 34.0034 59.9513 34.2716 61.2334 34.7922C 62.5155 35.3128 63.6804 36.0757 64.6615 37.0372C 65.6426 37.9987 66.4207 39.14 66.9514 40.396C 67.4821 41.652 67.755 42.9981 67.7546 44.3574C 67.7541 45.7167 67.4803 47.0626 66.9487 48.3183C 66.4171 49.574 65.6382 50.7148 64.6565 51.6756ZM 94.54 43.5065C 95.1796 42.6403 95.6238 41.6508 95.843 40.6037C 96.0623 39.5565 96.0517 38.4757 95.8119 37.4329C 95.5721 36.3901 95.1087 35.4091 94.4522 34.5551C 93.7958 33.7011 92.9614 32.9936 92.0045 32.4796L 89.8714 31.3365C 89.0118 30.8747 88.3222 30.1601 87.8997 29.2937C 87.4772 28.4273 87.3433 27.4529 87.5169 26.5079L 87.9495 24.1626C 88.0298 23.7202 88.0702 23.2717 88.0703 22.8224C 88.0703 20.8922 87.3133 19.0358 85.9557 17.6365C 84.5982 16.2373 82.7437 15.4022 80.7755 15.3036L 78.3405 15.1755C 77.3618 15.1253 76.424 14.7746 75.6601 14.1733C 74.8962 13.5719 74.3449 12.7504 74.0844 11.8251L 73.4304 9.56847C 73.1362 8.54295 72.6236 7.59013 71.9261 6.77279C 71.2286 5.95545 70.3622 5.29215 69.3839 4.82661C 68.4056 4.36107 67.3378 4.10386 66.2506 4.07192C 65.1635 4.03999 64.0817 4.23406 63.0768 4.64135L 60.833 5.55779C 59.929 5.92864 58.9289 6.0121 57.9739 5.7964C 57.0189 5.58069 56.1571 5.07671 55.5103 4.35557L 53.9004 2.5621C 53.1798 1.75909 52.2931 1.11536 51.2991 0.673635C 50.3051 0.231905 49.2265 0.00228035 48.135 -3.49872e-08C 47.0474 -2.80276e-05 45.9722 0.225656 44.9802 0.662181C 43.9881 1.09871 43.1018 1.73616 42.3796 2.53254L 40.7194 4.29645C 40.0698 5.01381 39.2063 5.51301 38.2512 5.72345C 37.296 5.93388 36.2974 5.84491 35.3967 5.4691L 33.1529 4.5428C 32.1481 4.12471 31.0639 3.92075 29.9724 3.94446C 28.8809 3.96818 27.807 4.21904 26.8221 4.68037C 25.8372 5.1417 24.9637 5.80296 24.2598 6.62024C 23.5558 7.43752 23.0374 8.39212 22.739 9.42065L 22.0749 11.7167C 21.8061 12.6377 21.2487 13.4528 20.4814 14.0469C 19.7141 14.641 18.7757 14.9841 17.7986 15.0277L 15.3637 15.146C 13.3874 15.2323 11.5215 16.0624 10.1549 17.4632C 8.78834 18.864 8.02663 20.7274 8.02859 22.6648C 8.02742 23.1006 8.06445 23.5358 8.13927 23.9655L 8.56187 26.3207C 8.72825 27.2658 8.58763 28.2383 8.15981 29.101C 7.732 29.9637 7.03857 30.6732 6.17722 31.1295L 4.04412 32.2332C 3.08082 32.7419 2.23936 33.4459 1.57587 34.2983C 0.912379 35.1507 0.442112 36.1319 0.196442 37.1764C -0.049229 38.2208 -0.064655 39.3046 0.151193 40.3554C 0.36704 41.4062 0.809199 42.3998 1.44817 43.27L 2.86689 45.2408C 3.43928 46.0203 3.74721 46.9561 3.74721 47.9162C 3.74721 48.8764 3.43928 49.8122 2.86689 50.5917L 1.43811 52.5625C 0.812081 53.4259 0.378791 54.4087 0.166469 55.447C -0.0458534 56.4853 -0.0324453 57.5557 0.20582 58.5886C 0.444085 59.6215 0.901862 60.5936 1.54933 61.4417C 2.19679 62.2897 3.01942 62.9947 3.96362 63.5106L 6.09673 64.6537C 6.95728 65.1143 7.64786 65.8287 8.07048 66.6954C 8.4931 67.5621 8.6263 68.5372 8.45119 69.4822L 8.01853 71.8275C 7.93826 72.2699 7.89786 72.7184 7.89779 73.1677C 7.8978 75.0979 8.65477 76.9544 10.0123 78.3536C 11.3699 79.7528 13.2243 80.588 15.1926 80.6865L 17.6276 80.8146C 18.605 80.8642 19.5418 81.2135 20.3055 81.8129C 21.0693 82.4124 21.6213 83.2317 21.8837 84.1552L 22.5377 86.4315C 22.8318 87.457 23.3445 88.4099 24.042 89.2272C 24.7395 90.0446 25.6059 90.7078 26.5842 91.1734C 27.5624 91.6389 28.6303 91.8961 29.7175 91.9281C 30.8046 91.96 31.8863 91.7659 32.8913 91.3587L 35.1351 90.4422C 36.0391 90.0714 37.0392 89.9879 37.9942 90.2036C 38.9492 90.4193 39.811 90.9233 40.4578 91.6444L 42.0677 93.4379C 42.7883 94.2409 43.675 94.8846 44.669 95.3264C 45.663 95.7681 46.7416 95.9977 47.8331 96C 48.9207 96 49.9959 95.7743 50.9879 95.3378C 51.98 94.9013 52.8663 94.2638 53.5885 93.4675L 55.2084 91.6838C 55.858 90.9665 56.7215 90.4673 57.6767 90.2568C 58.6319 90.0464 59.6304 90.1354 60.5311 90.5112L 62.7749 91.4375C 63.7797 91.8556 64.8639 92.0595 65.9554 92.0358C 67.0469 92.0121 68.1208 91.7613 69.1057 91.2999C 70.0906 90.8386 70.9641 90.1773 71.6681 89.36C 72.3721 88.5428 72.8905 87.5882 73.1889 86.5596L 73.853 84.2636C 74.1289 83.3408 74.6942 82.5264 75.4689 81.9357C 76.2436 81.345 77.1883 81.008 78.1695 80.9723L 80.6044 80.8639C 82.5798 80.7752 84.4443 79.9443 85.8104 78.544C 87.1764 77.1438 87.939 75.2818 87.9395 73.3451C 87.9406 72.9092 87.9035 72.474 87.8288 72.0443L 87.3961 69.6793C 87.2298 68.7342 87.3704 67.7617 87.7982 66.899C 88.226 66.0363 88.9195 65.3268 89.7808 64.8705L 91.924 63.7668C 92.8873 63.2581 93.7287 62.5541 94.3922 61.7017C 95.0557 60.8493 95.526 59.8681 95.7716 58.8236C 96.0173 57.7792 96.0327 56.6954 95.8169 55.6446C 95.601 54.5938 95.1589 53.6002 94.5199 52.73L 93.1012 50.7592C 92.5288 49.9797 92.2209 49.0439 92.2209 48.0838C 92.2209 47.1236 92.5288 46.1878 93.1012 45.4083L 94.54 43.5065ZM 92.095 41.7721L 90.6662 43.743C 89.7253 45.025 89.2191 46.564 89.2191 48.1429C 89.2191 49.7218 89.7253 51.2608 90.6662 52.5428L 92.085 54.5137C 92.653 55.2856 92.9592 56.2129 92.9603 57.1644C 92.9619 57.9923 92.7345 58.8051 92.3022 59.5164C 91.8699 60.2278 91.2489 60.8112 90.5052 61.2047L 88.3621 62.3379C 86.9491 63.0858 85.8107 64.2483 85.1069 65.6622C 84.4031 67.0762 84.1692 68.6705 84.438 70.2213L 84.8505 72.5666C 84.8972 72.8302 84.9208 73.0973 84.9209 73.3648C 84.9196 74.5408 84.4557 75.671 83.6256 76.5207C 82.7955 77.3703 81.663 77.8741 80.4636 77.9273L 78.0286 78.0357C 76.4176 78.1097 74.871 78.6775 73.6072 79.6588C 72.3434 80.6402 71.4263 81.9855 70.9853 83.5048L 70.3213 85.8009C 70.1389 86.4251 69.8231 87.0043 69.3948 87.5C 68.9666 87.9957 68.4356 88.3966 67.8372 88.6761C 67.2388 88.9557 66.5865 89.1074 65.9237 89.1214C 65.2608 89.1354 64.6025 89.0112 63.9924 88.7571L 61.7486 87.8308C 60.2615 87.2168 58.6147 87.0767 57.0418 87.4304C 55.4688 87.7842 54.0494 88.6138 52.9848 89.8017L 51.3648 91.5853C 50.9253 92.0694 50.3859 92.4567 49.7824 92.7217C 49.1788 92.9866 48.5247 93.1233 47.8633 93.1226C 47.2003 93.1208 46.5453 92.9811 45.9417 92.7127C 45.338 92.4443 44.7995 92.0533 44.3618 91.5656L 42.7519 89.7721C 41.6871 88.5875 40.2695 87.7601 38.699 87.4065C 37.1285 87.0529 35.4843 87.191 33.9981 87.8013L 31.7543 88.7177C 31.1452 88.9684 30.4888 89.0899 29.8283 89.0743C 29.1678 89.0586 28.5182 88.9061 27.9222 88.6268C 27.3262 88.3476 26.7974 87.9478 26.3705 87.4539C 25.9437 86.9601 25.6284 86.3832 25.4456 85.7615L 24.7916 83.4654C 24.3573 81.9398 23.4429 80.5872 22.1784 79.6C 20.9138 78.6128 19.3636 78.0413 17.7483 77.9668L 15.3133 77.8386C 14.1174 77.7805 12.99 77.2746 12.1642 76.4254C 11.3383 75.5763 10.8772 74.4488 10.8761 73.2761C 10.8753 73.002 10.8988 72.7283 10.9465 72.4582L 11.3792 70.1129C 11.6637 68.5599 11.4428 66.9586 10.7477 65.5351C 10.0526 64.1117 8.9184 62.9382 7.50538 62.1802L 5.41252 60.9189C 4.83126 60.6063 4.3245 60.1762 3.92584 59.6571C 3.52718 59.1381 3.24574 58.542 3.10017 57.9084C 2.9546 57.2748 2.94822 56.6181 3.08148 55.9818C 3.21473 55.3456 3.48455 54.7444 3.87307 54.218L 5.30185 52.2472C 6.24278 50.9651 6.74895 49.4261 6.74895 47.8473C 6.74895 46.2684 6.24278 44.7294 5.30185 43.4473L 3.88313 41.4765C 3.49794 40.9479 3.23186 40.3452 3.10252 39.7083C 2.97318 39.0714 2.98354 38.4149 3.13291 37.7822C 3.28228 37.1496 3.56725 36.5552 3.96893 36.0385C 4.37061 35.5219 4.87983 35.0948 5.46283 34.7855L 7.606 33.6522C 9.01798 32.9033 10.1554 31.7406 10.8591 30.3269C 11.5627 28.9133 11.7974 27.3196 11.5301 25.7688L 11.1176 23.4235C 11.0707 23.1599 11.0472 22.8929 11.0471 22.6253C 11.0485 21.4494 11.5124 20.3192 12.3425 19.4695C 13.1726 18.6198 14.305 18.116 15.5045 18.0628L 17.9395 17.9446C 19.5509 17.872 21.0983 17.3048 22.3623 16.3233C 23.6264 15.3417 24.5431 13.9956 24.9827 12.4755L 25.6468 10.1794C 25.8292 9.55516 26.145 8.97598 26.5733 8.48029C 27.0015 7.98459 27.5324 7.58369 28.1309 7.30416C 28.7293 7.02463 29.3815 6.87286 30.0444 6.85889C 30.7072 6.84493 31.3656 6.96909 31.9757 7.22316L 34.2195 8.14946C 35.7066 8.76352 37.3534 8.90361 38.9263 8.54987C 40.4993 8.19614 41.9187 7.36652 42.9833 6.17861L 44.6033 4.39499C 45.0418 3.90717 45.5824 3.51743 46.1883 3.25219C 46.7942 2.98695 47.4512 2.85242 48.1148 2.85773C 48.7823 2.87067 49.4392 3.02333 50.0414 3.30548C 50.6436 3.58762 51.1772 3.99271 51.6063 4.49353L 53.2162 6.287C 54.2801 7.47284 55.6977 8.30115 57.2686 8.65482C 58.8394 9.00849 60.4841 8.86962 61.97 8.25785L 64.2137 7.34141C 64.8228 7.09071 65.4792 6.96919 66.1397 6.98486C 66.8002 7.00052 67.4499 7.15301 68.0459 7.43229C 68.6418 7.71157 69.1707 8.1113 69.5975 8.60518C 70.0244 9.09906 70.3397 9.67588 70.5225 10.2977L 71.1765 12.5937C 71.609 14.1211 72.5226 15.4759 73.7873 16.465C 75.052 17.4541 76.6031 18.0271 78.2198 18.1022L 80.6547 18.2303C 81.8507 18.2885 82.9781 18.7944 83.8039 19.6436C 84.6298 20.4927 85.0909 21.6202 85.092 22.7929C 85.0928 23.067 85.0692 23.3406 85.0216 23.6108L 84.5889 25.9561C 84.3053 27.5104 84.5265 29.1128 85.2214 30.5376C 85.9163 31.9623 87.0499 33.1378 88.4627 33.8986L 90.5958 35.0417C 91.3351 35.4477 91.9482 36.0424 92.3699 36.7625C 92.7916 37.4826 93.0061 38.3012 92.9905 39.1312C 92.9835 40.0849 92.6702 41.0124 92.095 41.782L 92.095 41.7721Z"/>
<path id="path1_fill" d="M 64.6565 51.6756L 48.2356 67.7676C 48.1719 67.8272 48.0872 67.8605 47.9991 67.8605C 47.911 67.8605 47.8263 67.8272 47.7627 67.7676L 31.3116 51.6559C 30.2917 50.7043 29.4764 49.5626 28.9136 48.2979C 28.3509 47.0331 28.0521 45.671 28.0348 44.2915C 28.0175 42.912 28.282 41.543 28.8129 40.2652C 29.3437 38.9873 30.1301 37.8263 31.1259 36.8504C 32.1216 35.8746 33.3065 35.1036 34.611 34.5828C 35.9154 34.0621 37.313 33.8021 38.7216 33.8181C 40.1301 33.8341 41.5212 34.1259 42.8129 34.6761C 44.1047 35.2264 45.271 36.0241 46.2433 37.0224L 46.9175 37.6826C 47.2065 37.948 47.5879 38.0956 47.984 38.0956C 48.3802 38.0956 48.7615 37.948 49.0506 37.6826L 49.7147 37.0322C 51.6974 35.0917 54.3861 34.002 57.1891 34.003C 58.5771 34.0034 59.9513 34.2716 61.2334 34.7922C 62.5155 35.3128 63.6804 36.0757 64.6615 37.0372C 65.6426 37.9987 66.4207 39.14 66.9514 40.396C 67.4821 41.652 67.755 42.9981 67.7546 44.3574C 67.7541 45.7167 67.4803 47.0626 66.9487 48.3183C 66.4171 49.574 65.6382 50.7148 64.6565 51.6756Z"/>
</defs>
</svg>
