<svg width="71" height="65" viewBox="0 0 71 65" version="1.1" xmlns="http://www.w3.org/2000/svg" xmlns:xlink="http://www.w3.org/1999/xlink" xmlns:figma="http://www.figma.com/figma/ns">
<title>noun_18758_cc</title>
<desc>Created using Figma</desc>
<g id="Canvas" transform="translate(-1979 -330)" figma:type="canvas">
<g id="noun_18758_cc" style="mix-blend-mode:normal;" figma:type="frame">
<g id="Vector" style="mix-blend-mode:normal;" figma:type="vector">
<use xlink:href="#path0_fill" transform="translate(1979.89 330.5)" fill="#F2F2F2" style="mix-blend-mode:normal;"/>
</g>
</g>
</g>
<defs>
<path id="path0_fill" d="M 60.0347 2.35574e-08L 9.966 2.35574e-08L -2.24306e-07 16.9755L -2.24306e-07 22.8628C -2.24306e-07 25.7865 1.70452 28.3246 4.19024 29.5858L 4.19024 64L 41.8177 64L 41.8177 26.4143C 43.1204 28.8035 45.6881 30.4318 48.6351 30.4318C 51.5884 30.4318 54.156 28.8035 55.4588 26.4143C 56.7559 28.8035 59.3235 30.4318 62.2761 30.4318L 62.2761 64L 65.8098 64L 65.8098 29.5858C 68.2962 28.3246 70 25.7865 70 22.8628L 70 16.9755L 60.0347 2.35574e-08ZM 15.9588 17.7845L 20.8931 3.06438L 28.7367 3.06438L 27.1029 17.6994L 27.1029 21.9076C 27.1029 24.9192 24.6059 27.3667 21.5336 27.3667C 18.4613 27.3667 15.9644 24.9192 15.9644 21.9076L 15.9644 17.7845L 15.9588 17.7845ZM 38.4913 42.3236L 7.72458 42.3236L 7.72458 30.4318C 10.6779 30.4318 13.2448 28.8035 14.5426 26.4143C 15.8454 28.8035 18.413 30.4318 21.3656 30.4318C 24.3126 30.4318 26.8803 28.8035 28.1837 26.4143C 29.4808 28.8035 32.054 30.4318 35.001 30.4318C 36.2604 30.4318 37.4434 30.123 38.4913 29.596L 38.4913 42.3236ZM 54.037 21.9076C 54.037 24.9192 51.5408 27.3667 48.4678 27.3667C 45.3955 27.3667 42.8985 24.9192 42.8985 21.9076L 42.8985 17.6994L 41.2647 3.06438L 49.1083 3.06438L 54.0426 17.7845L 54.0426 21.9076L 54.037 21.9076Z"/>
</defs>
</svg>
