<svg width="76" height="76" viewBox="0 0 76 76" version="1.1" xmlns="http://www.w3.org/2000/svg" xmlns:xlink="http://www.w3.org/1999/xlink" xmlns:figma="http://www.figma.com/figma/ns">
<title>Star</title>
<desc>Created using Figma</desc>
<g id="Canvas" transform="translate(-2312 -5634)" figma:type="canvas">
<g id="Star" style="mix-blend-mode:normal;" figma:type="star">
<mask id="mask0_outline_ins">
<use xlink:href="#path0_fill" fill="white" transform="translate(2304 5630.12)"/>
</mask>
<g mask="url(#mask0_outline_ins)">
<use xlink:href="#path1_stroke_2x" transform="translate(2304 5630.12)" fill="#C4C4C4" style="mix-blend-mode:normal;"/>
</g>
</g>
</g>
<defs>
<path id="path0_fill" d="M 39.0049 6.84715C 42.8921 3.04213 49.1079 3.04213 52.9951 6.84715L 73.5623 26.9793C 74.8685 28.2579 75.7993 29.8702 76.2535 31.6407L 83.4049 59.5185C 84.7565 64.7875 81.6487 70.1704 76.4098 71.6344L 48.6913 79.38C 46.9308 79.8719 45.0692 79.8719 43.3087 79.38L 15.5902 71.6344C 10.3513 70.1704 7.24346 64.7875 8.59509 59.5185L 15.7465 31.6407C 16.2007 29.8702 17.1315 28.2579 18.4377 26.9793L 39.0049 6.84715Z"/>
<path id="path1_stroke_2x" d="M 52.9951 6.84715L 52.2956 7.56177L 52.9951 6.84715ZM 73.5623 26.9793L 72.8627 27.6939L 73.5623 26.9793ZM 48.6913 79.38L 48.4221 78.4169L 48.6913 79.38ZM 15.5902 71.6344L 15.3211 72.5975L 15.5902 71.6344ZM 76.2535 31.6407L 75.2849 31.8892L 76.2535 31.6407ZM 43.3087 79.38L 43.5779 78.4169L 43.3087 79.38ZM 52.2956 7.56177L 72.8627 27.6939L 74.2618 26.2647L 53.6946 6.13252L 52.2956 7.56177ZM 75.2849 31.8892L 82.4363 59.767L 84.3736 59.27L 77.2222 31.3923L 75.2849 31.8892ZM 76.1407 70.6712L 48.4221 78.4169L 48.9604 80.3431L 76.6789 72.5975L 76.1407 70.6712ZM 43.5779 78.4169L 15.8593 70.6712L 15.3211 72.5975L 43.0396 80.3431L 43.5779 78.4169ZM 9.56372 59.767L 16.7151 31.8892L 14.7778 31.3923L 7.62645 59.27L 9.56372 59.767ZM 19.1373 27.6939L 39.7044 7.56177L 38.3054 6.13252L 17.7382 26.2647L 19.1373 27.6939ZM 53.6946 6.13252C 49.4186 1.947 42.5814 1.947 38.3054 6.13252L 39.7044 7.56177C 43.2029 4.13725 48.7971 4.13725 52.2956 7.56177L 53.6946 6.13252ZM 72.8627 27.6939C 74.0784 28.8709 74.8734 30.2479 75.2849 31.8892L 77.2222 31.3923C 76.7252 29.4924 75.6586 27.645 74.2618 26.2647L 72.8627 27.6939ZM 82.4363 59.767C 83.6527 64.509 80.8557 69.3537 76.1407 70.6712L 76.6789 72.5975C 82.4417 70.9871 85.8603 65.0659 84.3736 59.27L 82.4363 59.767ZM 48.4221 78.4169C 46.795 78.8812 45.205 78.8812 43.5779 78.4169L 43.0396 80.3431C 44.9334 80.8626 47.0666 80.8626 48.9604 80.3431L 48.4221 78.4169ZM 15.8593 70.6712C 11.1443 69.3537 8.34726 64.509 9.56372 59.767L 7.62645 59.27C 6.13966 65.0659 9.55831 70.9871 15.3211 72.5975L 15.8593 70.6712ZM 16.7151 31.8892C 17.1266 30.2479 17.9216 28.8709 19.1373 27.6939L 17.7382 26.2647C 16.3414 27.645 15.2748 29.4924 14.7778 31.3923L 16.7151 31.8892Z"/>
</defs>
</svg>
