<svg width="24" height="24" viewBox="0 0 24 24" version="1.1" xmlns="http://www.w3.org/2000/svg" xmlns:xlink="http://www.w3.org/1999/xlink" xmlns:figma="http://www.figma.com/figma/ns">
<title>Star</title>
<desc>Created using Figma</desc>
<g id="Canvas" transform="translate(-3280 -5515)" figma:type="canvas">
<g id="Star" style="mix-blend-mode:normal;" figma:type="star">
<mask id="mask0_outline_ins">
<use xlink:href="#path0_fill" fill="white" transform="matrix(0.741607 -0.670835 0.670835 0.741607 3251 5524.36)"/>
</mask>
<g mask="url(#mask0_outline_ins)">
<use xlink:href="#path1_stroke_2x" transform="matrix(0.741607 -0.670835 0.670835 0.741607 3251 5524.36)" fill="#C4C4C4" style="mix-blend-mode:normal;"/>
</g>
</g>
</g>
<defs>
<path id="path0_fill" d="M 20.5754 22.1807C 23.2354 14.7355 33.7646 14.7355 36.4246 22.1807C 36.7661 23.1367 37.2778 24.023 37.935 24.7967C 43.0527 30.823 37.7881 39.9416 30.0104 38.5226C 29.0117 38.3404 27.9883 38.3404 26.9896 38.5226C 19.2119 39.9416 13.9473 30.823 19.065 24.7967C 19.7222 24.023 20.2339 23.1367 20.5754 22.1807Z"/>
<path id="path1_stroke_2x" d="M 37.3663 21.8443C 34.3902 13.5143 22.6098 13.5143 19.6337 21.8443L 21.5171 22.5172C 23.861 15.9567 33.139 15.9567 35.4829 22.5172L 37.3663 21.8443ZM 35.4829 22.5172C 35.8586 23.5566 36.4604 24.599 37.1727 25.444L 38.6972 24.1494C 38.0953 23.447 37.6737 22.7167 37.3663 21.8443L 35.4829 22.5172ZM 37.1727 25.444C 41.6824 30.7542 37.0434 38.7892 30.1898 37.5388L 29.8309 39.5063C 38.5329 41.0939 44.4231 30.8918 38.6972 24.1494L 37.1727 25.444ZM 30.1898 37.5388C 29.1018 37.3444 27.8982 37.3444 26.8102 37.5388L 27.1691 39.5063C 28.0784 39.3363 28.9216 39.3363 29.8309 39.5063L 30.1898 37.5388ZM 26.8102 37.5388C 19.9566 38.7892 15.3176 30.7542 19.8273 25.444L 18.3028 24.1494C 12.5769 30.8918 18.4671 41.0939 27.1691 39.5063L 26.8102 37.5388ZM 19.8273 25.444C 20.5396 24.599 21.1414 23.5566 21.5171 22.5172L 19.6337 21.8443C 19.3263 22.7167 18.9047 23.447 18.3028 24.1494L 19.8273 25.444Z"/>
</defs>
</svg>
