<svg xmlns="http://www.w3.org/2000/svg" fill-rule="evenodd" stroke-miterlimit="1.5" viewBox="0 0 19 17" clip-rule="evenodd" stroke-linecap="round" stroke-linejoin="round">
    <path
        fill="none"
        stroke="#000"
        d="M9.229 8.005c4.979 0 7.777 6.058 4.088 8.131-1.291.726-2.019-1.374-4.067-1.374s-2.519 2.115-3.802 1.374c-3.466-2-1.199-8.131 3.781-8.131zM6.495.588c.837-.108 1.667.978 1.853 2.424.185 1.445-.343 2.706-1.18 2.813-.837.107-1.667-.979-1.852-2.424C5.13 1.956 5.659.695 6.495.588zm5.859.043c-.837-.108-1.667.978-1.852 2.424-.186 1.445.343 2.706 1.18 2.813.836.108 1.666-.979 1.852-2.424.185-1.445-.343-2.706-1.18-2.813zm4.938 3.923c-.715-.449-1.831.04-2.493 1.092-.661 1.052-.619 2.27.095 2.719.715.449 1.831-.04 2.493-1.092.661-1.052.619-2.27-.095-2.719zm-15.675.22c.714-.449 1.831.04 2.492 1.092.662 1.052.619 2.27-.095 2.719-.714.449-1.831-.04-2.493-1.092-.661-1.052-.618-2.27.096-2.719z"/>
</svg>
