<?xml version="1.0" encoding="utf-8"?>
<!-- Generator: Adobe Illustrator 19.2.1, SVG Export Plug-In . SVG Version: 6.00 Build 0)  -->
<svg version="1.1" id="Layer_1" xmlns:figma="http://www.figma.com/figma/ns"
	 xmlns="http://www.w3.org/2000/svg" xmlns:xlink="http://www.w3.org/1999/xlink" x="0px" y="0px" viewBox="0 0 9 16"
	 style="enable-background:new 0 0 9 16;" xml:space="preserve">
<style type="text/css">
	.st0{fill:#DDDDDD;}
</style>
<title>Vector 2</title>
<desc>Created using Figma</desc>
<g id="Canvas" transform="translate(-2518 49)" figma:type="canvas">
	<g id="Vector_2" figma:type="vector">
		<g transform="matrix(1 -2.67189e-24 2.67189e-24 1 2519 -48)">
			<path id="path0_stroke" class="st0" d="M2518.6-34.4c-0.2,0.2-0.2,0.5,0,0.7c0.2,0.2,0.5,0.2,0.7,0L2518.6-34.4z M2526-41
				l0.4,0.4c0.2-0.2,0.2-0.5,0-0.7L2526-41z M2519.4-48.4c-0.2-0.2-0.5-0.2-0.7,0s-0.2,0.5,0,0.7L2519.4-48.4z M2519.4-33.6
				c1.2-1.2,2.9-2.9,4.4-4.4c0.7-0.7,1.4-1.4,1.9-1.9c0.2-0.2,0.4-0.4,0.6-0.6c0.1-0.1,0.1-0.1,0.2-0.2c0,0,0,0,0,0c0,0,0,0,0,0
				c0,0,0,0,0,0c0,0,0,0,0,0c0,0,0,0,0,0c0,0,0,0-0.4-0.4s-0.4-0.4-0.4-0.4c0,0,0,0,0,0c0,0,0,0,0,0c0,0,0,0,0,0c0,0,0,0,0,0
				c0,0,0,0,0,0c0,0-0.1,0.1-0.2,0.2c-0.1,0.1-0.3,0.3-0.6,0.6c-0.5,0.5-1.1,1.1-1.9,1.9c-1.5,1.5-3.2,3.2-4.4,4.4L2519.4-33.6z
				 M2526.4-41.4c-1.2-1.2-2.9-2.9-4.4-4.4c-0.7-0.7-1.4-1.4-1.9-1.9c-0.2-0.2-0.4-0.4-0.6-0.6c-0.1-0.1-0.1-0.1-0.2-0.2
				c0,0,0,0,0,0c0,0,0,0,0,0c0,0,0,0,0,0c0,0,0,0,0,0c0,0,0,0,0,0c0,0,0,0-0.4,0.4s-0.4,0.4-0.4,0.4s0,0,0,0c0,0,0,0,0,0
				c0,0,0,0,0,0c0,0,0,0,0,0c0,0,0,0,0,0c0,0,0.1,0.1,0.2,0.2c0.1,0.1,0.3,0.3,0.6,0.6c0.5,0.5,1.1,1.1,1.9,1.9
				c1.5,1.5,3.2,3.2,4.4,4.4L2526.4-41.4z"/>
		</g>
	</g>
</g>
</svg>
