<svg width="22" height="15" viewBox="0 0 22 15" version="1.1" xmlns="http://www.w3.org/2000/svg" xmlns:xlink="http://www.w3.org/1999/xlink" xmlns:figma="http://www.figma.com/figma/ns">
<title>arrow</title>
<desc>Created using Figma</desc>
<g id="Canvas" transform="translate(348 -4208)" figma:type="canvas">
<g id="arrow" style="mix-blend-mode:normal;" figma:type="frame">
<g id="Vector 4" style="mix-blend-mode:normal;" figma:type="vector">
<use xlink:href="#path0_stroke" transform="matrix(1 -2.41858e-16 2.4804e-16 1 -340.371 4215.58)" fill="#FFFFFF" style="mix-blend-mode:normal;"/>
</g>
<g id="Vector 2" style="mix-blend-mode:normal;" figma:type="vector">
<use xlink:href="#path1_stroke" transform="matrix(-1 1.20929e-16 -1.2402e-16 -1 -340.371 4221.58)" fill="#FFFFFF" style="mix-blend-mode:normal;"/>
</g>
</g>
</g>
<defs>
<path id="path0_stroke" d="M 0 -1C -0.552285 -1 -1 -0.552285 -1 0C -1 0.552285 -0.552285 1 0 1L 0 -1ZM 12.7048 1C 13.257 1 13.7048 0.552285 13.7048 0C 13.7048 -0.552285 13.257 -1 12.7048 -1L 12.7048 1ZM 0 1L 12.7048 1L 12.7048 -1L 0 -1L 0 1Z"/>
<path id="path1_stroke" d="M -0.671081 11.2586C -1.08054 11.6292 -1.11201 12.2616 -0.741384 12.6711C -0.370757 13.0805 0.261625 13.112 0.671081 12.7414L -0.671081 11.2586ZM 6.62857 6L 7.29965 6.74138C 7.50909 6.55181 7.62857 6.28249 7.62857 6C 7.62857 5.71751 7.50909 5.44819 7.29965 5.25862L 6.62857 6ZM 0.671081 -0.741384C 0.261625 -1.11201 -0.370757 -1.08054 -0.741384 -0.671081C -1.11201 -0.261625 -1.08054 0.370757 -0.671081 0.741384L 0.671081 -0.741384ZM 0.671081 12.7414C 1.77584 11.7414 3.43299 10.2414 4.81394 8.99138C 5.50441 8.36638 6.12584 7.80388 6.57465 7.39763C 6.79906 7.19451 6.98031 7.03045 7.10546 6.91717C 7.16803 6.86053 7.21658 6.81658 7.24948 6.78679C 7.26594 6.7719 7.27848 6.76055 7.28691 6.75292C 7.29112 6.74911 7.29431 6.74622 7.29644 6.74429C 7.29751 6.74333 7.29831 6.7426 7.29885 6.74211C 7.29911 6.74187 7.29932 6.74169 7.29945 6.74157C 7.29952 6.74151 7.29957 6.74146 7.2996 6.74143C 7.29963 6.7414 7.29965 6.74138 6.62857 6C 5.95749 5.25862 5.95747 5.25863 5.95744 5.25866C 5.95741 5.25869 5.95736 5.25874 5.95729 5.2588C 5.95715 5.25892 5.95695 5.2591 5.95668 5.25935C 5.95615 5.25983 5.95535 5.26056 5.95428 5.26152C 5.95215 5.26345 5.94896 5.26634 5.94475 5.27015C 5.93632 5.27778 5.92378 5.28913 5.90732 5.30403C 5.87442 5.33381 5.82587 5.37776 5.76329 5.4344C 5.63814 5.54768 5.4569 5.71174 5.23249 5.91487C 4.78368 6.32112 4.16225 6.88362 3.47178 7.50862C 2.09082 8.75862 0.433681 10.2586 -0.671081 11.2586L 0.671081 12.7414ZM 7.29965 5.25862C 6.19489 4.25862 4.53775 2.75862 3.15679 1.50862C 2.46632 0.883616 1.84489 0.321116 1.39608 -0.0851343C 1.17168 -0.288259 0.990426 -0.452322 0.865277 -0.565603C 0.802703 -0.622244 0.754154 -0.666189 0.721248 -0.695974C 0.704795 -0.710867 0.692253 -0.722219 0.683825 -0.729849C 0.67961 -0.733663 0.676424 -0.736547 0.674292 -0.738478C 0.673226 -0.739443 0.672423 -0.740169 0.671887 -0.740655C 0.671619 -0.740897 0.671417 -0.74108 0.671283 -0.741202C 0.671215 -0.741262 0.671165 -0.741308 0.671131 -0.741339C 0.671098 -0.741369 0.671081 -0.741384 0 0C -0.671081 0.741384 -0.671064 0.7414 -0.67103 0.74143C -0.670996 0.741461 -0.670946 0.741506 -0.670879 0.741567C -0.670744 0.741689 -0.670543 0.741871 -0.670275 0.742114C -0.669738 0.742599 -0.668936 0.743326 -0.667869 0.744291C -0.665737 0.746221 -0.662551 0.749105 -0.658337 0.75292C -0.649908 0.760549 -0.637366 0.771902 -0.620913 0.786794C -0.588008 0.81658 -0.539459 0.860525 -0.476884 0.917166C -0.351735 1.03045 -0.170485 1.19451 0.0539193 1.39763C 0.502729 1.80388 1.12416 2.36638 1.81463 2.99138C 3.19559 4.24138 4.85273 5.74138 5.95749 6.74138L 7.29965 5.25862Z"/>
</defs>
</svg>
