<svg width="9" height="16" viewBox="0 0 9 16" version="1.1" xmlns="http://www.w3.org/2000/svg" xmlns:xlink="http://www.w3.org/1999/xlink" xmlns:figma="http://www.figma.com/figma/ns">
<title>Vector 2</title>
<desc>Created using Figma</desc>
<g id="Canvas" transform="translate(-2518 49)" figma:type="canvas">
<g id="Vector 2" style="mix-blend-mode:normal;" figma:type="vector">
<use xlink:href="#path0_stroke" transform="matrix(1 -2.67189e-24 2.67189e-24 1 2519 -48)" fill="#FFFFFF" style="mix-blend-mode:normal;"/>
</g>
</g>
<defs>
<path id="path0_stroke" d="M -0.353553 13.6464C -0.548816 13.8417 -0.548816 14.1583 -0.353553 14.3536C -0.158291 14.5488 0.158291 14.5488 0.353553 14.3536L -0.353553 13.6464ZM 7 7L 7.35355 7.35355C 7.54882 7.15829 7.54882 6.84171 7.35355 6.64645L 7 7ZM 0.353553 -0.353553C 0.158291 -0.548816 -0.158291 -0.548816 -0.353553 -0.353553C -0.548816 -0.158291 -0.548816 0.158291 -0.353553 0.353553L 0.353553 -0.353553ZM 0.353553 14.3536C 1.52022 13.1869 3.27022 11.4369 4.72855 9.97855C 5.45772 9.24939 6.11397 8.59314 6.58793 8.11918C 6.82491 7.8822 7.01631 7.69079 7.14848 7.55863C 7.21456 7.49255 7.26583 7.44128 7.30057 7.40653C 7.31795 7.38916 7.33119 7.37591 7.3401 7.36701C 7.34455 7.36256 7.34791 7.3592 7.35016 7.35694C 7.35129 7.35582 7.35214 7.35497 7.3527 7.3544C 7.35299 7.35412 7.3532 7.35391 7.35334 7.35377C 7.35341 7.3537 7.35346 7.35364 7.3535 7.35361C 7.35354 7.35357 7.35355 7.35355 7 7C 6.64645 6.64645 6.64643 6.64646 6.64639 6.6465C 6.64636 6.64654 6.6463 6.64659 6.64623 6.64666C 6.64609 6.6468 6.64588 6.64701 6.6456 6.6473C 6.64503 6.64786 6.64418 6.64871 6.64306 6.64984C 6.6408 6.65209 6.63744 6.65545 6.63299 6.6599C 6.62409 6.66881 6.61084 6.68205 6.59347 6.69943C 6.55872 6.73417 6.50745 6.78544 6.44137 6.85152C 6.30921 6.98369 6.1178 7.17509 5.88082 7.41207C 5.40686 7.88603 4.75061 8.54228 4.02145 9.27145C 2.56311 10.7298 0.813113 12.4798 -0.353553 13.6464L 0.353553 14.3536ZM 7.35355 6.64645C 6.18689 5.47978 4.43689 3.72978 2.97855 2.27145C 2.24939 1.54228 1.59314 0.88603 1.11918 0.412072C 0.882199 0.175092 0.690793 -0.0163138 0.558632 -0.148475C 0.492551 -0.214556 0.441281 -0.265826 0.406532 -0.300575C 0.389157 -0.31795 0.375913 -0.331194 0.367012 -0.340095C 0.362561 -0.344546 0.359197 -0.34791 0.356945 -0.350162C 0.355819 -0.351288 0.354971 -0.352136 0.354405 -0.352702C 0.354121 -0.352985 0.353909 -0.353198 0.353767 -0.35334C 0.353696 -0.353411 0.353642 -0.353464 0.353607 -0.3535C 0.353571 -0.353536 0.353553 -0.353553 0 0C -0.353553 0.353553 -0.353536 0.353571 -0.3535 0.353607C -0.353464 0.353642 -0.353411 0.353696 -0.35334 0.353767C -0.353198 0.353909 -0.352985 0.354121 -0.352702 0.354405C -0.352136 0.354971 -0.351288 0.355819 -0.350162 0.356945C -0.34791 0.359197 -0.344546 0.362561 -0.340095 0.367012C -0.331194 0.375913 -0.31795 0.389157 -0.300575 0.406532C -0.265826 0.441281 -0.214556 0.492551 -0.148475 0.558632C -0.0163138 0.690793 0.175092 0.882199 0.412072 1.11918C 0.88603 1.59314 1.54228 2.24939 2.27145 2.97855C 3.72978 4.43689 5.47978 6.18689 6.64645 7.35355L 7.35355 6.64645Z"/>
</defs>
</svg>
