<svg width="31" height="25" viewBox="0 0 31 25" version="1.1" xmlns="http://www.w3.org/2000/svg" xmlns:xlink="http://www.w3.org/1999/xlink" xmlns:figma="http://www.figma.com/figma/ns">
<title>Group</title>
<desc>Created using Figma</desc>
<g id="Canvas" transform="translate(-489 -258)" figma:type="canvas">
<g id="Group" style="mix-blend-mode:normal;" figma:type="frame">
<g id="Vector 3" style="mix-blend-mode:normal;" figma:type="vector">
<use xlink:href="#path0_stroke" transform="translate(490 259)" fill="#FFFFFF" style="mix-blend-mode:normal;"/>
</g>
</g>
</g>
<defs>
<path id="path0_stroke" d="M 0 -1C -0.552285 -1 -1 -0.552285 -1 0C -1 0.552285 -0.552285 1 0 1L 0 -1ZM 9.68151 15.4841L 8.71612 15.7449L 9.68151 15.4841ZM 29.0426 12.0706C 29.199 11.5409 28.8963 10.9847 28.3666 10.8284C 27.8369 10.6721 27.2808 10.9747 27.1245 11.5044L 29.0426 12.0706ZM 20.141 5.6C 20.6933 5.6 21.141 5.15229 21.141 4.6C 21.141 4.04772 20.6933 3.6 20.141 3.6L 20.141 5.6ZM 6.7413 3.6C 6.18902 3.6 5.7413 4.04772 5.7413 4.6C 5.7413 5.15229 6.18902 5.6 6.7413 5.6L 6.7413 3.6ZM 25.4178 3.7375C 25.4178 3.18522 24.9701 2.7375 24.4178 2.7375C 23.8655 2.7375 23.4178 3.18522 23.4178 3.7375L 25.4178 3.7375ZM 23.4178 12.075C 23.4178 12.6273 23.8655 13.075 24.4178 13.075C 24.9701 13.075 25.4178 12.6273 25.4178 12.075L 23.4178 12.075ZM 20.141 6.7625C 19.5888 6.7625 19.141 7.21022 19.141 7.7625C 19.141 8.31479 19.5888 8.7625 20.141 8.7625L 20.141 6.7625ZM 29 8.7625C 29.5523 8.7625 30 8.31479 30 7.7625C 30 7.21022 29.5523 6.7625 29 6.7625L 29 8.7625ZM 26.9793 15.5287L 27.9384 15.8117L 26.9793 15.5287ZM 0 1L 3.96725 1L 3.96725 -1L 0 -1L 0 1ZM 4.93265 1.73921L 8.71612 15.7449L 10.6469 15.2233L 6.86344 1.21763L 4.93265 1.73921ZM 11.6123 17.9625L 25.0612 17.9625L 25.0612 15.9625L 11.6123 15.9625L 11.6123 17.9625ZM 27.9384 15.8117L 29.0426 12.0706L 27.1245 11.5044L 26.0203 15.2456L 27.9384 15.8117ZM 20.141 3.6L 6.7413 3.6L 6.7413 5.6L 20.141 5.6L 20.141 3.6ZM 23.4178 3.7375C 23.4178 5.12708 23.4178 7.21146 23.4178 8.94844C 23.4178 9.81693 23.4178 10.5986 23.4178 11.1631C 23.4178 11.4453 23.4178 11.6733 23.4178 11.8307C 23.4178 11.9094 23.4178 11.9705 23.4178 12.0119C 23.4178 12.0326 23.4178 12.0484 23.4178 12.059C 23.4178 12.0643 23.4178 12.0683 23.4178 12.071C 23.4178 12.0723 23.4178 12.0733 23.4178 12.074C 23.4178 12.0743 23.4178 12.0746 23.4178 12.0747C 23.4178 12.0748 23.4178 12.0749 23.4178 12.0749C 23.4178 12.075 23.4178 12.075 24.4178 12.075C 25.4178 12.075 25.4178 12.075 25.4178 12.0749C 25.4178 12.0749 25.4178 12.0748 25.4178 12.0747C 25.4178 12.0746 25.4178 12.0743 25.4178 12.074C 25.4178 12.0733 25.4178 12.0723 25.4178 12.071C 25.4178 12.0683 25.4178 12.0643 25.4178 12.059C 25.4178 12.0484 25.4178 12.0326 25.4178 12.0119C 25.4178 11.9705 25.4178 11.9094 25.4178 11.8307C 25.4178 11.6733 25.4178 11.4453 25.4178 11.1631C 25.4178 10.5986 25.4178 9.81693 25.4178 8.94844C 25.4178 7.21146 25.4178 5.12708 25.4178 3.7375L 23.4178 3.7375ZM 20.141 8.7625C 21.6175 8.7625 23.8323 8.7625 25.6779 8.7625C 26.6007 8.7625 27.4312 8.7625 28.0311 8.7625C 28.331 8.7625 28.5732 8.7625 28.7405 8.7625C 28.8241 8.7625 28.889 8.7625 28.933 8.7625C 28.9549 8.7625 28.9717 8.7625 28.983 8.7625C 28.9886 8.7625 28.9929 8.7625 28.9957 8.7625C 28.9971 8.7625 28.9982 8.7625 28.9989 8.7625C 28.9993 8.7625 28.9995 8.7625 28.9997 8.7625C 28.9998 8.7625 28.9999 8.7625 28.9999 8.7625C 29 8.7625 29 8.7625 29 7.7625C 29 6.7625 29 6.7625 28.9999 6.7625C 28.9999 6.7625 28.9998 6.7625 28.9997 6.7625C 28.9995 6.7625 28.9993 6.7625 28.9989 6.7625C 28.9982 6.7625 28.9971 6.7625 28.9957 6.7625C 28.9929 6.7625 28.9886 6.7625 28.983 6.7625C 28.9717 6.7625 28.9549 6.7625 28.933 6.7625C 28.889 6.7625 28.8241 6.7625 28.7405 6.7625C 28.5732 6.7625 28.331 6.7625 28.0311 6.7625C 27.4312 6.7625 26.6007 6.7625 25.6779 6.7625C 23.8323 6.7625 21.6175 6.7625 20.141 6.7625L 20.141 8.7625ZM 14.2741 20.9875C 14.2741 21.4904 13.8224 22 13.1357 22L 13.1357 24C 14.811 24 16.2741 22.7075 16.2741 20.9875L 14.2741 20.9875ZM 13.1357 22C 12.449 22 11.9973 21.4904 11.9973 20.9875L 9.99734 20.9875C 9.99734 22.7075 11.4605 24 13.1357 24L 13.1357 22ZM 11.9973 20.9875C 11.9973 20.4846 12.449 19.975 13.1357 19.975L 13.1357 17.975C 11.4604 17.975 9.99734 19.2675 9.99734 20.9875L 11.9973 20.9875ZM 13.1357 19.975C 13.8224 19.975 14.2741 20.4846 14.2741 20.9875L 16.2741 20.9875C 16.2741 19.2675 14.811 17.975 13.1357 17.975L 13.1357 19.975ZM 24.609 20.9875C 24.609 21.4904 24.1573 22 23.4706 22L 23.4706 24C 25.1459 24 26.609 22.7075 26.609 20.9875L 24.609 20.9875ZM 23.4706 22C 22.7839 22 22.3322 21.4904 22.3322 20.9875L 20.3322 20.9875C 20.3322 22.7075 21.7954 24 23.4706 24L 23.4706 22ZM 22.3322 20.9875C 22.3322 20.4846 22.7839 19.975 23.4706 19.975L 23.4706 17.975C 21.7953 17.975 20.3322 19.2675 20.3322 20.9875L 22.3322 20.9875ZM 23.4706 19.975C 24.1573 19.975 24.609 20.4846 24.609 20.9875L 26.609 20.9875C 26.609 19.2675 25.1459 17.975 23.4706 17.975L 23.4706 19.975ZM 3.96725 1C 4.4191 1 4.81481 1.303 4.93265 1.73921L 6.86344 1.21763C 6.50993 -0.091004 5.3228 -1 3.96725 -1L 3.96725 1ZM 8.71612 15.7449C 9.06963 17.0535 10.2568 17.9625 11.6123 17.9625L 11.6123 15.9625C 11.1605 15.9625 10.7647 15.6595 10.6469 15.2233L 8.71612 15.7449ZM 25.0612 17.9625C 26.3909 17.9625 27.562 17.0871 27.9384 15.8117L 26.0203 15.2456C 25.8948 15.6707 25.5044 15.9625 25.0612 15.9625L 25.0612 17.9625Z"/>
</defs>
</svg>
