<svg width="40" height="35" viewBox="0 0 40 35" version="1.1" xmlns="http://www.w3.org/2000/svg" xmlns:xlink="http://www.w3.org/1999/xlink" xmlns:figma="http://www.figma.com/figma/ns">
<title>Group</title>
<desc>Created using Figma</desc>
<g id="Canvas" transform="translate(-3395 225)" figma:type="canvas">
<g id="Group" style="mix-blend-mode:normal;" figma:type="frame">
<g id="Vector 11" style="mix-blend-mode:normal;" figma:type="vector">
<use xlink:href="#path0_stroke" transform="translate(3396 -224)" fill="#FF6565" style="mix-blend-mode:normal;"/>
</g>
<g id="Ellipse 8" style="mix-blend-mode:normal;" figma:type="ellipse">
<use xlink:href="#path1_fill" transform="translate(3407 -195)" fill="#FF6565" style="mix-blend-mode:normal;"/>
</g>
<g id="Ellipse 8" style="mix-blend-mode:normal;" figma:type="ellipse">
<use xlink:href="#path1_fill" transform="translate(3424 -195)" fill="#FF6565" style="mix-blend-mode:normal;"/>
</g>
<g id="Vector 12" style="mix-blend-mode:normal;" figma:type="vector">
<use xlink:href="#path2_stroke" transform="translate(3410.73 -217.5)" fill="#FF6565" style="mix-blend-mode:normal;"/>
</g>
</g>
</g>
<defs>
<path id="path0_stroke" d="M 0 -1C -0.552285 -1 -1 -0.552285 -1 0C -1 0.552285 -0.552285 1 0 1L 0 -1ZM 37.9273 8.45446L 36.9535 8.22723L 37.9273 8.45446ZM 7.5 5C 6.94772 5 6.5 5.44772 6.5 6C 6.5 6.55228 6.94772 7 7.5 7L 7.5 5ZM 33 28C 33.5523 28 34 27.5523 34 27C 34 26.4477 33.5523 26 33 26L 33 28ZM 11.5 27L 11.3039 27.9806L 11.401 28L 11.5 28L 11.5 27ZM 35.3606 19.4545L 36.3345 19.6817L 35.3606 19.4545ZM 0 1L 3.92028 1L 3.92028 -1L 0 -1L 0 1ZM 10.5 22L 33.4129 22L 33.4129 20L 10.5 20L 10.5 22ZM 36.3345 19.6817L 38.9011 8.68169L 36.9535 8.22723L 34.3868 19.2272L 36.3345 19.6817ZM 35.9796 5L 7.5 5L 7.5 7L 35.9796 7L 35.9796 5ZM 4.89309 1.76838L 9.52719 21.2316L 11.4728 20.7684L 6.8387 1.30514L 4.89309 1.76838ZM 33 26L 11.5 26L 11.5 28L 33 28L 33 26ZM 10 24C 10 22.9669 10.3032 22.4537 10.5093 22.2133C 10.6212 22.0735 10.6864 22.0307 10.7871 21.9705C 10.8207 21.9489 10.8243 21.9479 10.8477 21.9375C 10.8515 21.9356 10.8485 21.9372 10.8456 21.9382C 10.848 21.9373 10.8336 21.9427 10.8346 21.9423C 10.837 21.9415 10.8252 21.9456 10.8264 21.9452C 10.8279 21.9447 10.8208 21.9472 10.8215 21.9469C 10.8224 21.9466 10.8185 21.9479 10.8189 21.9478C 10.8185 21.9479 10.8178 21.9482 10.8176 21.9482C 10.8169 21.9485 10.8162 21.9487 10.5 21C 10.1838 20.0513 10.1831 20.0515 10.1824 20.0518C 10.1821 20.0519 10.1814 20.0521 10.1809 20.0523C 10.1804 20.0524 10.1789 20.0529 10.1779 20.0533C 10.1768 20.0537 10.1737 20.0547 10.1715 20.0555C 10.1688 20.0564 10.162 20.0588 10.1568 20.0607C 10.1501 20.0631 10.1341 20.0691 10.1207 20.0742C 10.1016 20.0817 10.0606 20.0986 10.0234 20.1153C 9.96476 20.142 9.85117 20.1996 9.74417 20.2639C 9.56364 20.3756 9.25379 20.614 8.99074 20.9117C 8.44678 21.5463 8 22.5331 8 24L 10 24ZM 8 24C 8 25.6501 8.851 26.6789 9.67654 27.2567C 10.0684 27.5257 10.4974 27.7229 10.7651 27.8217C 10.9106 27.8746 11.0495 27.9166 11.1306 27.9387C 11.1766 27.9511 11.2208 27.962 11.2447 27.9676C 11.2592 27.971 11.2742 27.9743 11.2816 27.9759C 11.2865 27.977 11.2921 27.9782 11.2946 27.9787C 11.2965 27.9791 11.2988 27.9796 11.2997 27.9797C 11.3005 27.9799 11.3015 27.9801 11.3019 27.9802C 11.3023 27.9803 11.3028 27.9804 11.3029 27.9804C 11.3034 27.9805 11.3039 27.9806 11.5 27C 11.6961 26.0194 11.6966 26.0195 11.697 26.0196C 11.6971 26.0196 11.6976 26.0197 11.6978 26.0198C 11.6976 26.0197 11.6998 26.0202 11.6994 26.0201C 11.699 26.02 11.7024 26.0207 11.7018 26.0206C 11.7017 26.0206 11.7043 26.0211 11.7041 26.0211C 11.7062 26.0215 11.7029 26.0208 11.6992 26.0199C 11.6864 26.017 11.6769 26.0147 11.6545 26.0086C 11.5989 25.9935 11.5425 25.977 11.4536 25.9439C 11.2526 25.8709 11.0566 25.7868 10.8235 25.6183C 10.399 25.3211 10 24.8499 10 24L 8 24ZM 3.92028 1C 4.38334 1 4.78583 1.31791 4.89309 1.76838L 6.8387 1.30514C 6.51694 -0.0462658 5.30946 -1 3.92028 -1L 3.92028 1ZM 33.4129 22C 34.8072 22 36.0177 21.0395 36.3345 19.6817L 34.3868 19.2272C 34.2812 19.6798 33.8777 20 33.4129 20L 33.4129 22ZM 38.9011 8.68169C 39.3402 6.79998 37.9119 5 35.9796 5L 35.9796 7C 36.6237 7 37.0998 7.59999 36.9535 8.22723L 38.9011 8.68169Z"/>
<path id="path1_fill" d="M 5 2.5C 5 3.88071 3.88071 5 2.5 5C 1.11929 5 0 3.88071 0 2.5C 0 1.11929 1.11929 0 2.5 0C 3.88071 0 5 1.11929 5 2.5Z"/>
<path id="path2_stroke" d="M -0.989949 0.141421L 1.01005 14.1414L 2.98995 13.8586L 0.989949 -0.141421L -0.989949 0.141421ZM 7.26758 0L 7.26758 14L 9.26758 14L 9.26758 0L 7.26758 0ZM 15.5101 -0.141421L 13.5101 13.8586L 15.4899 14.1414L 17.49 0.141421L 15.5101 -0.141421Z"/>
</defs>
</svg>
