<svg id="Layer_1" data-name="Layer 1" xmlns="http://www.w3.org/2000/svg" viewBox="0 0 59 51.47">
  <defs>
    <style>
      .cls-1 {
        fill: #4bab26;
      }
    </style>
  </defs>
  <title>checkbox</title>
  <g>
    <path class="cls-1" d="M59.35,9.66a0.5,0.5,0,0,0-.71,0L26.29,42,12,27.72a0.5,0.5,0,0,0-.71.71L25.94,43.08a0.5,0.5,0,0,0,.71,0L59.35,10.36A0.5,0.5,0,0,0,59.35,9.66Z" transform="translate(-0.5 -4.26)"/>
    <path class="cls-1" d="M51.47,34.18a0.5,0.5,0,0,0-.5.5V52.24a2.5,2.5,0,0,1-2.5,2.5H4a2.5,2.5,0,0,1-2.5-2.5V7.76A2.5,2.5,0,0,1,4,5.26H42.63a0.5,0.5,0,0,0,0-1H4A3.5,3.5,0,0,0,.5,7.76V52.24A3.5,3.5,0,0,0,4,55.74H48.47a3.5,3.5,0,0,0,3.5-3.5V34.68A0.5,0.5,0,0,0,51.47,34.18Z" transform="translate(-0.5 -4.26)"/>
  </g>
</svg>
