<svg xmlns="http://www.w3.org/2000/svg" fill-rule="evenodd" stroke-miterlimit="1.5" viewBox="0 0 14 22" clip-rule="evenodd" stroke-linecap="round" stroke-linejoin="round">
  <path fill="#fff" fill-rule="nonzero" d="M6.858 4.696c-.165-.165-.432-.165-.597 0L4.914 6.044c-.165.164-.165.431 0 .596.082.082.19.123.298.123.107 0 .215-.041.298-.123l1.348-1.348c.164-.165.164-.432 0-.596zm1.598.862L5.784 8.23c-.165.164-.165.431 0 .596.082.082.19.123.298.123.107 0 .215-.041.298-.123l2.672-2.672c.165-.165.165-.432 0-.596-.165-.165-.432-.165-.596 0z"/>
  <circle cx="7.056" cy="6.934" r="6.238" fill="none" stroke="#000"/>
  <ellipse cx="7.056" cy="17.352" fill="none" stroke="#000" rx="6.238" ry="4.175"/>
  <path fill="none" stroke="#000" d="M13.224 16.649c0 1.561-2.764 2.829-6.168 2.829-3.405 0-6.169-1.268-6.169-2.829"/>
  <path fill="none" stroke="#000" stroke-width=".75" d="M4.925 6.535l1.857-1.857m-.708 3.911l2.762-2.762"/>
</svg>
