<?xml version="1.0" encoding="utf-8"?>
<!-- Generator: Adobe Illustrator 19.2.1, SVG Export Plug-In . SVG Version: 6.00 Build 0)  -->
<svg version="1.1" id="Layer_1" xmlns="http://www.w3.org/2000/svg" xmlns:xlink="http://www.w3.org/1999/xlink" x="0px" y="0px"
	 viewBox="0 0 1920 1080" style="enable-background:new 0 0 1920 1080;" xml:space="preserve">
<style type="text/css">
	.st0{fill:#FAB400;}
</style>
<path class="st0" d="M957.1,537l-5.5-0.5c-0.3,0-0.6-0.3-0.8-0.6l-2-4.8c-0.2-0.4-0.5-0.6-0.9-0.6l0,0c-0.4,0-0.7,0.2-0.9,0.6
	l-2,4.8c-0.1,0.3-0.4,0.6-0.8,0.6l-5.5,0.5c-0.8,0.1-1.1,1.1-0.5,1.7l4.1,3.6c0.3,0.2,0.4,0.6,0.3,0.9l-1.2,5.1
	c-0.2,0.6,0.3,1.2,0.9,1.2c0.2,0,0.3,0,0.5-0.1l4.6-2.7c0.1-0.1,0.3-0.1,0.5-0.1s0.3,0,0.5,0.1l4.6,2.7c0.2,0.1,0.3,0.1,0.5,0.1
	c0.6,0,1.1-0.5,0.9-1.2l-1.2-5.1c-0.1-0.3,0-0.7,0.3-0.9l4.1-3.6C958.3,538.1,958,537.1,957.1,537z M952.9,541.5
	c-0.5,0.5-0.8,1.2-0.6,1.9l1.2,5l-4.5-2.7c-0.3-0.2-0.6-0.3-1-0.3s-0.7,0.1-1,0.3l-4.5,2.6l1.2-5c0.2-0.7-0.1-1.4-0.6-1.9l-4.1-3.6
	l5.4-0.5c0.7-0.1,1.4-0.5,1.6-1.2l1.9-4.7l0,0l1.9,4.7c0.3,0.7,0.9,1.1,1.6,1.2l5.4,0.5L952.9,541.5z"/>
</svg>
