<?xml version="1.0" encoding="utf-8"?>
<!-- Generator: Adobe Illustrator 19.2.1, SVG Export Plug-In . SVG Version: 6.00 Build 0)  -->
<svg version="1.1"
	 id="Layer_1" xmlns:cc="http://creativecommons.org/ns#" xmlns:dc="http://purl.org/dc/elements/1.1/" xmlns:inkscape="http://www.inkscape.org/namespaces/inkscape" xmlns:rdf="http://www.w3.org/1999/02/22-rdf-syntax-ns#" xmlns:sodipodi="http://sodipodi.sourceforge.net/DTD/sodipodi-0.dtd" xmlns:svg="http://www.w3.org/2000/svg"
	 xmlns="http://www.w3.org/2000/svg" xmlns:xlink="http://www.w3.org/1999/xlink" x="0px" y="0px" viewBox="0 0 76 69.8"
	 style="enable-background:new 0 0 76 69.8;" xml:space="preserve">
<style type="text/css">
	.st0{fill:#FFFFFF;}
</style>
<g transform="translate(0,-952.36218)">
	<path class="st0" d="M17,963c-0.6,0.1-1.1,0.4-1.3,0.9c-0.3,0.5-0.2,1.1,0.1,1.6l13.8,24.4v22.1c0,0.6,0.3,1.2,0.8,1.5
		c0.5,0.3,1.2,0.3,1.7,0l13.5-7.9c0.5-0.3,0.8-0.8,0.8-1.5v-14.2l13.8-24.4c0.3-0.5,0.3-1.2,0-1.7c-0.3-0.5-0.8-0.8-1.5-0.8H17.1
		C17.1,963,17,963,17,963z M20,966.4h35.9l-2.6,4.5H22.6L20,966.4z M24.5,974.3h26.9l-8.2,14.3c-0.2,0.2-0.2,0.6-0.2,0.8v13.7
		l-10.1,5.9v-19.6c0-0.3-0.1-0.6-0.2-0.8L24.5,974.3z"/>
</g>
</svg>
