<?xml version="1.0" encoding="utf-8"?>
<!-- Generator: Adobe Illustrator 19.2.1, SVG Export Plug-In . SVG Version: 6.00 Build 0)  -->
<svg version="1.1" id="Layer_1" xmlns="http://www.w3.org/2000/svg" xmlns:xlink="http://www.w3.org/1999/xlink" x="0px" y="0px"
	 viewBox="0 0 42.7 38.7" style="enable-background:new 0 0 42.7 38.7;" xml:space="preserve">
<style type="text/css">
	.st0{fill:#FFFFFF;}
</style>
<path id="path0_stroke" class="st0" d="M8.4,2.4c-1-1-2.5-1-3.5,0s-1,2.5,0,3.5L8.4,2.4z M34.9,36c1,1,2.5,1,3.5,0c1-1,1-2.5,0-3.5
	L34.9,36z M38.4,5.9c1-1,1-2.5,0-3.5c-1-1-2.5-1-3.5,0L38.4,5.9z M4.9,32.5c-1,1-1,2.5,0,3.5c1,1,2.5,1,3.5,0L4.9,32.5z M4.9,5.9
	l30,30l3.5-3.5l-30-30L4.9,5.9z M34.9,2.4l-30,30l3.5,3.5l30-30L34.9,2.4z"/>
</svg>
