<svg xmlns="http://www.w3.org/2000/svg" fill-rule="evenodd" stroke-miterlimit="1.5" viewBox="0 0 23 11" clip-rule="evenodd" stroke-linecap="round" stroke-linejoin="round">
  <g fill="none" stroke="#000">
    <path d="M3.793 4.271c0-.358-.142-.701-.396-.955-.253-.253-.596-.395-.954-.395h-.395c-.358 0-.701.142-.955.395-.253.254-.395.597-.395.955V8.29h3.095V4.271z"/>
    <path d="M3.092 3.094V1.798c0-.746.605-1.35 1.35-1.35H9.98c.746 0 1.35.604 1.35 1.35v4.096H3.82V4.271c0-.358-.142-.701-.395-.955l-.333-.222zm16.575 0V1.798c0-.746-.605-1.35-1.351-1.35h-5.537c-.746 0-1.351.604-1.351 1.35v4.096h7.51V4.271c0-.358.143-.701.396-.955l.333-.222z"/>
    <path stroke-width=".75" d="M3.55 8.316h15.566"/>
    <path d="M22.105 4.271c0-.358-.142-.701-.396-.955-.253-.253-.596-.395-.954-.395h-.395c-.358 0-.701.142-.955.395-.253.254-.395.597-.395.955V8.29h3.095V4.271z"/>
    <path stroke-width=".75" d="M3.539 8.396v2.07h.706l.962-2.081-1.668.011zm15.664 0v2.07h-.706l-.961-2.081 1.667.011z"/>
  </g>
</svg>
