<svg width="53" height="42" viewBox="0 0 53 42" version="1.1" xmlns="http://www.w3.org/2000/svg" xmlns:xlink="http://www.w3.org/1999/xlink" xmlns:figma="http://www.figma.com/figma/ns">
<title>Vector</title>
<desc>Created using Figma</desc>
<g id="Canvas" transform="translate(-3283 -383)" figma:type="canvas">
<g id="Vector" style="mix-blend-mode:normal;" figma:type="vector">
<use xlink:href="#path0_fill" transform="translate(3283 383.358)" fill="#FFFFFF" style="mix-blend-mode:normal;"/>
</g>
</g>
<defs>
<path id="path0_fill" d="M 52.2508 11.7223C 51.6932 11.0492 50.8567 10.7127 49.9087 10.7127L 41.5999 10.7127C 44.4439 10.7127 47.0648 8.41313 47.4551 5.55267C 47.6782 4.09439 47.2878 2.6922 46.3399 1.68263C 45.4476 0.67305 44.1651 0.0560876 42.7152 0.0560876C 39.927 0.0560876 37.3061 2.29959 36.86 5.10397C 36.9715 3.81395 36.5254 2.58003 35.7447 1.62654C 34.8525 0.616963 33.5699 -2.13957e-07 32.12 -2.13957e-07C 29.2761 -2.13957e-07 26.6552 2.29959 26.2648 5.16006C 26.0418 6.61833 26.4321 8.02052 27.3243 9.0301C 28.2166 10.0397 29.4991 10.6566 30.949 10.6566L 22.0268 10.6566C 20.2423 10.6566 18.6252 12.0588 18.4021 13.8536L 18.2348 14.9754C 18.1233 15.8728 18.3463 16.7702 18.9597 17.4432C 19.2386 17.7798 19.6289 18.0602 20.0193 18.2285L 19.7962 19.6867L 6.69168 19.6867C 6.07827 19.6867 5.5764 20.1915 5.5764 20.8085C 5.5764 21.4254 6.07827 21.9302 6.69168 21.9302L 19.5174 21.9302L 18.7925 26.9781L 3.90348 26.9781C 3.29007 26.9781 2.7882 27.4829 2.7882 28.0999C 2.7882 28.7168 3.29007 29.2216 3.90348 29.2216L 18.5136 29.2216L 17.7887 34.2695L 1.11528 34.2695C 0.501876 34.2695 0 34.7743 0 35.3912C 0 36.0082 0.501876 36.513 1.11528 36.513L 17.4541 36.513L 17.3426 37.4665C 17.2311 38.3639 17.4541 39.2613 18.0118 39.9343C 18.5694 40.6074 19.4059 41 20.3538 41L 43.7747 41C 45.5592 41 47.1763 39.5978 47.3994 37.803L 50.1318 18.4528C 51.4701 18.0602 52.5854 16.8263 52.8085 15.368L 52.9758 14.2462C 53.0873 13.2927 52.8085 12.3953 52.2508 11.7223ZM 39.0905 5.55267C 39.3136 3.81395 41.0423 2.29959 42.771 2.29959C 43.5517 2.29959 44.2208 2.58003 44.7227 3.1409C 45.1688 3.70178 45.3919 4.43092 45.2803 5.21614C 45.0573 6.95486 43.3844 8.46922 41.5999 8.46922L 38.7002 8.46922L 39.0905 5.55267ZM 29.053 7.62791C 28.6069 7.06703 28.3839 6.33789 28.4954 5.55267C 28.7184 3.81395 30.4471 2.29959 32.1758 2.29959C 32.9565 2.29959 33.6257 2.58003 34.1275 3.1409C 34.5737 3.70178 34.7967 4.43092 34.6852 5.21614L 34.2391 8.46922L 31.0048 8.46922C 30.2241 8.46922 29.5549 8.18878 29.053 7.62791ZM 30.001 38.7565L 20.3538 38.7565C 20.075 38.7565 19.852 38.6443 19.6847 38.4761C 19.5174 38.3078 19.4616 38.0274 19.5174 37.803L 20.5769 30.3434L 31.1721 30.3434L 30.001 38.7565ZM 31.7855 25.8564L 21.1903 25.8564L 22.1941 18.565L 32.7892 18.565L 31.7855 25.8564ZM 33.1238 16.3215L 21.2461 16.3215C 20.9673 16.3215 20.7442 16.2093 20.5769 16.041C 20.4096 15.8728 20.3538 15.5923 20.4096 15.368L 20.5769 14.2462C 20.6884 13.5732 21.3576 12.9562 22.0268 12.9562L 33.5699 12.9562L 33.1238 16.3215ZM 45.2246 37.4665C 45.113 38.1395 44.4439 38.7565 43.7747 38.7565L 34.4621 38.7565L 35.6332 30.3434L 46.2283 30.3434L 45.2246 37.4665ZM 46.8417 25.8564L 36.2466 25.8564L 37.2503 18.565L 47.8455 18.565L 46.8417 25.8564ZM 50.7452 13.9097L 50.5779 15.0315C 50.4664 15.7045 49.7972 16.3215 49.1281 16.3215L 37.5849 16.3215L 38.031 12.9562L 49.9087 12.9562C 50.1876 12.9562 50.4106 13.0684 50.5222 13.2367C 50.6894 13.4049 50.7452 13.6293 50.7452 13.9097Z"/>
</defs>
</svg>
