<svg xmlns="http://www.w3.org/2000/svg" fill-rule="evenodd" stroke-miterlimit="1.5" viewBox="0 0 21 17" clip-rule="evenodd" stroke-linecap="round" stroke-linejoin="round">
  <path fill="none" stroke="#000" d="M19.796 9.238L10.504.881l-9.322 8.4m1.937.221v6.693h14.784V9.502"/>
  <path d="M10.513 4.887l.097.166.15.261.196.344.111.198.12.215.126.229.132.241.136.253.14.262.142.27.143.277.143.281.142.284.139.286.069.143.068.143.066.143.065.141.064.142.063.14.06.139.059.137.057.136.055.134.052.133.051.13.047.127.045.125.042.123.04.119.036.116.033.113.029.109.027.106.022.101.019.098.008.047.007.046.005.044.005.044.004.043.003.041.002.04v.039l-.001.076-.003.075-.005.075-.007.075-.008.074-.011.073-.013.073-.014.072-.016.072-.018.07-.02.071-.021.069-.024.069-.024.068-.027.067-.028.067-.03.066-.031.064-.033.064-.035.063-.036.063-.037.061-.039.06-.041.059-.042.059-.043.057-.045.056-.046.055-.047.054-.049.053-.05.052-.051.05-.052.05-.054.048-.055.047-.056.046-.057.044-.058.043-.06.042-.06.04-.062.039-.062.038-.064.036-.064.035-.065.033-.067.032-.067.03-.068.029-.069.027-.07.026-.07.024-.072.022-.072.021-.073.019-.073.017-.074.016-.075.014-.076.012-.076.01-.076.008-.078.007-.077.005-.079.003-.079.001-.078-.001-.079-.003-.077-.005-.078-.007-.076-.008-.076-.01-.076-.012-.075-.014-.074-.016-.074-.017-.072-.019-.072-.021-.072-.022-.07-.024-.07-.026-.069-.027-.068-.029-.067-.03-.067-.032-.065-.033-.064-.035-.064-.036-.062-.038-.062-.039-.06-.04-.06-.042-.058-.043-.057-.044-.056-.046-.055-.047-.054-.048-.052-.05-.051-.05-.05-.052-.049-.053-.047-.054-.046-.055-.045-.056-.043-.057-.042-.059-.041-.059-.039-.06-.037-.061-.036-.063-.035-.063-.033-.064-.031-.064-.03-.066-.028-.067-.027-.067-.025-.068-.023-.069-.021-.069-.02-.071-.018-.07-.016-.072-.014-.072-.013-.073-.011-.073-.008-.074-.007-.075-.005-.075-.003-.075-.001-.076v-.039l.002-.04.003-.041.004-.043.004-.044.006-.044.007-.046.008-.047.019-.098.022-.101.027-.106.029-.109.033-.113.036-.116.04-.119.042-.123.045-.125.047-.127.051-.13.052-.133.055-.134.057-.136.059-.137.06-.139.063-.14.064-.142.065-.141.066-.143.068-.143.069-.143.139-.286.142-.284.143-.281.143-.277.142-.27.14-.262.136-.253.132-.241.126-.229.12-.215.111-.198.196-.344.15-.261.097-.166.034-.058.035.058zm-.122 2.131l-.134.248-.137.258-.139.264-.14.271-.14.275-.138.277-.136.279-.066.137-.066.139-.064.137-.063.137-.061.135-.06.134-.057.132-.056.131-.054.128-.051.126-.049.123-.047.12-.043.117-.041.114-.038.109-.034.105-.032.1-.027.095-.024.089-.021.083-.017.076-.014.072-.004.027-.004.028-.004.026-.002.023-.002.02-.001.018-.001.014v.011l.001.049.002.05.003.048.004.049.006.048.007.047.008.047.009.047.011.047.011.045.013.046.014.045.015.045.016.044.018.044.018.043.019.043.021.042.021.042.023.041.024.041.024.04.026.04.027.039.028.039.028.038.03.037.031.037.031.036.033.035.033.035.034.033.035.034.036.032.037.031.038.031.038.03.039.029.04.028.041.027.042.027.042.025.043.025.043.023.044.023.045.021.046.021.046.019.047.018.047.018.048.016.048.015.049.014.05.013.05.012.05.011.051.009.052.008.051.007.053.006.053.005.053.003.054.002.054.001.055-.001.054-.002.053-.003.053-.005.052-.006.052-.007.052-.008.051-.009.05-.011.05-.012.05-.013.049-.014.048-.015.048-.016.047-.018.047-.018.046-.019.046-.021.044-.021.045-.023.043-.023.043-.025.042-.025.042-.027.04-.027.04-.028.04-.029.038-.03.038-.031.037-.031.036-.032.035-.034.034-.033.033-.035.033-.035.031-.036.031-.037.03-.037.028-.038.028-.039.027-.039.026-.04.024-.04.024-.041.023-.041.021-.042.021-.042.019-.043.018-.043.018-.044.016-.044.015-.045.014-.045.013-.046.011-.045.011-.047.009-.047.008-.047.007-.047.006-.048.004-.049.003-.048.002-.05.001-.049v-.011l-.001-.014-.001-.018-.002-.02-.002-.023-.004-.026-.004-.028-.004-.027-.014-.072-.017-.076-.021-.083-.024-.089-.028-.095-.031-.1-.034-.105-.038-.109-.041-.114-.043-.117-.047-.12-.049-.123-.051-.126-.054-.128-.056-.131-.057-.132-.06-.134-.061-.135-.063-.137-.064-.137-.066-.139-.066-.137-.136-.279-.138-.277-.14-.275-.14-.271-.139-.264-.137-.258-.134-.248-.088-.16-.087.16z"/>
</svg>
