<svg width="23" height="22" viewBox="0 0 23 22" version="1.1" xmlns="http://www.w3.org/2000/svg" xmlns:xlink="http://www.w3.org/1999/xlink" xmlns:figma="http://www.figma.com/figma/ns">
<title>noun_627745_cc</title>
<desc>Created using Figma</desc>
<g id="Canvas" transform="translate(-3060 126)" figma:type="canvas">
<g id="noun_627745_cc" style="mix-blend-mode:normal;" figma:type="frame">
<g id="Vector" style="mix-blend-mode:normal;" figma:type="vector">
<use xlink:href="#path0_fill" transform="translate(3060.41 -126)" fill="#FFFFFF" style="mix-blend-mode:normal;"/>
<use xlink:href="#path1_fill" transform="translate(3060.41 -126)" fill="#FFFFFF" style="mix-blend-mode:normal;"/>
</g>
</g>
</g>
<defs>
<path id="path0_fill" d="M 13.0349 7.11353C 12.2565 7.11093 11.506 7.39902 10.9346 7.91973C 10.3379 7.38704 9.55395 7.10436 8.74909 7.1317C 7.94422 7.15904 7.18187 7.49425 6.62386 8.06617C 6.06585 8.63809 5.75612 9.40168 5.76043 10.1948C 5.76474 10.988 6.08274 11.7483 6.64693 12.3143L 10.3981 16.0088C 10.5409 16.1518 10.7356 16.233 10.9392 16.2347C 11.0401 16.2343 11.14 16.2142 11.2329 16.1754C 11.3258 16.1366 11.4099 16.08 11.4803 16.0088L 15.2201 12.3211C 15.654 11.895 15.9497 11.3516 16.0698 10.7598C 16.19 10.168 16.129 9.55441 15.8948 8.99674C 15.6605 8.43907 15.2635 7.96243 14.754 7.62718C 14.2445 7.29193 13.6454 7.11317 13.0326 7.11353L 13.0349 7.11353ZM 14.734 11.8423L 10.992 15.5301C 10.9775 15.5437 10.9582 15.5514 10.9381 15.5514C 10.918 15.5514 10.8987 15.5437 10.8842 15.5301L 7.13531 11.8378C 6.90289 11.6197 6.7171 11.3581 6.58886 11.0683C 6.46062 10.7784 6.39253 10.4663 6.38859 10.1501C 6.38464 9.834 6.44493 9.52028 6.56589 9.22743C 6.68686 8.93458 6.86607 8.66852 7.09298 8.44489C 7.31989 8.22125 7.58991 8.04457 7.88717 7.92523C 8.18443 7.80589 8.50292 7.74631 8.8239 7.74998C 9.14489 7.75365 9.46188 7.82051 9.75624 7.94661C 10.0506 8.07272 10.3164 8.25553 10.538 8.48429L 10.6916 8.6356C 10.7575 8.69641 10.8444 8.73025 10.9346 8.73025C 11.0249 8.73025 11.1118 8.69641 11.1777 8.6356L 11.329 8.48655C 11.7808 8.04185 12.3935 7.79214 13.0323 7.79235C 13.3486 7.79245 13.6617 7.85391 13.9539 7.97322C 14.2461 8.09252 14.5115 8.26734 14.7351 8.48768C 14.9587 8.70803 15.136 8.96958 15.2569 9.25742C 15.3779 9.54525 15.4401 9.85373 15.44 10.1652C 15.4398 10.4767 15.3774 10.7852 15.2563 11.0729C 15.1352 11.3607 14.9577 11.6221 14.734 11.8423ZM 21.5438 9.97023C 21.6896 9.77173 21.7908 9.54497 21.8408 9.30501C 21.8908 9.06504 21.8883 8.81735 21.8337 8.57837C 21.779 8.33939 21.6734 8.11459 21.5238 7.91888C 21.3742 7.72318 21.1841 7.56104 20.966 7.44324L 20.4799 7.18128C 20.2841 7.07545 20.1269 6.9117 20.0306 6.71315C 19.9344 6.5146 19.9039 6.29128 19.9434 6.07473L 20.042 5.53726C 20.0603 5.43588 20.0695 5.33311 20.0695 5.23014C 20.0695 4.7878 19.897 4.36237 19.5877 4.04171C 19.2783 3.72105 18.8557 3.52966 18.4072 3.50708L 17.8523 3.47773C 17.6293 3.46621 17.4156 3.38585 17.2415 3.24804C 17.0674 3.11023 16.9418 2.92197 16.8824 2.70992L 16.7334 2.19277C 16.6663 1.95776 16.5495 1.7394 16.3906 1.5521C 16.2316 1.36479 16.0342 1.21278 15.8113 1.1061C 15.5883 0.999412 15.345 0.940467 15.0972 0.933149C 14.8495 0.925831 14.603 0.970306 14.374 1.06364L 13.8627 1.27366C 13.6567 1.35865 13.4288 1.37777 13.2111 1.32834C 12.9935 1.27891 12.7971 1.16341 12.6497 0.998152L 12.2829 0.587148C 12.1187 0.403126 11.9166 0.255604 11.6901 0.154375C 11.4636 0.053145 11.2178 0.000522581 10.969 -8.0179e-09C 10.7212 -6.42299e-06 10.4762 0.0517129 10.2501 0.15175C 10.024 0.251787 9.82207 0.39787 9.6575 0.580374L 9.27917 0.984603C 9.13113 1.149 8.93437 1.2634 8.7167 1.31162C 8.49903 1.35985 8.27148 1.33946 8.06623 1.25334L 7.55491 1.04106C 7.32593 0.945245 7.07887 0.898504 6.83013 0.90394C 6.5814 0.909375 6.33669 0.966862 6.11224 1.07258C 5.8878 1.17831 5.68875 1.32985 5.52833 1.51714C 5.36791 1.70443 5.24977 1.92319 5.18177 2.1589L 5.03044 2.68508C 4.96918 2.89615 4.84217 3.08294 4.66732 3.21909C 4.49247 3.35523 4.27862 3.43385 4.05596 3.44385L 3.50108 3.47095C 3.05073 3.49073 2.62552 3.68097 2.31411 4.00198C 2.00269 4.323 1.82911 4.75002 1.82956 5.19401C 1.82929 5.2939 1.83773 5.39363 1.85478 5.4921L 1.95108 6.03182C 1.989 6.24842 1.95695 6.47127 1.85946 6.66898C 1.76197 6.86668 1.60395 7.02928 1.40767 7.13385L 0.921577 7.38678C 0.70206 7.50336 0.510307 7.66469 0.35911 7.86003C 0.207914 8.05538 0.100749 8.28022 0.0447653 8.51958C -0.0112183 8.75894 -0.0147336 9.00731 0.0344539 9.24811C 0.0836414 9.48891 0.184401 9.71662 0.33001 9.91603L 0.653308 10.3677C 0.783744 10.5463 0.853917 10.7608 0.853917 10.9808C 0.853917 11.2008 0.783744 11.4153 0.653308 11.5939L 0.327718 12.0456C 0.185058 12.2434 0.0863193 12.4687 0.0379351 12.7066C -0.0104491 12.9445 -0.00739365 13.1899 0.0469024 13.4266C 0.101198 13.6633 0.205517 13.886 0.353062 14.0804C 0.500607 14.2747 0.688068 14.4363 0.903234 14.5545L 1.38933 14.8165C 1.58543 14.922 1.7428 15.0857 1.83911 15.2844C 1.93541 15.483 1.96577 15.7064 1.92586 15.923L 1.82727 16.4605C 1.80898 16.5619 1.79977 16.6646 1.79975 16.7676C 1.79976 17.2099 1.97225 17.6354 2.28162 17.956C 2.59098 18.2767 3.01357 18.4681 3.4621 18.4907L 4.01698 18.52C 4.23972 18.5314 4.4532 18.6114 4.62724 18.7488C 4.80128 18.8862 4.92709 19.0739 4.98687 19.2856L 5.13591 19.8072C 5.20294 20.0422 5.31977 20.2606 5.47871 20.4479C 5.63765 20.6352 5.83509 20.7872 6.05802 20.8939C 6.28094 21.0006 6.5243 21.0595 6.77204 21.0669C 7.01978 21.0742 7.26628 21.0297 7.4953 20.9364L 8.00661 20.7263C 8.21261 20.6414 8.44051 20.6222 8.65814 20.6717C 8.87577 20.7211 9.07215 20.8366 9.21955 21.0018L 9.58642 21.4129C 9.75062 21.5969 9.95268 21.7444 10.1792 21.8456C 10.4057 21.9469 10.6515 21.9995 10.9002 22C 11.1481 22 11.3931 21.9483 11.6192 21.8483C 11.8452 21.7482 12.0472 21.6021 12.2118 21.4196L 12.5809 21.0109C 12.729 20.8465 12.9257 20.7321 13.1434 20.6839C 13.3611 20.6356 13.5886 20.656 13.7939 20.7421L 14.3052 20.9544C 14.5342 21.0502 14.7812 21.097 15.03 21.0915C 15.2787 21.0861 15.5234 21.0286 15.7479 20.9229C 15.9723 20.8172 16.1713 20.6656 16.3318 20.4783C 16.4922 20.2911 16.6103 20.0723 16.6783 19.8366L 16.8297 19.3104C 16.8925 19.0989 17.0214 18.9123 17.1979 18.7769C 17.3744 18.6416 17.5897 18.5643 17.8133 18.5561L 18.3682 18.5313C 18.8183 18.511 19.2432 18.3206 19.5545 17.9997C 19.8658 17.6788 20.0396 17.2521 20.0397 16.8083C 20.04 16.7084 20.0315 16.6086 20.0145 16.5102L 19.9159 15.9682C 19.878 15.7516 19.91 15.5287 20.0075 15.331C 20.105 15.1333 20.263 14.9707 20.4593 14.8661L 20.9477 14.6132C 21.1672 14.4966 21.359 14.3353 21.5102 14.14C 21.6614 13.9446 21.7685 13.7198 21.8245 13.4804C 21.8805 13.2411 21.884 12.9927 21.8348 12.7519C 21.7856 12.5111 21.6849 12.2834 21.5393 12.084L 21.216 11.6323C 21.0855 11.4537 21.0154 11.2392 21.0154 11.0192C 21.0154 10.7992 21.0855 10.5847 21.216 10.4061L 21.5438 9.97023ZM 20.9867 9.57278L 20.6611 10.0244C 20.4467 10.3182 20.3313 10.6709 20.3313 11.0327C 20.3313 11.3946 20.4467 11.7473 20.6611 12.0411L 20.9844 12.4927C 21.1138 12.6696 21.1836 12.8821 21.1839 13.1002C 21.1842 13.2899 21.1324 13.4762 21.0339 13.6392C 20.9354 13.8022 20.7939 13.9359 20.6244 14.0261L 20.136 14.2858C 19.814 14.4572 19.5546 14.7236 19.3942 15.0476C 19.2338 15.3716 19.1805 15.737 19.2418 16.0924L 19.3358 16.6299C 19.3464 16.6903 19.3518 16.7515 19.3518 16.8128C 19.3515 17.0823 19.2458 17.3413 19.0567 17.536C 18.8675 17.7307 18.6094 17.8462 18.3361 17.8583L 17.7812 17.8832C 17.4141 17.9002 17.0616 18.0303 16.7737 18.2551C 16.4857 18.48 16.2767 18.7883 16.1762 19.1365L 16.0249 19.6627C 15.9833 19.8058 15.9113 19.9385 15.8137 20.0521C 15.7161 20.1657 15.5952 20.2576 15.4588 20.3216C 15.3224 20.3857 15.1738 20.4205 15.0227 20.4237C 14.8717 20.4269 14.7217 20.3984 14.5826 20.3402L 14.0713 20.1279C 13.7324 19.9872 13.3572 19.9551 12.9987 20.0361C 12.6403 20.1172 12.3168 20.3073 12.0742 20.5796L 11.705 20.9883C 11.6049 21.0992 11.482 21.188 11.3444 21.2487C 11.2069 21.3094 11.0578 21.3408 10.9071 21.3406C 10.756 21.3402 10.6068 21.3082 10.4692 21.2467C 10.3317 21.1851 10.2089 21.0955 10.1092 20.9838L 9.74233 20.5728C 9.49968 20.3013 9.17664 20.1117 8.81875 20.0307C 8.46086 19.9496 8.08618 19.9813 7.74752 20.1211L 7.2362 20.3311C 7.0974 20.3886 6.94782 20.4164 6.7973 20.4129C 6.64679 20.4093 6.49875 20.3743 6.36294 20.3103C 6.22712 20.2463 6.10661 20.1547 6.00933 20.0415C 5.91206 19.9283 5.84022 19.7962 5.79856 19.6537L 5.64952 19.1275C 5.55056 18.7779 5.34218 18.4679 5.05402 18.2417C 4.76586 18.0154 4.4126 17.8845 4.0445 17.8674L 3.48962 17.838C 3.21709 17.8247 2.96017 17.7088 2.77198 17.5142C 2.58379 17.3196 2.4787 17.0612 2.47845 16.7924C 2.47826 16.7296 2.48363 16.6669 2.4945 16.605L 2.59309 16.0675C 2.65793 15.7116 2.60759 15.3447 2.44919 15.0185C 2.29079 14.6923 2.03233 14.4233 1.71033 14.2496L 1.23341 13.9606C 1.10095 13.8889 0.98547 13.7904 0.894623 13.6714C 0.803777 13.5525 0.739641 13.4159 0.706468 13.2707C 0.673295 13.1255 0.671844 12.975 0.702209 12.8292C 0.732574 12.6834 0.794062 12.5456 0.882597 12.425L 1.20819 11.9733C 1.42261 11.6795 1.53796 11.3268 1.53796 10.965C 1.53796 10.6032 1.42261 10.2505 1.20819 9.95668L 0.88489 9.50503C 0.797113 9.3839 0.736477 9.24578 0.707003 9.09983C 0.67753 8.95387 0.67989 8.80342 0.713929 8.65843C 0.747968 8.51344 0.812907 8.37723 0.904442 8.25883C 0.995978 8.14044 1.11202 8.04255 1.24487 7.97167L 1.73326 7.71197C 2.05502 7.54033 2.31423 7.27388 2.47458 6.94992C 2.63493 6.62597 2.68839 6.26073 2.62749 5.90536L 2.53348 5.36789C 2.52281 5.30749 2.51744 5.24629 2.51743 5.18497C 2.51774 4.91548 2.62346 4.65647 2.81262 4.46176C 3.00178 4.26704 3.25984 4.15159 3.53318 4.1394L 4.08806 4.1123C 4.45528 4.09567 4.80789 3.96568 5.09595 3.74075C 5.384 3.51581 5.59291 3.20732 5.69308 2.85896L 5.84442 2.33279C 5.88598 2.18972 5.95794 2.057 6.05553 1.9434C 6.15312 1.8298 6.27411 1.73793 6.41048 1.67387C 6.54685 1.60981 6.69549 1.57503 6.84654 1.57183C 6.99759 1.56863 7.1476 1.59708 7.28664 1.65531L 7.79796 1.86758C 8.13685 2.00831 8.51211 2.04041 8.87056 1.95935C 9.22901 1.87828 9.55246 1.68816 9.79507 1.41593L 10.1642 1.00719C 10.2642 0.895393 10.3873 0.806077 10.5254 0.745293C 10.6635 0.684509 10.8132 0.65368 10.9644 0.654896C 11.1165 0.657861 11.2662 0.692847 11.4035 0.757505C 11.5407 0.822163 11.6623 0.914996 11.7601 1.02977L 12.1269 1.44077C 12.3694 1.71253 12.6924 1.90235 13.0504 1.9834C 13.4084 2.06444 13.7832 2.03262 14.1218 1.89242L 14.6331 1.68241C 14.7719 1.62495 14.9215 1.59711 15.072 1.6007C 15.2225 1.60429 15.3705 1.63923 15.5063 1.70323C 15.6422 1.76723 15.7627 1.85884 15.8599 1.97202C 15.9572 2.0852 16.0291 2.21739 16.0707 2.35988L 16.2198 2.88606C 16.3183 3.2361 16.5265 3.54657 16.8147 3.77324C 17.1029 3.99991 17.4564 4.13121 17.8248 4.14843L 18.3797 4.17779C 18.6522 4.19111 18.9091 4.30705 19.0973 4.50165C 19.2855 4.69625 19.3906 4.95462 19.3908 5.22336C 19.391 5.28618 19.3856 5.3489 19.3748 5.4108L 19.2762 5.94827C 19.2115 6.30447 19.2619 6.67168 19.4203 6.99819C 19.5787 7.3247 19.837 7.59409 20.1589 7.76842L 20.645 8.03038C 20.8135 8.12343 20.9532 8.25971 21.0493 8.42474C 21.1454 8.58976 21.1943 8.77736 21.1907 8.96756C 21.1892 9.18613 21.1178 9.39866 20.9867 9.57504L 20.9867 9.57278Z"/>
<path id="path1_fill" d="M 14.734 11.8423L 10.992 15.5301C 10.9775 15.5437 10.9582 15.5514 10.9381 15.5514C 10.918 15.5514 10.8987 15.5437 10.8842 15.5301L 7.13531 11.8378C 6.90289 11.6197 6.7171 11.3581 6.58886 11.0683C 6.46062 10.7784 6.39253 10.4663 6.38859 10.1501C 6.38464 9.834 6.44493 9.52028 6.56589 9.22743C 6.68686 8.93458 6.86607 8.66852 7.09298 8.44489C 7.31989 8.22125 7.58991 8.04457 7.88717 7.92523C 8.18443 7.80589 8.50292 7.74631 8.8239 7.74998C 9.14489 7.75365 9.46188 7.82051 9.75624 7.94661C 10.0506 8.07272 10.3164 8.25553 10.538 8.48429L 10.6916 8.6356C 10.7575 8.69641 10.8444 8.73025 10.9346 8.73025C 11.0249 8.73025 11.1118 8.69641 11.1777 8.6356L 11.329 8.48655C 11.7808 8.04185 12.3935 7.79214 13.0323 7.79235C 13.3486 7.79245 13.6617 7.85391 13.9539 7.97322C 14.2461 8.09252 14.5115 8.26734 14.7351 8.48768C 14.9587 8.70803 15.136 8.96958 15.2569 9.25742C 15.3779 9.54525 15.4401 9.85373 15.44 10.1652C 15.4398 10.4767 15.3774 10.7852 15.2563 11.0729C 15.1352 11.3607 14.9577 11.6221 14.734 11.8423Z"/>
</defs>
</svg>
