<svg width="19" height="19" viewBox="0 0 19 19" version="1.1" xmlns="http://www.w3.org/2000/svg" xmlns:xlink="http://www.w3.org/1999/xlink" xmlns:figma="http://www.figma.com/figma/ns">
<title>1476714381_phone1</title>
<desc>Created using Figma</desc>
<g id="Canvas" transform="translate(-3216 56)" figma:type="canvas">
<g id="1476714381_phone1" style="mix-blend-mode:normal;" figma:type="frame">
<g id="Vector" style="mix-blend-mode:normal;" figma:type="vector">
<use xlink:href="#path0_stroke" transform="translate(3217.34 -54.6599)" fill="#FFFFFF" style="mix-blend-mode:normal;"/>
</g>
</g>
</g>
<defs>
<path id="path0_stroke" d="M 9.93395 11.6456L 9.68065 12.0767L 9.93069 12.2236L 10.1824 12.0795L 9.93395 11.6456ZM 11.671 10.6681L 11.9036 11.1107L 11.9048 11.1101L 11.671 10.6681ZM 12.6288 10.5681L 12.8897 10.1416L 12.8893 10.1414L 12.6288 10.5681ZM 16.0883 12.8594L 16.3753 12.4499L 16.3749 12.4497L 16.0883 12.8594ZM 16.1141 13.9882L 15.7048 13.7011L 15.7042 13.7019L 16.1141 13.9882ZM 13.6053 16.3196L 13.589 16.8193L 13.5898 16.8193L 13.6053 16.3196ZM 5.16885 11.1492L 5.52245 10.7957L 5.52243 10.7957L 5.16885 11.1492ZM 0.000170558 2.71244L 0.499915 2.69647L 0.499915 2.69646L 0.000170558 2.71244ZM 2.33087 0.202219L 2.04485 -0.207893L 2.04438 -0.207562L 2.33087 0.202219ZM 3.46001 0.228739L 3.86536 -0.0639872L 3.86519 -0.0642217L 3.46001 0.228739ZM 5.75025 3.68858L 5.32788 3.95617L 5.32813 3.95656L 5.75025 3.68858ZM 5.65029 4.64704L 5.2082 4.41346L 5.20751 4.41479L 5.65029 4.64704ZM 4.67313 6.3841L 4.23921 6.13568L 4.09528 6.38709L 4.2418 6.63699L 4.67313 6.3841ZM 7.10753 9.21018L 7.46105 8.85659L 7.10753 9.21018ZM 9.93395 11.6456C 10.1824 12.0795 10.1824 12.0795 10.1824 12.0795C 10.1824 12.0795 10.1824 12.0795 10.1824 12.0795C 10.1825 12.0795 10.1825 12.0794 10.1826 12.0794C 10.1828 12.0793 10.183 12.0792 10.1833 12.079C 10.184 12.0786 10.185 12.078 10.1863 12.0773C 10.1889 12.0758 10.1927 12.0736 10.1978 12.0707C 10.2079 12.0649 10.2228 12.0564 10.2419 12.0455C 10.2802 12.0236 10.3352 11.9921 10.4025 11.9538C 10.537 11.877 10.7198 11.7729 10.914 11.6628C 11.3025 11.4425 11.7297 11.202 11.9036 11.1107L 11.4384 10.2255C 11.2519 10.3236 10.8106 10.5718 10.4207 10.7929C 10.2257 10.9035 10.0418 11.0083 9.90691 11.0852C 9.83944 11.1237 9.78408 11.1553 9.74567 11.1773C 9.72645 11.1883 9.71141 11.1969 9.70122 11.2027C 9.69611 11.2056 9.69219 11.2079 9.68956 11.2094C 9.68824 11.2101 9.68723 11.2107 9.68657 11.2111C 9.68623 11.2113 9.68597 11.2114 9.6858 11.2115C 9.68572 11.2116 9.68565 11.2116 9.68561 11.2116C 9.68558 11.2116 9.68556 11.2117 9.68555 11.2117C 9.68554 11.2117 9.68553 11.2117 9.93395 11.6456ZM 11.9048 11.1101C 12.0397 11.0387 12.1623 11.0023 12.2551 10.992C 12.3528 10.9812 12.3802 11.0022 12.3682 10.9949L 12.8893 10.1414C 12.4318 9.86207 11.845 10.0105 11.4373 10.2261L 11.9048 11.1101ZM 12.3679 10.9947C 12.7022 11.1991 15.5644 13.1031 15.8017 13.2691L 16.3749 12.4497C 16.128 12.277 13.2401 10.3561 12.8897 10.1416L 12.3679 10.9947ZM 15.8013 13.2689C 15.7657 13.2598 15.8206 13.2531 15.8188 13.3534C 15.8255 13.4302 15.808 13.5539 15.7048 13.7011L 16.5235 14.2753C 16.9665 13.6436 16.9069 12.8226 16.3753 12.4499L 15.8013 13.2689ZM 15.7042 13.7019C 15.5472 13.9271 15.1063 14.4848 14.6176 14.9932C 14.3739 15.2474 14.1412 15.4679 13.9232 15.6311C 13.6788 15.8153 13.5894 15.8188 13.6207 15.8198L 13.5898 16.8193C 13.9452 16.8303 14.29 16.6069 14.5249 16.4299C 14.7863 16.232 15.0781 15.9574 15.3392 15.6856C 15.86 15.142 16.3496 14.5239 16.5241 14.2745L 15.7042 13.7019ZM 13.6215 15.8198C 13.3423 15.8108 12.5772 15.7992 11.2645 15.1827C 9.93822 14.5598 8.03767 13.3116 5.52245 10.7957L 4.81525 11.5027C 7.38881 14.077 9.38194 15.4034 10.8394 16.0879C 12.3105 16.7787 13.2192 16.8073 13.589 16.8193L 13.6215 15.8198ZM 5.52243 10.7957C 3.00772 8.28063 1.75979 6.37998 1.13697 5.05354C 0.520497 3.74063 0.508826 2.97534 0.499915 2.69647L -0.499574 2.72841C -0.487745 3.0986 -0.458956 4.00747 0.231787 5.47856C 0.916177 6.93613 2.24222 8.92933 4.81527 11.5027L 5.52243 10.7957ZM 0.499915 2.69646C 0.500915 2.72773 0.504415 2.63831 0.688377 2.39383C 0.851518 2.17573 1.07191 1.94297 1.32605 1.69916C 1.83439 1.21029 2.3921 0.769221 2.61737 0.612001L 2.04438 -0.207562C 1.795 -0.0329426 1.177 0.456739 0.633457 0.977835C 0.36166 1.23902 0.0870743 1.53104 -0.110684 1.79258C -0.287621 2.02773 -0.510944 2.37278 -0.499574 2.72842L 0.499915 2.69646ZM 2.61689 0.612331C 2.76214 0.51103 2.88526 0.49416 2.96379 0.50152C 3.0658 0.500692 3.06474 0.55633 3.05483 0.5217L 3.86519 -0.0642217C 3.4975 -0.57276 2.68476 -0.654179 2.04485 -0.207892L 2.61689 0.612331ZM 3.05466 0.521465C 3.24031 0.778362 5.12228 3.6316 5.32788 3.95617L 6.17262 3.42099C 5.96206 3.08868 4.06323 0.210196 3.86536 -0.0639872L 3.05466 0.521465ZM 5.32813 3.95656C 5.30317 3.93737 5.34408 3.95936 5.3282 4.06029C 5.31759 4.15315 5.28035 4.27691 5.2082 4.41346L 6.09238 4.88062C 6.20536 4.66305 6.29427 4.39101 6.32173 4.17384C 6.3486 3.93877 6.32546 3.66174 6.17237 3.4206L 5.32813 3.95656ZM 5.20751 4.41479C 5.11644 4.58852 4.87611 5.01564 4.65586 5.40412C 4.54577 5.5983 4.44168 5.78107 4.36493 5.91561C 4.32658 5.98282 4.29516 6.03782 4.27328 6.07611C 4.26235 6.09524 4.25383 6.11012 4.24803 6.12027C 4.24513 6.12533 4.24293 6.12919 4.24144 6.13179C 4.24069 6.13309 4.24014 6.13406 4.23976 6.13472C 4.23957 6.13504 4.23944 6.13528 4.23934 6.13545C 4.2393 6.13553 4.23926 6.13559 4.23924 6.13563C 4.23923 6.13565 4.23922 6.13566 4.23921 6.13567C 4.23921 6.13568 4.23921 6.13568 4.67313 6.3841C 5.10705 6.63251 5.10706 6.63251 5.10707 6.6325C 5.10707 6.63248 5.10708 6.63247 5.10709 6.63244C 5.10712 6.6324 5.10716 6.63233 5.10721 6.63225C 5.1073 6.63208 5.10745 6.63182 5.10765 6.63148C 5.10803 6.63082 5.1086 6.62981 5.10936 6.62849C 5.11086 6.62586 5.11311 6.62194 5.11603 6.61683C 5.12186 6.60664 5.13046 6.5916 5.14145 6.57237C 5.1634 6.53397 5.19503 6.4786 5.23353 6.41112C 5.31045 6.27628 5.41521 6.09235 5.52578 5.89731C 5.74685 5.50737 5.9951 5.06596 6.09308 4.87929L 5.20751 4.41479ZM 4.67313 6.3841C 4.2418 6.63699 4.24188 6.63712 4.24196 6.63725C 4.24198 6.6373 4.24207 6.63744 4.24213 6.63754C 4.24219 6.63766 4.24237 6.63796 4.2425 6.63819C 4.24267 6.63847 4.24308 6.63916 4.24342 6.63973C 4.24389 6.64053 4.24491 6.64224 4.24587 6.64384C 4.24738 6.64637 4.25027 6.65115 4.25335 6.65618C 4.25869 6.66491 4.26801 6.67992 4.27908 6.6973C 4.29958 6.72943 4.33353 6.78124 4.37758 6.84522C 4.4623 6.96811 4.6003 7.15871 4.79387 7.40321C 5.17407 7.88289 5.80168 8.61112 6.75401 9.56377L 7.46105 8.85659C 6.53454 7.93074 5.94495 7.24592 5.57766 6.78219C 5.39749 6.55499 5.27917 6.39129 5.20101 6.2778C 5.16361 6.2236 5.13949 6.1867 5.12226 6.15967C 5.11447 6.14747 5.11003 6.14029 5.10631 6.13422C 5.10486 6.13185 5.1044 6.13108 5.1037 6.12991C 5.10355 6.12966 5.10359 6.12973 5.10367 6.12986C 5.1036 6.12975 5.10399 6.13041 5.10396 6.13036C 5.1039 6.13025 5.10422 6.1308 5.10419 6.13074C 5.10423 6.13081 5.1043 6.13093 5.10432 6.13097C 5.10439 6.13109 5.10446 6.13121 4.67313 6.3841ZM 6.75401 9.56377C 7.70694 10.516 8.43515 11.1438 8.91479 11.5242C 9.15925 11.7179 9.34977 11.856 9.47262 11.9408C 9.53656 11.9849 9.58832 12.0189 9.62043 12.0394C 9.63779 12.0505 9.65278 12.0598 9.6615 12.0651C 9.66652 12.0682 9.67129 12.0711 9.67381 12.0726C 9.67541 12.0736 9.67712 12.0746 9.67792 12.0751C 9.67849 12.0754 9.67917 12.0758 9.67945 12.076C 9.67968 12.0761 9.67998 12.0763 9.68009 12.0764C 9.68019 12.0764 9.68033 12.0765 9.68038 12.0765C 9.68052 12.0766 9.68065 12.0767 9.93395 11.6456C 10.1873 11.2145 10.1874 11.2146 10.1875 11.2147C 10.1875 11.2147 10.1876 11.2147 10.1877 11.2148C 10.1877 11.2148 10.1882 11.2151 10.1881 11.215C 10.188 11.215 10.1887 11.2154 10.1886 11.2153C 10.1887 11.2154 10.1888 11.2154 10.1885 11.2153C 10.1874 11.2146 10.1866 11.2141 10.1842 11.2126C 10.1781 11.2089 10.1709 11.2044 10.1587 11.1966C 10.1317 11.1794 10.0948 11.1552 10.0405 11.1177C 9.92706 11.0395 9.76332 10.921 9.53607 10.7407C 9.0723 10.3731 8.38731 9.78316 7.46105 8.85659L 6.75401 9.56377Z"/>
</defs>
</svg>
