<?xml version="1.0" encoding="utf-8"?>
<!-- Generator: Adobe Illustrator 19.2.0, SVG Export Plug-In . SVG Version: 6.00 Build 0)  -->
<svg version="1.1" id="Layer_1" xmlns="http://www.w3.org/2000/svg" xmlns:xlink="http://www.w3.org/1999/xlink" x="0px" y="0px"
	 viewBox="0 0 25 25" style="enable-background:new 0 0 25 25;" xml:space="preserve">
<style type="text/css">
	.st0{fill:none;stroke:#B4B4B4;stroke-width:0.8;stroke-linecap:round;stroke-linejoin:round;stroke-miterlimit:10;}
</style>
<g>
	<g>
		<path class="st0" d="M8.6,21.9c-2.1,0-4.6-0.6-7.4-2.1C1,19.7,1,19.5,1,19.3c0.1-0.2,0.3-0.4,0.5-0.3c1.8,0.2,3.8-0.2,5.3-1.1
			c-1.7-0.4-3.1-1.5-3.8-3.1c-0.1-0.2,0-0.4,0.1-0.5C3.3,14,3.5,14,3.6,14c0.2,0.1,0.4,0.1,0.6,0.1C3,13.4,1.6,11.9,1.6,9.7
			c0-0.2,0.1-0.4,0.3-0.5s0.4-0.1,0.5,0.1c0.2,0.1,0.3,0.2,0.5,0.3c-0.3-0.4-0.6-1-0.8-1.7C1.7,6.6,1.9,5.3,2.6,4.1
			C2.7,4,2.9,3.9,3,3.9c0.2,0,0.3,0.1,0.4,0.2c1.5,1.8,4.1,4.1,8.3,4.5C11.6,7.3,12,5.1,13.9,4c2.3-1.3,4.4-1.1,6.3,0.5
			c0.8-0.2,2.1-0.8,2.4-0.9c0.2-0.1,0.4-0.1,0.6,0s0.3,0.3,0.2,0.5c-0.1,0.5-0.4,1-0.8,1.5c0.3-0.1,0.5-0.2,0.6-0.2
			c0.2-0.1,0.4-0.1,0.6,0.1C24,5.5,24,5.8,23.9,6c-0.6,0.9-1.5,1.8-2.2,2.3c0.3,4.2-2.1,8.9-6.1,11.6C14.2,20.8,11.8,21.9,8.6,21.9z
			"/>
	</g>
</g>
</svg>
