<?xml version="1.0" encoding="utf-8"?>
<!-- Generator: Adobe Illustrator 19.2.0, SVG Export Plug-In . SVG Version: 6.00 Build 0)  -->
<svg version="1.1" id="Layer_1" xmlns="http://www.w3.org/2000/svg" xmlns:xlink="http://www.w3.org/1999/xlink" x="0px" y="0px"
	 viewBox="0 0 25 25" style="enable-background:new 0 0 25 25;" xml:space="preserve">
<style type="text/css">
	.st0{fill:none;stroke:#B4B4B4;stroke-width:0.8;stroke-linecap:round;stroke-linejoin:round;stroke-miterlimit:10;}
</style>
<g>
	<path class="st0" d="M21.6,24h-4.8c-0.3,0-0.5-0.2-0.5-0.5v-8.6c0-0.3,0.2-0.5,0.5-0.5h2.5l0.6-1.9h-3.2c-0.3,0-0.5-0.2-0.5-0.5
		V9.1c0-1.3,1.1-2.4,2.4-2.4h1.4V4.8h-2.5c-2.4,0-4.3,1.9-4.3,4.3V12c0,0.3-0.2,0.5-0.5,0.5h-2.4v1.9h2.4c0.3,0,0.5,0.2,0.5,0.5v8.6
		c0,0.3-0.2,0.5-0.5,0.5H3.4C2.1,24,1,22.9,1,21.6V3.4C1,2.1,2.1,1,3.4,1h18.2C22.9,1,24,2.1,24,3.4v18.2C24,22.9,22.9,24,21.6,24z"
		/>
</g>
</svg>
