<?xml version="1.0" encoding="utf-8"?>
<!-- Generator: Adobe Illustrator 19.2.0, SVG Export Plug-In . SVG Version: 6.00 Build 0)  -->
<svg version="1.1" id="Layer_1" xmlns="http://www.w3.org/2000/svg" xmlns:xlink="http://www.w3.org/1999/xlink" x="0px" y="0px"
	 viewBox="0 0 25 25" style="enable-background:new 0 0 25 25;" xml:space="preserve">
<style type="text/css">
	.st0{fill:none;stroke:#B4B4B4;stroke-width:0.8;stroke-linecap:round;stroke-linejoin:round;stroke-miterlimit:10;}
</style>
<g>
	<g>
		<path class="st0" d="M20.6,24H4.4C2.5,24,1,22.5,1,20.6V4.4C1,2.5,2.5,1,4.4,1h16.3C22.5,1,24,2.5,24,4.4v16.3
			C24,22.5,22.5,24,20.6,24z"/>
	</g>
	<g>
		<path class="st0" d="M15.9,7.7h7.6"/>
	</g>
	<g>
		<path class="st0" d="M1,7.7h8.1"/>
	</g>
	<g>
		<path class="st0" d="M18.3,5.8h1.9V3.9h-1.9V5.8z"/>
	</g>
	<g>
		<path class="st0" d="M12.5,18.3c-3.2,0-5.8-2.6-5.8-5.8s2.6-5.8,5.8-5.8s5.8,2.6,5.8,5.8S15.7,18.3,12.5,18.3z"/>
	</g>
	<g>
		<path class="st0" d="M12.5,15.4c-1.6,0-2.9-1.3-2.9-2.9s1.3-2.9,2.9-2.9s2.9,1.3,2.9,2.9S14.1,15.4,12.5,15.4z"/>
	</g>
</g>
</svg>
