<svg width="22" height="19" viewBox="0 0 22 19" version="1.1" xmlns="http://www.w3.org/2000/svg" xmlns:xlink="http://www.w3.org/1999/xlink" xmlns:figma="http://www.figma.com/figma/ns">
<title>noun_18758_cc</title>
<desc>Created using Figma</desc>
<g id="Canvas" transform="translate(-2797 125)" figma:type="canvas">
<g id="noun_18758_cc" style="mix-blend-mode:normal;" figma:type="frame">
<g id="Vector" style="mix-blend-mode:normal;" figma:type="vector">
<use xlink:href="#path0_fill" transform="translate(2797.89 -125)" fill="#FFFFFF" style="mix-blend-mode:normal;"/>
</g>
</g>
</g>
<defs>
<path id="path0_fill" d="M 17.9093 6.99359e-09L 2.97302 6.99359e-09L -6.69143e-08 5.03961L -6.69143e-08 6.78739C -6.69143e-08 7.65537 0.508486 8.40886 1.25002 8.78327L 1.25002 19L 12.4749 19L 12.4749 7.84175C 12.8635 8.55105 13.6295 9.03444 14.5086 9.03444C 15.3897 9.03444 16.1556 8.55105 16.5443 7.84175C 16.9312 8.55105 17.6972 9.03444 18.578 9.03444L 18.578 19L 19.6321 19L 19.6321 8.78327C 20.3739 8.40886 20.8822 7.65537 20.8822 6.78739L 20.8822 5.03961L 17.9093 6.99359e-09ZM 4.76076 5.27978L 6.23276 0.909738L 8.57263 0.909738L 8.08523 5.25452L 8.08523 6.50383C 8.08523 7.39789 7.34036 8.12449 6.42383 8.12449C 5.50731 8.12449 4.76243 7.39789 4.76243 6.50383L 4.76243 5.27978L 4.76076 5.27978ZM 11.4826 12.5648L 2.30437 12.5648L 2.30437 9.03444C 3.1854 9.03444 3.95115 8.55105 4.33831 7.84175C 4.72693 8.55105 5.4929 9.03444 6.37372 9.03444C 7.25286 9.03444 8.01883 8.55105 8.40766 7.84175C 8.79461 8.55105 9.56224 9.03444 10.4414 9.03444C 10.8171 9.03444 11.17 8.94277 11.4826 8.78633L 11.4826 12.5648ZM 16.1201 6.50383C 16.1201 7.39789 15.3755 8.12449 14.4587 8.12449C 13.5422 8.12449 12.7973 7.39789 12.7973 6.50383L 12.7973 5.25452L 12.3099 0.909738L 14.6498 0.909738L 16.1218 5.27978L 16.1218 6.50383L 16.1201 6.50383Z"/>
</defs>
</svg>
