<svg width="29" height="27" viewBox="0 0 29 27" version="1.1" xmlns="http://www.w3.org/2000/svg" xmlns:xlink="http://www.w3.org/1999/xlink" xmlns:figma="http://www.figma.com/figma/ns">
<title>noun_182235_cc</title>
<desc>Created using Figma</desc>
<g id="Canvas" transform="translate(-2601 129)" figma:type="canvas">
<g id="noun_182235_cc" style="mix-blend-mode:normal;" figma:type="frame">
<g id="Vector" style="mix-blend-mode:normal;" figma:type="vector">
<use xlink:href="#path0_fill" transform="translate(2601.39 -122.564)" fill="#FFFFFF" style="mix-blend-mode:normal;"/>
</g>
<g id="Vector" style="mix-blend-mode:normal;" figma:type="vector">
<use xlink:href="#path1_fill" transform="translate(2601 -122.564)" fill="#FFFFFF" style="mix-blend-mode:normal;"/>
</g>
<g id="Vector" style="mix-blend-mode:normal;" figma:type="vector">
<use xlink:href="#path2_fill" transform="translate(2605.44 -127.618)" fill="#FFFFFF" style="mix-blend-mode:normal;"/>
</g>
<g id="Vector" style="mix-blend-mode:normal;" figma:type="vector">
<use xlink:href="#path3_fill" transform="translate(2614.61 -129)" fill="#FFFFFF" style="mix-blend-mode:normal;"/>
</g>
<g id="Vector" style="mix-blend-mode:normal;" figma:type="vector">
<use xlink:href="#path4_fill" transform="translate(2626.53 -122.564)" fill="#FFFFFF" style="mix-blend-mode:normal;"/>
</g>
<g id="Vector" style="mix-blend-mode:normal;" figma:type="vector">
<use xlink:href="#path5_fill" transform="translate(2621.96 -127.618)" fill="#FFFFFF" style="mix-blend-mode:normal;"/>
</g>
</g>
</g>
<defs>
<path id="path0_fill" d="M 20.4695 0.0833982L 1.5367 5.48555C 0.408051 5.80765 -0.243131 6.97074 0.0849722 8.0784L 3.33647 19.0554C 3.66465 20.1631 4.8497 20.8023 5.97835 20.4803L 24.911 15.078C 26.0397 14.7559 26.691 13.5928 26.3628 12.4852L 23.1114 1.50815C 22.7831 0.400491 21.598 -0.238625 20.4695 0.0833982ZM 22.234 1.75852L 22.9141 4.05437L 12.7134 6.96499C 12.5344 6.38878 12.2419 5.57132 11.8737 4.9872C 11.8737 4.9872 9.85392 5.41644 8.95724 6.4496L 8.37061 4.46934L 20.7244 0.944344C 21.3693 0.76032 22.0465 1.12553 22.234 1.75852ZM 1.79164 6.34649L 6.39696 5.03247L 7.02066 7.13818C 5.66326 7.04889 4.01795 8.14743 4.01795 8.14743C 4.11257 8.52482 4.27175 8.93695 4.44532 9.32428L 1.64213 10.1241L 0.962097 7.82818C 0.774598 7.19526 1.14678 6.53052 1.79164 6.34649ZM 4.21359 18.8051L 2.21597 12.0611L 6.73222 10.7725C 6.50849 11.4248 6.20033 12.203 5.77509 13.1224L 7.13874 15.5553C 7.13874 15.5553 7.78862 13.7167 8.38637 11.7484L 10.3286 18.3053L 5.72325 19.6193C 5.07831 19.8033 4.40109 19.4381 4.21359 18.8051ZM 24.656 14.2172L 12.3022 17.7422L 10.1144 10.3562C 12.1235 11.9284 14.5396 13.6247 14.5396 13.6247L 14.0105 10.8969C 13.0986 10.303 12.3659 9.78169 11.778 9.33265L 23.4879 5.99145L 25.4856 12.7355C 25.6731 13.3685 25.3009 14.0331 24.656 14.2172Z"/>
<path id="path1_fill" d="M 2.54788 2.69894C 2.39936 2.69894 2.24931 2.6565 2.11769 2.56767L 0.330405 1.36318C -0.0161966 1.12962 -0.104198 0.66444 0.133772 0.324336C 0.371666 -0.0159184 0.845703 -0.102289 1.1923 0.131346L 2.97952 1.33583C 3.32612 1.56947 3.4142 2.03457 3.17623 2.37468C 3.02854 2.58552 2.79027 2.69894 2.54788 2.69894Z"/>
<path id="path2_fill" d="M 2.68114 4.26199C 2.43761 4.26199 2.19835 4.1476 2.05104 3.93519L 0.131982 1.16765C -0.104541 0.826504 -0.0145604 0.3617 0.333031 0.129484C 0.680699 -0.102582 1.1542 -0.0142682 1.39073 0.326808L 3.30979 3.09434C 3.54631 3.43549 3.45626 3.9003 3.10874 4.13251C 2.97757 4.22 2.82852 4.26199 2.68114 4.26199Z"/>
<path id="path3_fill" d="M 0.761261 4.25878C 0.340816 4.25878 2.16363e-15 3.92428 2.16363e-15 3.51163L 2.16363e-15 0.747154C 2.16363e-15 0.334501 0.340816 0 0.761261 0C 1.18163 0 1.52252 0.334501 1.52252 0.747154L 1.52252 3.51163C 1.52252 3.92428 1.18163 4.25878 0.761261 4.25878Z"/>
<path id="path4_fill" d="M 0.762036 2.69888C 0.519651 2.69888 0.281453 2.58553 0.133769 2.37461C -0.104201 2.03443 -0.0162008 1.5694 0.330477 1.33577L 2.11776 0.13128C 2.46421 -0.102206 2.9381 -0.0159839 3.17622 0.32427C 3.41419 0.66445 3.32619 1.12955 2.97951 1.36311L 1.19222 2.5676C 1.0606 2.65629 0.910558 2.69888 0.762036 2.69888Z"/>
<path id="path5_fill" d="M 0.760651 4.26204C 0.613118 4.26204 0.464139 4.22005 0.33305 4.13256C -0.0145414 3.90042 -0.104522 3.43562 0.131925 3.09447L 2.05091 0.326931C 2.28744 -0.0142943 2.76086 -0.102608 3.10861 0.129533C 3.4562 0.361674 3.54618 0.826478 3.30973 1.16763L 1.39074 3.93516C 1.24336 4.14765 1.0041 4.26204 0.760651 4.26204Z"/>
</defs>
</svg>
