<?xml version="1.0" encoding="utf-8"?>
<!-- Generator: Adobe Illustrator 19.2.1, SVG Export Plug-In . SVG Version: 6.00 Build 0)  -->
<svg version="1.1" id="Layer_1"
	 xmlns="http://www.w3.org/2000/svg" xmlns:xlink="http://www.w3.org/1999/xlink" x="0px" y="0px" viewBox="0 0 18 20"
	 style="enable-background:new 0 0 18 20;" xml:space="preserve">
<style type="text/css">
	.st0{fill:#FFFFFF;}
</style>
<path id="path0_fill" class="st0" d="M9.1,20c-0.2,0-0.4-0.1-0.4-0.2c0,0-1-1.7-2.2-1.8c-0.2,0-0.4,0-0.6,0c-1.5,0-2.5,0.7-2.5,0.7
	c-0.2,0.2-0.5,0.1-0.7-0.1L0.7,16c-0.1-0.1-0.1-0.2-0.1-0.4c0-0.1,0.1-0.3,0.2-0.3c0,0,2.9-2,2.9-5C3.7,7,1.1,6.5,1.1,6.5
	C1,6.5,0.8,6.4,0.8,6.3C0.7,6.1,0.7,6,0.7,5.9l0.8-2.6C1.5,3,1.7,2.9,1.9,2.9c3.9,0,4.5-2.4,4.5-2.5C6.5,0.2,6.7,0,6.9,0h4.5
	c0.2,0,0.4,0.2,0.5,0.4c0,0.1,0.7,2.5,4.5,2.5c0.2,0,0.4,0.2,0.5,0.4l0.8,2.6c0,0.1,0,0.3-0.1,0.4c-0.1,0.1-0.2,0.2-0.3,0.2
	c-0.1,0-2.6,0.5-2.6,3.9c-0.1,3,2.8,5,2.9,5c0.1,0.1,0.2,0.2,0.2,0.3s0,0.3-0.1,0.4l-1.9,2.4c-0.2,0.2-0.5,0.2-0.7,0.1
	c0,0-0.9-0.7-2.5-0.7c-0.2,0-0.4,0-0.6,0c-1.1,0.1-2,1.4-2.2,1.8C9.5,19.9,9.3,20,9.1,20z M5.8,16.9c0.2,0,0.5,0,0.7,0
	C7.7,17,8.6,18,9.1,18.6c0.5-0.7,1.4-1.6,2.6-1.7c0.2,0,0.5,0,0.7,0c1.2,0,2.2,0.4,2.7,0.6l1.3-1.7c-0.9-0.7-2.9-2.7-2.9-5.5
	c0.1-3.2,2-4.3,2.9-4.7L16,3.9c-3.5-0.1-4.6-2-5-2.8H7.3c-0.4,0.8-1.5,2.7-5,2.8L1.8,5.7C2.8,6,4.7,7.2,4.7,10.3
	c0,2.8-2,4.8-2.9,5.5l1.3,1.7C3.7,17.2,4.6,16.9,5.8,16.9z"/>
</svg>
