<?xml version="1.0" encoding="utf-8"?>
<!-- Generator: Adobe Illustrator 19.2.1, SVG Export Plug-In . SVG Version: 6.00 Build 0)  -->
<svg version="1.1" id="Layer_1"
	 xmlns="http://www.w3.org/2000/svg" xmlns:xlink="http://www.w3.org/1999/xlink" x="0px" y="0px" viewBox="0 0 21 20"
	  xml:space="preserve">
<style type="text/css">
	.st0{fill:#FFFFFF;}
</style>
<path class="st0" d="M16.1,4.4c-1.2-1.2-2.8-1.9-4.6-1.9S8.2,3.1,7,4.4c-2.1,2.1-2.4,5.3-1.1,7.7c-1.3,1-2.6,2.2-3.6,3.2
	C0,17.6,0.1,18.4,1,19.4c1.4,1.4,2.7,0.1,4.1-1.2c1-1,2.2-2.3,3.2-3.6c1,0.5,2,0.8,3.2,0.8c1.7,0,3.3-0.7,4.6-1.9
	C18.6,11,18.6,6.9,16.1,4.4z M15.3,5.1c1,1,1.5,2.2,1.5,3.5l-5.1-5.1C13.1,3.6,14.3,4.2,15.3,5.1z M4.3,17.4c-1.2,1.2-1.7,1.5-2,1.5
	c-0.2,0-0.2,0-0.5-0.3c-0.3-0.3-0.3-0.4-0.3-0.5c0.1-0.3,0.4-0.8,1.5-2c1-1,2.2-2.1,3.5-3.1c0.3,0.4,0.7,0.8,0.9,0.9
	C6.4,15.1,5.3,16.4,4.3,17.4z M7.7,12.7c-1-1-1.5-2.2-1.5-3.5l5.1,5.1C9.9,14.2,8.7,13.6,7.7,12.7z M12.7,14.1L6.3,7.7
	C6.5,6.8,7,5.9,7.7,5.1c0.7-0.7,1.6-1.2,2.6-1.4l6.4,6.4c-0.2,0.9-0.7,1.8-1.4,2.6C14.6,13.4,13.7,13.9,12.7,14.1z M3.2,4.6
	c0.3,0,0.6-0.2,0.6-0.6c0-1.6,1.3-3,3-3c0.3,0,0.6-0.2,0.6-0.6C7.3,0.3,7,0,6.7,0C4.5,0,2.6,1.8,2.6,4.1C2.6,4.4,2.9,4.6,3.2,4.6z
	 M19.8,13.2c-0.3,0-0.6,0.2-0.6,0.6c0,1.6-1.3,3-3,3c-0.3,0-0.6,0.2-0.6,0.6c0,0.3,0.2,0.6,0.6,0.6c2.3,0,4.1-1.8,4.1-4.1
	C20.4,13.4,20.1,13.2,19.8,13.2z"/>
</svg>
