<?xml version="1.0" encoding="utf-8"?>
<!-- Generator: Adobe Illustrator 19.2.1, SVG Export Plug-In . SVG Version: 6.00 Build 0)  -->
<svg version="1.1" id="Layer_1" xmlns:figma="http://www.figma.com/figma/ns"
	 xmlns="http://www.w3.org/2000/svg" xmlns:xlink="http://www.w3.org/1999/xlink" x="0px" y="0px" viewBox="0 0 28 30"
	 style="enable-background:new 0 0 28 30;" xml:space="preserve">
<style type="text/css">
	.st0{fill:#FFFFFF;}
</style>
<path id="path0_stroke" class="st0" d="M3.4,0.8C2.6,0,1.4,0,0.6,0.8c-0.8,0.8-0.8,2,0,2.8L3.4,0.8z M24.6,27.6c0.8,0.8,2,0.8,2.8,0
	s0.8-2,0-2.8L24.6,27.6z M27.4,3.6c0.8-0.8,0.8-2,0-2.8c-0.8-0.8-2-0.8-2.8,0L27.4,3.6z M0.6,24.8c-0.8,0.8-0.8,2,0,2.8
	c0.8,0.8,2,0.8,2.8,0L0.6,24.8z M0.6,3.6l24,24l2.8-2.8l-24-24L0.6,3.6z M24.6,0.8l-24,24l2.8,2.8l24-24L24.6,0.8z"/>
</svg>
