<svg xmlns="http://www.w3.org/2000/svg" fill-rule="evenodd" stroke-miterlimit="1.5" viewBox="0 0 15 20" clip-rule="evenodd" stroke-linecap="round" stroke-linejoin="round">
  <g fill="none" stroke="#000">
    <path d="M7.48 15.512l-1.839 3.627H1.07c1.79-4.842 2.66-9.761 2.405-15.025h2.004s.227 2.975 1.948 2.975c1.722 0 1.547-2.975 1.547-2.975h2.261c-.255 5.264.615 10.183 2.405 15.025H9.209L7.48 15.512zm-4.212-4.499h2.89m2.499 0h2.723M.503 6.768s1.019-.944 3.007-1.635m10.858 1.635s-1.093-.973-3.08-1.664"/>
    <path d="M5.547 4.612c.286-.087.507-.138.92-.185.923-.104 1.885-.095 2.494.07m-1.59-.191s-.011-1.704 0-1.704c-.564 0-1.023-.458-1.023-1.023 0-.564.459-1.022 1.023-1.022.564 0 1.022.458 1.022 1.022M6.224 9.728h2.422v2.422H6.224z"/>
  </g>
</svg>
