<svg width="14" height="23" viewBox="0 0 14 23" version="1.1" xmlns="http://www.w3.org/2000/svg" xmlns:xlink="http://www.w3.org/1999/xlink" xmlns:figma="http://www.figma.com/figma/ns">
<title>Group</title>
<desc>Created using Figma</desc>
<g id="Canvas" transform="translate(-2066 -7204)" figma:type="canvas">
<g id="Group" style="mix-blend-mode:normal;" figma:type="frame">
<g id="Ellipse 2" style="mix-blend-mode:normal;" figma:type="vector">
<use xlink:href="#path0_stroke" transform="translate(2066.66 7205.12)" fill="#BDBDBD" style="mix-blend-mode:normal;"/>
</g>
<g id="Ellipse 2" style="mix-blend-mode:normal;" figma:type="ellipse">
<mask id="mask0_outline_ins">
<use xlink:href="#path1_fill" fill="white" transform="translate(2069.26 7207.79)"/>
</mask>
<g mask="url(#mask0_outline_ins)">
<use xlink:href="#path2_stroke_2x" transform="translate(2069.26 7207.79)" fill="#BDBDBD" style="mix-blend-mode:normal;"/>
</g>
</g>
</g>
</g>
<defs>
<path id="path0_stroke" d="M 6.06255 20L 5.63503 20.2593L 6.04795 20.9401L 6.48181 20.2724L 6.06255 20ZM 12.0581 6.44444C 12.0581 7.22307 11.6915 8.432 11.0828 9.86901C 10.4813 11.29 9.68089 12.8501 8.87253 14.3154C 8.06474 15.78 7.25865 17.1309 6.65128 18.121C 6.34813 18.6152 6.09633 19.0165 5.91931 19.2959C 5.83106 19.4352 5.76209 19.543 5.71478 19.6167C 5.69124 19.6533 5.67338 19.681 5.66121 19.6999C 5.65519 19.7092 5.65071 19.7161 5.64765 19.7208C 5.64614 19.7232 5.64506 19.7248 5.6443 19.726C 5.64393 19.7266 5.64368 19.727 5.6435 19.7272C 5.64341 19.7274 5.64336 19.7275 5.64332 19.7275C 5.64329 19.7276 5.64329 19.7276 6.06255 20C 6.48181 20.2724 6.48186 20.2724 6.48193 20.2723C 6.48199 20.2722 6.48208 20.272 6.48219 20.2718C 6.48241 20.2715 6.48275 20.271 6.48317 20.2703C 6.48398 20.2691 6.48525 20.2671 6.48687 20.2646C 6.49005 20.2597 6.49489 20.2522 6.50116 20.2426C 6.51357 20.2233 6.53218 20.1945 6.55622 20.157C 6.60405 20.0826 6.67464 19.9722 6.764 19.8311C 6.94221 19.5499 7.19788 19.1424 7.50369 18.6439C 8.11425 17.6485 8.93205 16.2778 9.74816 14.7984C 10.5637 13.3198 11.3872 11.7134 12.0036 10.259C 12.6128 8.82071 13.0581 7.44541 13.0581 6.44444L 12.0581 6.44444ZM 6.06255 20C 6.49007 19.7407 6.49007 19.7407 6.49004 19.7407C 6.49 19.7406 6.48995 19.7405 6.48987 19.7404C 6.4897 19.7401 6.48947 19.7397 6.48913 19.7392C 6.48842 19.738 6.4874 19.7363 6.486 19.734C 6.48314 19.7293 6.47896 19.7223 6.47334 19.713C 6.46198 19.6942 6.4453 19.6665 6.42333 19.6298C 6.37917 19.5561 6.31479 19.4483 6.23241 19.309C 6.06719 19.0296 5.83215 18.6283 5.5492 18.134C 4.9823 17.1438 4.22984 15.7928 3.47582 14.328C 2.72128 12.8625 1.97391 11.3017 1.41226 9.8802C 0.844486 8.44403 0.5 7.23027 0.5 6.44444L -0.5 6.44444C -0.5 7.4382 -0.086667 8.80868 0.482291 10.2478C 1.05737 11.7017 1.82564 13.3073 2.58673 14.7858C 3.34835 16.265 4.11153 17.6355 4.68136 18.6309C 4.96676 19.1294 5.20536 19.5368 5.37169 19.818C 5.45508 19.959 5.52095 20.0694 5.5656 20.1439C 5.58803 20.1813 5.6054 20.2102 5.61698 20.2294C 5.62283 20.2391 5.62734 20.2466 5.63031 20.2515C 5.63182 20.254 5.633 20.2559 5.63376 20.2572C 5.63416 20.2578 5.63448 20.2584 5.63467 20.2587C 5.63478 20.2589 5.63487 20.259 5.63492 20.2591C 5.63499 20.2592 5.63503 20.2593 6.06255 20ZM 0.5 6.44444C 0.5 3.14909 3.09955 0.5 6.27907 0.5L 6.27907 -0.5C 2.52292 -0.5 -0.5 2.62147 -0.5 6.44444L 0.5 6.44444ZM 6.27907 0.5C 9.45859 0.5 12.0581 3.14909 12.0581 6.44444L 13.0581 6.44444C 13.0581 2.62147 10.0352 -0.5 6.27907 -0.5L 6.27907 0.5Z"/>
<path id="path1_fill" d="M 7.36167 3.77778C 7.36167 5.86419 5.7137 7.55556 3.68083 7.55556C 1.64797 7.55556 0 5.86419 0 3.77778C 0 1.69137 1.64797 0 3.68083 0C 5.7137 0 7.36167 1.69137 7.36167 3.77778Z"/>
<path id="path2_stroke_2x" d="M 6.36167 3.77778C 6.36167 5.33657 5.13707 6.55556 3.68083 6.55556L 3.68083 8.55556C 6.29033 8.55556 8.36167 6.39181 8.36167 3.77778L 6.36167 3.77778ZM 3.68083 6.55556C 2.2246 6.55556 1 5.33657 1 3.77778L -1 3.77778C -1 6.39181 1.07133 8.55556 3.68083 8.55556L 3.68083 6.55556ZM 1 3.77778C 1 2.21899 2.2246 1 3.68083 1L 3.68083 -1C 1.07133 -1 -1 1.16375 -1 3.77778L 1 3.77778ZM 3.68083 1C 5.13707 1 6.36167 2.21899 6.36167 3.77778L 8.36167 3.77778C 8.36167 1.16375 6.29033 -1 3.68083 -1L 3.68083 1Z"/>
</defs>
</svg>
