<?xml version="1.0" encoding="utf-8"?>
<!-- Generator: Adobe Illustrator 19.2.1, SVG Export Plug-In . SVG Version: 6.00 Build 0)  -->
<svg version="1.1" id="Layer_1" xmlns:figma="http://www.figma.com/figma/ns"
	 xmlns="http://www.w3.org/2000/svg" xmlns:xlink="http://www.w3.org/1999/xlink" x="0px" y="0px" viewBox="0 0 211 58"
	 style="enable-background:new 0 0 211 58;" xml:space="preserve">
<style type="text/css">
	.st0{fill:#199029;}
	.st1{fill:#FFFFFF;}
	.st2{fill:#4BAB26;}
	.st3{fill:#E60004;}
</style>
<path id="path0_fill" class="st0" d="M39,44.6c-3.8,0-8.5,0.4-12-1.4c-2.8-1.4-4-5.3-2-7.9c-1.2-0.1-2.5-0.1-3.7-0.1
	c1.4,1.6,1.4,4.2,0.3,6c-1.1,1.8-3.2,2.5-5.2,2.9c-3,0.6-6.1,0.5-9.1,0.2c-2.9-0.3-6-1.4-6.7-4.5c-0.7-3.2,1.1-5.2,3.9-6.4
	c0.6-0.3,0.9-0.4,1.2-0.9c0.4-0.7,0.8-1.4,1.2-2.2c1.5-3,2.9-6.1,4.3-9.2c1.2-2.6,2.5-5.4,3.2-8.2c0.5-1.8,0.3-3.7,0.6-5.5
	c0.3-1.7,1-3.3,2.1-4.6c3.7-4.2,10.8-3.2,14.4,0.5c2.5,2.5,4.3,5.6,5.9,8.8c2.8,5.5,5.5,11.1,8.2,16.6c0.5,1.1,1,2.2,1.5,3.2
	c0.2,0.3,0.3,0.7,0.6,1c0.5,0.4,1.4,0.5,1.9,0.8c1.9,1,2.7,3,2.4,5.1C51.3,44.5,43.5,44.6,39,44.6z"/>
<path id="path1_fill" class="st0" d="M82.5,44.7c-1.7,0-3.4-0.6-5.1-0.7c-0.6,0-1.2,0-1.9,0c-1.4,0-2.8,0-4.2,0c-3.8,0-7.6,0-11.4,0
	c-1.9,0-3.8,0-5.6-0.6c-2.2-0.7-3.4-2.9-3.2-5.1c0.1-1.1,0.5-2.1,1.3-2.9c0.8-0.9,1.8-1.3,2.8-1.9c0.4-3.1,0.2-6.4,0.2-9.5
	c0-3.8-0.4-7.7-0.4-11.5c-2.5-0.8-4.6-1.6-4.7-4.6c-0.1-1.5,0.4-3.1,1.5-4.2c2-2.2,5.3-2.6,8.1-2.9c3.3-0.4,6.7-0.3,10,0.1
	c1.5,0.2,3.1,0.3,4.5,1c2.3,1,3.9,3.1,3.7,5.7C77.9,9.7,76,11.2,74,12c0,5.5,0,10.9,0,16.4c0,0.3,0,0.6,0,1c0,0.9,0.3,1.8,0.3,2.6
	c1.3,0,2.7,0.3,3.9-0.3c1.6-0.8,1.8-3.4,2.7-4.8c2.2-3.4,7-2.5,8.8,0.7c2,3.4,1.3,7.5-0.2,10.9C88.2,41.3,85.9,44.7,82.5,44.7z"/>
<path id="path2_fill" class="st0" d="M100.4,44.6c-3.1,0-6.8-0.2-9.5-2c-2.1-1.4-3-4.2-1.8-6.6c0.3-0.7,0.8-1.2,1.4-1.7
	c0.7-0.6,1.3-0.7,1.5-1.7c0.2-1.1,0.3-2.1,0.3-3.2c0.1-2.5,0.1-5,0.1-7.5c0-2.4,0.1-4.8-0.2-7.2c0-0.5-0.1-0.9-0.2-1.4
	c-0.2-0.8-0.7-1-1.3-1.5c-1.4-1-2.4-2.2-2.6-3.9c-0.3-3,1.7-5.1,4.4-6c4.1-1.5,8.6-1.6,12.9-1.4c3.4,0.2,8.1,0.6,9.6,4.3
	c0.4,1.1,0.6,2.4,0.3,3.5c-0.5,2-2.1,2.7-3.7,3.8c-0.6,2.4-0.4,5-0.4,7.4c0,1.1,0,2.2,0,3.3c0,1.3,0,2.5,0,3.8c0,1.1,0,2.2,0.1,3.4
	c0,0.8,0,1.7,0.2,2.4c2,1.2,3.8,2.3,3.9,4.9c0.1,2.1-0.9,4.1-2.6,5.2C109.3,44.7,104.3,44.6,100.4,44.6z"/>
<path id="path3_fill" class="st0" d="M154.2,44.6c-3.4,0-6.5-3.7-8.8-5.8c-3.2-2.9-6.5-5.8-9.7-8.7c-0.8-0.7-1.6-1.4-2.4-2.2
	c0,1.1,0,2.2,0.1,3.3c0.1,0.6,0.1,1.3,0.6,1.7c0.8,0.8,1.9,1.1,2.5,2.1c0.6,0.9,0.8,2,0.8,3.1c-0.3,5.6-6.8,6.6-11.2,6.5
	c-4.1-0.1-9.8-1-10.4-5.9c-0.3-2.4,0.8-4.2,2.7-5.5c0.6-0.4,0.8-0.4,0.9-1.2c0.1-0.6,0.1-1.1,0.2-1.7c0.1-1.4,0.2-2.9,0.2-4.4
	c0-2.5,0-5.1-0.1-7.6c0-1-0.1-1.9-0.2-2.9c-0.1-0.9-0.1-1.9-0.4-2.7c-0.3-0.6-0.9-0.8-1.5-1.2c-0.9-0.5-1.8-1.1-2.3-2.1
	c-1-1.8-0.7-4.3,0.5-5.9c1.4-1.9,4-2.7,6.2-2.9c2.5-0.3,5.2-0.4,7.7-0.1c2.7,0.3,4.6,2.1,6.6,3.8c3.7,3.3,7.5,6.6,11.2,9.9
	c-0.1-1.4-0.2-2-0.3-2.2c-1.2-0.8-2.4-1.4-3.1-2.7c-0.7-1.2-0.8-2.8-0.5-4.1c0.7-3,3.9-4.3,6.7-4.6c4.8-0.5,14.4-1,14.7,5.9
	c0.1,1.3-0.1,2.7-1,3.7c-0.3,0.4-0.7,0.7-1.1,0.9c-0.5,0.3-1.6,0.7-1.9,1.2c-0.7,2.1-0.5,4.6-0.5,6.9c0,1.9,0,3.8,0,5.7
	c0,3.9,0.2,8-0.2,11.9C159.9,40.3,158.5,44.6,154.2,44.6z"/>
<path id="path4_fill" class="st0" d="M197.3,44.6c-3.8,0-8.5,0.4-12-1.4c-2.8-1.4-4-5.3-2-7.9c-1.2-0.1-2.5-0.1-3.7-0.1
	c1.4,1.6,1.4,4.3,0.2,6.1c-1.2,1.8-3.4,2.5-5.4,2.9c-3,0.6-6.1,0.5-9.1,0.1c-3-0.4-6.1-1.6-6.6-5c-0.2-1.4,0.1-2.9,1-4
	c0.9-1.1,2.2-1.6,3.5-2.1c1-0.5,1.6-2,2-3c1.5-3,2.9-6.1,4.3-9.2c1.2-2.7,2.5-5.5,3.2-8.3c0.5-1.8,0.3-3.7,0.6-5.6
	c0.3-1.6,1-3.1,2.1-4.4c3.6-4.2,10.7-3.4,14.4,0.3c2.7,2.7,4.6,6,6.3,9.3c2.8,5.5,5.5,11.1,8.2,16.7c0.4,0.9,0.8,1.8,1.3,2.7
	c0.2,0.3,0.3,0.7,0.6,0.9c0.5,0.4,1.3,0.5,1.9,0.8c2,1,2.7,3,2.4,5.1C209.6,44.4,201.8,44.6,197.3,44.6z"/>
<path id="path5_fill" class="st1" d="M39,43.6c-3.7,0-8.2,0.4-11.6-1.3c-3.3-1.7-3.2-6.4,0.3-7.8c-1.7-0.2-3.4-0.2-5.1-0.3
	c-1.5,0-3.1-0.1-4.6,0.2c1.2,0,2.6,1.2,3.1,2.3c0.4,1,0.4,2.2,0,3.2c-0.6,1.8-2.4,2.6-4.1,3.1c-2.8,0.7-5.9,0.7-8.8,0.4
	c-2.6-0.2-6-0.9-6.6-3.9c-0.3-1.4-0.1-2.9,1-3.9c1-0.9,2.3-1,3.4-1.8c1.1-0.8,1.8-2.8,2.4-4c1.4-2.8,2.6-5.7,3.9-8.5
	c1.2-2.6,2.4-5.4,3.2-8.2c0.9-3.4,0.1-7,2.6-9.8c1.7-2,4.5-2.5,7-2.4c2.7,0.2,4.9,1.5,6.6,3.5c2.3,2.6,4,5.6,5.6,8.8
	c2.7,5.3,5.3,10.6,7.8,15.9c0.5,1,0.9,2,1.4,3c0.5,1,0.8,1.4,1.9,1.8c1.1,0.4,2.2,0.9,2.7,2c0.3,0.7,0.3,1.4,0.3,2.1
	C50.8,43.5,43,43.6,39,43.6z M21.8,23.8h2.9c-0.6-1.1-1.1-2.1-1.7-3.2C22.6,21.6,22.2,22.7,21.8,23.8z"/>
<path id="path6_fill" class="st1" d="M82.5,43.7c-1.6,0-3.2-0.6-4.8-0.7C76.9,43,76.2,43,75.5,43c-1.4,0-2.7,0-4.1,0
	c-3.8,0-7.7,0-11.5,0c-1.8,0-3.7,0.1-5.4-0.5c-1.9-0.6-2.9-2.6-2.5-4.6c0.2-0.9,0.7-1.7,1.4-2.3c0.8-0.7,1.8-1,2.6-1.6
	c0.5-1.2,0.3-2.9,0.3-4.2c0-2,0-3.9,0.1-5.9c0-2.2,0-4.5-0.1-6.7c-0.1-1.1-0.1-2.3-0.2-3.4c0-0.6,0.1-1.4-0.2-2
	c-0.8-0.8-2.3-0.8-3.2-1.4c-1-0.6-1.4-1.7-1.4-2.8c0-1.6,0.6-3.1,1.9-4c2.3-1.8,5.9-2,8.7-2.1c2.8-0.2,5.6,0,8.4,0.3
	c1.3,0.1,2.6,0.3,3.7,0.9c1.8,0.8,3.2,2.5,3.1,4.6c-0.1,2.4-2.2,3.2-4.1,4.3c-0.4,2.3-0.1,4.9-0.1,7.2c0,3.2,0,6.5,0,9.7
	c0,0.3,0,0.7,0,1c0,0.9-0.2,2.8,0.7,3.4c1,0.7,3.2,0.3,4.3,0c1.7-0.5,2.2-2.1,2.8-3.6c0.7-1.6,1.5-3.3,3.4-3.5
	c1.9-0.2,3.6,0.7,4.6,2.4c1.7,3,1.2,6.5-0.1,9.6C87.5,40.3,85.5,43.7,82.5,43.7z"/>
<path id="path7_fill" class="st1" d="M100.4,43.6c-2.8,0-6.1-0.1-8.6-1.6c-1.4-0.8-2.3-2.2-2.3-3.8c0-1,0.3-1.9,1-2.6
	c0.6-0.6,1.7-1,2.1-1.8c0.3-0.7,0.4-1.7,0.4-2.5c0.1-1.2,0.1-2.3,0.2-3.5c0-1.5,0-3.1,0-4.6c0-3,0.1-6.1-0.2-9.1
	c-0.1-0.6-0.1-1.3-0.4-1.8c-0.5-0.8-1.7-1.2-2.4-1.9c-1.3-1.2-1.6-3.3-0.8-4.9c1.1-2.1,3.7-2.8,5.8-3.2c2.7-0.6,5.5-0.7,8.2-0.7
	c3.7,0.1,10,0.2,10.8,4.9c0.1,0.8,0.1,1.6-0.2,2.3c-0.5,1.3-1.7,1.8-2.8,2.5c-0.7,0.5-0.8,1-0.9,1.8c-0.2,1.4-0.2,2.8-0.2,4.1
	c-0.1,3.5-0.1,7,0,10.6c0,1.3,0.1,2.6,0.2,3.9c0,0.3,0,0.7,0.1,1.1c0.2,0.7,0.7,0.8,1.2,1.1c1.2,0.7,2.2,1.5,2.5,2.9
	c0.3,1.5-0.1,3.1-1,4.2c-1.3,1.5-3.6,2-5.5,2.3C105.3,43.5,102.8,43.6,100.4,43.6z"/>
<path id="path8_fill" class="st1" d="M154.2,43.6c-2,0-3.5-1.3-4.9-2.6c-1.3-1.2-2.6-2.3-3.9-3.5c-3.3-2.9-6.5-5.9-9.8-8.8
	c-1-0.9-2.1-2-3.2-2.8c-0.5,2-0.3,4.5,0.1,6.5c0.2,1,0.6,1.2,1.4,1.7c1,0.6,1.8,1.3,2.1,2.5c1.5,5.9-6,7.1-10.1,7.1
	c-3.6-0.1-9.1-0.8-9.4-5.3c-0.1-0.9,0.1-1.9,0.6-2.7c0.7-1.1,1.9-1.4,2.6-2.2c0.6-0.6,0.5-1.7,0.6-2.4c0.1-1.4,0.2-2.8,0.2-4.2
	c0.1-2.7,0-5.4-0.1-8.1c-0.1-1.9-0.1-3.9-0.6-5.7c-0.5-2-2.8-2-3.9-3.6c-1.2-1.8-0.6-4.4,0.9-5.7c1.8-1.5,4.4-1.8,6.6-2
	c2.3-0.2,5-0.4,7.2,0.3c2.1,0.7,3.7,2.5,5.3,3.9c2.4,2.1,4.7,4.2,7.1,6.3c0.9,0.8,1.9,1.7,2.8,2.5c0.7,0.6,1.4,1.5,2.2,1.9
	c0-1.4,0.1-2.8-0.2-4.2c0-0.2-0.1-0.6-0.2-0.7c-0.4-0.5-1.4-0.8-2-1.3c-1.3-1.1-1.8-2.7-1.5-4.3c0.3-1.7,1.6-2.8,3.2-3.5
	c1.7-0.7,3.6-0.8,5.4-0.8c1.8,0,3.7,0,5.5,0.3c3.4,0.5,6.1,2.9,5.3,6.5c-0.3,1.3-1.2,2-2.3,2.6c-0.7,0.4-1.3,0.7-1.5,1.5
	c-0.2,0.9-0.3,1.9-0.4,2.8c-0.1,1.6-0.1,3.2-0.1,4.8c0,3.9,0,7.8,0,11.8C159.3,35.7,159.7,43.6,154.2,43.6z"/>
<path id="path9_fill" class="st1" d="M197.4,43.6c-3.7,0-8.2,0.4-11.6-1.3c-3.3-1.7-3.2-6.4,0.3-7.8c-1.6-0.4-3.5-0.2-5.1-0.3
	c-1.5,0-3.1-0.1-4.6,0.2c1.2,0,2.6,1.3,3,2.3c0.4,1,0.4,2.2,0,3.2c-0.6,1.8-2.4,2.6-4.1,3.1c-2.9,0.8-6,0.7-8.9,0.4
	c-2.6-0.2-6-0.9-6.5-4c-0.2-1.3,0-2.7,0.9-3.7c1-1,2.3-1.1,3.4-1.8c1.1-0.8,1.8-2.7,2.3-3.9c1.4-2.8,2.7-5.7,4-8.6
	c1.2-2.6,2.4-5.4,3.2-8.2c0.9-3.3,0.1-7,2.5-9.8c1.8-2,4.6-2.6,7.1-2.4c2.7,0.2,4.8,1.6,6.5,3.6c2.2,2.5,3.8,5.3,5.3,8.3
	c2.6,5.2,5.2,10.5,7.7,15.8c0.5,1,0.9,1.9,1.3,2.9c0.3,0.7,0.6,1.6,1.3,2.1c1,0.6,2.3,0.6,3.1,1.7c0.6,0.7,0.7,1.6,0.7,2.5
	C209.3,43.4,201.4,43.6,197.4,43.6z M180.1,23.8h2.9c-0.6-1.1-1.1-2.1-1.7-3.2C180.8,21.6,180.5,22.7,180.1,23.8z"/>
<path id="path10_fill" class="st0" d="M39,41.9c-1.9,0-3.9,0-5.8-0.1c-1.7-0.1-3.5-0.2-5-1c-1.6-0.8-2.2-3.3-0.5-4.3
	c0.7-0.4,2-0.6,2.2-1.5c0.2-0.9-0.3-1.6-1.1-2c-1.7-0.7-4-0.5-5.8-0.5c-1.8,0-4.2-0.4-5.9,0.4c-0.7,0.3-1.3,2.2-0.6,2.7
	c0.8,0.6,2.1,0.5,2.7,1.4c0.5,0.6,0.4,1.7,0.1,2.4c-0.7,1.5-2.6,1.9-4.1,2.2c-2.6,0.4-5.4,0.4-7.9,0C6.2,41.5,5,41.3,4,40.6
	c-0.9-0.7-1.3-2.1-0.8-3.2c0.5-1,1.9-1.3,2.8-1.7c0.8-0.4,1.3-0.9,1.8-1.6c1.1-1.6,1.9-3.4,2.7-5.2c1.1-2.3,2.1-4.7,3.2-7
	c1.2-2.7,2.5-5.4,3.2-8.3c0.8-3,0-6.5,2.2-9c2.1-2.5,6.6-2.3,9.2-0.6c2.5,1.7,4.4,4.8,5.8,7.3c3.1,5.7,5.8,11.5,8.5,17.4
	c0.7,1.6,1.4,3.2,2.2,4.7c0.3,0.7,0.8,1.3,1.5,1.7c0.8,0.5,1.8,0.5,2.5,1.1c0.7,0.5,0.5,2,0.3,2.7c-0.4,1-1.3,1.6-2.2,1.9
	C44.4,41.8,41.6,41.9,39,41.9z M20.4,32c1.7,0,3.5,0,5.2,0.1c1.2,0,3,0,4,0.8c0.7,0.5,1,1.5,0.8,2.3c-0.2,0.9-1.2,1.1-1.9,1.5
	c-1.6,0.8-1.5,2.8,0,3.7c1.7,0.9,3.8,0.9,5.6,1c2.4,0.1,4.7,0.1,7.1,0c1.9-0.1,4.2-0.2,6-1c0.7-0.3,1.3-0.9,1.6-1.6
	c0.2-0.5,0.3-1.5-0.2-1.9c-0.5-0.4-1.2-0.5-1.7-0.7c-0.7-0.3-1.4-0.7-1.8-1.3c-0.8-1.1-1.3-2.5-1.8-3.7c-1.4-3-2.9-6.1-4.4-9.1
	c-1.6-3.2-3.2-6.5-4.8-9.6c-1.3-2.5-3-5.3-5.2-7.2C26.6,3,21.9,2.4,19.6,5c-1.8,2-1.3,4.7-1.7,7.1c-0.5,2.7-1.5,5.2-2.6,7.7
	c-1.1,2.6-2.3,5.1-3.5,7.6c-1.2,2.5-2.2,5.4-4,7.6c-1.3,1.6-4.9,1.4-4.3,4.1c0.5,2.1,4,2.1,5.7,2.2c2.5,0.1,5.4,0.2,7.7-0.7
	c0.6-0.2,1.3-0.6,1.7-1.2c0.4-0.6,0.5-1.7-0.1-2.2c-0.7-0.6-1.7-0.6-2.5-1.1c-1.1-0.8-0.5-3.1,0.6-3.6C17.6,32.1,18.8,32,20.4,32z
	 M25.2,26c-1.7,0-3.8,0.3-5.4-0.1c-1.4-0.4,0-3,0.3-3.7c0.5-1.3,1.3-5.1,3.4-4.3c0.7,0.3,1.1,1.1,1.5,1.7c0.5,0.8,1,1.7,1.4,2.5
	c0.5,0.9,1.2,2,1.2,3C27.6,25.9,26.2,26,25.2,26z M22.9,18.2c-1.3,0-2,3.1-2.4,4.1c-0.1,0.4-1.4,2.8-0.6,3.1c1,0.3,2.5,0.1,3.5,0.1
	c0.8,0,2.8,0.3,3.4-0.2c0.5-0.4-0.3-1.6-0.5-2.1c-0.5-1-1-1.9-1.6-2.9C24.4,19.6,23.8,18.2,22.9,18.2z"/>
<path id="path11_fill" class="st0" d="M82.5,42c-1.6,0-3.1-0.5-4.7-0.7c-0.7-0.1-1.5-0.1-2.2-0.1c-1.3,0-2.7,0-4,0
	c-3.8,0-7.7,0-11.5,0c-1.6,0-3.3,0.1-4.9-0.4c-1.3-0.5-1.8-2.1-1.1-3.3c0.8-1.2,2.5-1.3,3.4-2.5c0.6-0.9,0.6-2.4,0.6-3.5
	c0-1.5,0.1-3,0.1-4.5c0-3.8,0-7.6-0.2-11.4c-0.1-1.4,0.2-3.5-0.5-4.7c-0.8-1.3-2.6-1.3-3.8-2c-0.7-0.5-0.7-1.7-0.5-2.4
	c0.2-0.8,0.8-1.4,1.5-1.9c2-1.2,4.8-1.3,7.1-1.5c2.5-0.2,5,0,7.4,0.2c1.4,0.1,2.9,0.2,4.2,0.8c1.3,0.6,2.5,2,2,3.5
	c-0.6,1.5-2.5,1.6-3.6,2.6c-0.9,0.8-0.5,3.8-0.5,4.9c0,2.7,0,5.4,0,8.2c0,2,0,4,0,6c0,1.3-0.1,2.9,0.6,4.1c1.1,1.9,3.9,1.7,5.7,1.3
	c1.1-0.2,2.1-0.6,2.9-1.4c1-0.9,1.4-2.1,1.9-3.2c0.4-1,0.8-2.4,2.1-2.6c1.2-0.2,2.3,0.5,2.9,1.5c1.4,2.4,0.8,5.4-0.2,7.9
	C86.4,38.8,84.8,42,82.5,42z M64.1,3.6c-2.7,0-5.7,0.1-8.3,1.1c-0.8,0.3-1.6,0.7-2,1.5c-0.3,0.6-0.6,2,0.1,2.4
	c1.2,0.7,2.8,0.7,3.8,1.9c0.9,1.1,0.6,3.1,0.7,4.4c0.2,3.7,0.3,7.4,0.2,11.2c0,1.6,0,3.2-0.1,4.8c0,1.3,0.1,2.8-0.4,4
	c-0.5,1.3-2,1.6-3.1,2.4c-1.1,0.8-1.1,2.7,0.3,3.1c1.7,0.6,3.7,0.4,5.5,0.4c2.5,0,5,0,7.5,0c2.2,0,4.3,0,6.5,0c0.5,0,1,0,1.5,0
	c2,0,3.9,0.6,5.9,0.7c2.3,0.1,3.8-2.9,4.5-4.7c0.9-2.3,1.5-5.2,0.2-7.5c-0.5-0.8-1.5-1.4-2.5-1.2c-1.1,0.2-1.4,1.8-1.8,2.6
	c-0.9,2-1.9,3.7-4.2,4.3c-1.8,0.5-4.7,0.8-6.3-0.4c-1.5-1.2-1.5-3.4-1.5-5.1c0-4.4,0-8.9,0-13.3c0-1.4-0.5-5.3,0.6-6.2
	c1-0.8,2.9-1.1,3.4-2.4c0.5-1.3-0.6-2.4-1.7-2.9C71.8,4.1,68.8,3.7,64.1,3.6C61.6,3.6,68.8,3.7,64.1,3.6z"/>
<path id="path12_fill" class="st0" d="M100.4,41.8c-2,0-4.1-0.1-6.1-0.7c-1.1-0.3-2.3-0.9-2.8-2c-0.9-1.9,0.8-2.8,2-3.8
	c1.1-0.9,1.2-2.5,1.3-3.8c0.3-3.1,0.2-6.2,0.2-9.2c0-2.9,0.1-5.9-0.3-8.8c-0.1-0.8-0.2-1.8-0.7-2.5c-0.6-0.9-1.7-1.4-2.4-2
	C90.3,7.9,90.6,6,92.1,5c2-1.3,4.8-1.6,7.1-1.7c2.3-0.2,4.6-0.2,6.9,0c1.8,0.2,4.3,0.3,5.7,1.6c0.6,0.5,0.8,1.2,0.9,2
	c0,1.1-0.4,1.6-1.3,2.1c-0.7,0.5-1.7,0.8-2.1,1.6c-0.5,1-0.6,2.3-0.7,3.4c-0.2,2-0.1,4-0.1,5.9c0,2.9,0,5.8,0,8.6
	c0,1.2,0.1,2.4,0.2,3.6c0.1,0.7,0.2,1.5,0.7,2.1c0.8,0.8,2.2,1,2.9,2c0.8,1,0.5,2.5-0.3,3.5c-1,1.2-3.3,1.5-4.8,1.8
	C104.9,41.8,102.6,41.8,100.4,41.8z M102.7,3.6c-3,0-6.1,0.2-8.9,1.1c-1,0.3-2.4,0.9-2.6,2.1c-0.3,1.4,1,2.1,2,2.8
	c1,0.7,1.6,1.4,1.9,2.6c0.3,1.1,0.4,2.2,0.4,3.3c0.1,1.9,0.1,3.8,0.1,5.7c0,3.9,0.2,7.9-0.4,11.7c-0.2,1.2-0.5,2.2-1.4,2.9
	c-0.9,0.7-2.2,1.2-2,2.6c0.2,1.6,2.1,2.1,3.4,2.4c3.2,0.7,6.6,0.5,9.8,0.3c1.3-0.1,2.6-0.3,3.8-0.6c0.9-0.2,2-0.5,2.7-1.2
	c0.6-0.7,0.9-1.8,0.5-2.7c-0.4-0.7-1.3-1.1-1.9-1.4c-0.6-0.4-1.2-0.7-1.5-1.4c-0.3-0.7-0.4-1.5-0.4-2.3c-0.3-2.8-0.2-5.5-0.2-8.3
	c0-2.5,0-4.9,0.1-7.4c0-1.7,0-3.9,0.8-5.4c0.7-1.3,3-1.5,3.4-2.9C113.3,3.4,104.9,3.6,102.7,3.6z"/>
<path id="path13_fill" class="st0" d="M154.2,41.9c-1.8,0-3.5-2-4.8-3.1c-2-1.8-4-3.6-6-5.4c-2.1-1.9-4.1-3.7-6.2-5.6
	c-1.3-1.2-2.7-2.7-4.2-3.5c-2.1-1.2-2.4,1.5-2.5,3c-0.1,2-0.3,5,0.8,6.8c0.6,1,1.9,1.2,2.6,2.1c0.7,0.7,0.6,1.9,0.3,2.8
	c-1,2.3-4.3,2.6-6.5,2.7c-2.4,0.1-5.4,0.1-7.7-1c-1.8-0.9-2.6-3.4-0.9-4.9c0.9-0.8,2-1.2,2.5-2.4c0.4-1.2,0.4-2.6,0.5-3.9
	c0.1-2.8,0.1-5.7,0.1-8.5c0-2.2-0.1-4.4-0.4-6.5c-0.3-2.2-0.7-4-2.8-5.2c-0.8-0.5-1.7-0.8-2-1.8c-0.2-1,0.1-2.1,0.8-2.8
	c1.8-1.6,4.7-1.6,7-1.7c2-0.1,4.5-0.3,6.3,0.8c0.9,0.6,1.7,1.3,2.4,2c1.8,1.6,3.7,3.2,5.5,4.9c1.9,1.7,3.8,3.4,5.8,5.1
	c0.7,0.6,1.3,1.2,2.1,1.8c0.6,0.4,1.6,1.3,2.3,0.6c0.6-0.6,0.6-1.8,0.6-2.6c0-1.6,0.2-4.7-1.3-5.8c-0.9-0.6-2-1-2.5-2
	c-0.5-1-0.3-2.3,0.4-3.1c1.5-1.8,4.8-1.7,6.9-1.7c2.4,0,5.3-0.2,7.4,1.2c1.6,1.1,1.8,3.6,0.2,4.7c-0.9,0.6-2,1-2.6,2.1
	c-0.5,1-0.6,2.3-0.6,3.4c-0.2,2.4-0.1,4.8-0.1,7.2c0,2.9,0,5.8,0,8.6c0,2.5,0.1,5-0.3,7.5C157,39.5,156.4,41.9,154.2,41.9z
	 M131.9,23.4c1.6,0,3,1.7,4.2,2.7c1.3,1.2,2.6,2.3,3.9,3.5c3.3,3,6.6,5.9,9.9,8.9c0.8,0.8,1.7,1.7,2.6,2.3c4.1,2.6,4.5-4.2,4.5-6.7
	c0.1-3.7,0-7.4,0-11.2c0-1.6,0-3.2,0-4.7c0-2.1,0-4.2,0.4-6.2c0.2-0.9,0.5-1.7,1.3-2.4c0.7-0.6,1.7-0.9,2.4-1.5
	c0.6-0.6,0.3-2.2-0.1-2.8c-0.8-1.2-2.6-1.4-3.9-1.6c-1.6-0.2-3.1-0.2-4.7-0.1c-1.4,0-2.9,0.1-4.3,0.6c-1.3,0.5-2.1,1.4-1.9,2.8
	c0.2,1.3,1.6,1.7,2.5,2.4c0.9,0.7,1.2,1.8,1.3,2.9c0.2,1.4,0.3,3,0.1,4.4c-0.1,0.8-0.3,1.9-1.3,2.2c-1.3,0.3-2.8-1.2-3.6-2
	c-0.5-0.5-1.1-0.9-1.6-1.4c-2.5-2.2-5-4.4-7.5-6.6c-1-0.9-1.9-1.7-2.9-2.6c-1-0.8-1.9-1.8-3.1-2.3c-1.2-0.5-2.6-0.4-3.9-0.4
	c-1.6,0-3.3,0-4.9,0.3c-1.2,0.2-2.9,0.6-3.6,1.7c-0.6,0.9-0.5,2.1,0.4,2.7c1.1,0.7,2.3,1.2,3.1,2.4c0.6,1,0.8,2.3,0.9,3.5
	c0.3,2.7,0.4,5.3,0.4,8c0,3.4,0.1,6.8-0.4,10.2c-0.2,1.4-0.8,2.4-2,3.2c-1.1,0.7-1.9,1.5-1.6,2.9c0.6,2.7,5.2,2.8,7.3,2.8
	c2.3,0,7.2,0,7.8-3.1c0.3-1.5-0.6-2-1.8-2.7c-1.1-0.7-1.6-1.6-1.8-2.9c-0.3-1.5-0.3-3-0.3-4.4c0-1.2,0.1-2.5,0.6-3.7
	C130.7,24,131.2,23.4,131.9,23.4z"/>
<path id="path14_fill" class="st0" d="M197.3,41.9c-1.9,0-3.9,0-5.8-0.1c-1.7-0.1-3.5-0.2-5-1c-1.4-0.7-2.2-2.9-0.8-4.1
	c0.6-0.5,1.7-0.6,2.3-1.2c0.5-0.6,0.3-1.7-0.3-2.2c-1.3-1.1-4-0.7-5.6-0.8c-2,0-4.7-0.5-6.6,0.4c-0.7,0.3-1.3,2.2-0.5,2.7
	c0.9,0.6,2.2,0.6,2.8,1.5c0.4,0.6,0.4,1.6,0.1,2.3c-0.7,1.5-2.6,1.9-4.1,2.2c-2.6,0.4-5.4,0.4-7.9,0c-1.2-0.2-2.5-0.4-3.4-1.2
	c-0.8-0.7-1.1-2.1-0.6-3.1c0.5-1,2-1.4,2.9-1.8c0.8-0.4,1.3-0.9,1.8-1.6c1-1.6,1.8-3.4,2.6-5.1c1.1-2.3,2.1-4.7,3.2-7
	c1.2-2.7,2.4-5.4,3.2-8.2c0.4-1.6,0.5-3.2,0.6-4.9c0.1-1.5,0.5-3,1.6-4.1c2.1-2.4,6.5-2.3,9-0.7c2.5,1.6,4.5,4.8,5.9,7.4
	c3.2,5.8,6,12,8.8,18c0.6,1.3,1.2,2.6,1.8,3.9c0.4,0.9,0.9,1.6,1.7,2.1c0.8,0.4,1.7,0.5,2.4,1.1c0.7,0.5,0.5,2,0.3,2.7
	c-0.4,1-1.3,1.6-2.2,1.9C202.8,41.8,199.9,41.9,197.3,41.9z M178.7,32c1.7,0,3.5,0,5.2,0.1c1.2,0,3,0,4,0.8c0.6,0.5,0.9,1.4,0.8,2.2
	c-0.2,0.9-1.1,1.2-1.9,1.5c-0.8,0.4-1.4,0.8-1.3,1.8c0,0.8,0.5,1.5,1.2,1.9c1.7,0.9,3.8,0.9,5.7,1c2.3,0.1,4.6,0.1,6.9,0
	c2-0.1,4.4-0.2,6.2-1c0.7-0.3,1.3-0.8,1.5-1.5c0.2-0.5,0.3-1.6-0.2-2c-0.5-0.4-1.2-0.5-1.7-0.7c-0.7-0.3-1.3-0.7-1.8-1.3
	c-0.7-1-1.2-2.3-1.7-3.4c-1.5-3.2-3-6.3-4.5-9.5c-1.6-3.2-3.1-6.4-4.8-9.6c-1.3-2.6-3-5.3-5.2-7.2c-2.3-2.1-7-2.7-9.3-0.1
	c-1.8,2-1.3,4.7-1.7,7.1c-0.4,2.5-1.4,4.9-2.4,7.2c-1.1,2.6-2.3,5.1-3.5,7.7c-1.2,2.6-2.2,5.5-4,7.8c-1.2,1.6-4.6,1.5-4.4,3.9
	c0.2,2.3,3.7,2.4,5.4,2.5c2.5,0.1,5.4,0.3,7.9-0.6c0.7-0.2,1.4-0.6,1.9-1.2c0.4-0.6,0.6-1.8,0-2.3c-0.7-0.6-1.7-0.7-2.5-1.1
	c-1.1-0.8-0.5-3.1,0.6-3.6C175.9,32.1,177.1,32,178.7,32z M183.5,26c-0.8,0-1.6,0-2.5,0c-0.9,0-2.1,0.1-3-0.1
	c-1.3-0.4-0.2-2.5,0.1-3.2c0.5-1.3,1.4-5.6,3.5-4.8c0.7,0.3,1.1,1.1,1.5,1.7c0.5,0.8,1,1.7,1.4,2.5c0.5,0.9,1.2,2,1.2,3
	C185.9,25.9,184.5,26,183.5,26z M181.1,18.2c-1.4,0-2.2,3.8-2.6,4.8c-0.1,0.4-1.1,2.1-0.3,2.3c1.1,0.3,2.4,0.1,3.5,0.1
	c0.8,0,2.8,0.3,3.4-0.2c0.5-0.4-0.3-1.6-0.5-2.1c-0.5-1-1-1.9-1.6-2.9C182.7,19.6,182.1,18.2,181.1,18.2z"/>
<path id="path15_fill" class="st2" d="M47.5,35.9c-2.8-0.9-3.6-4.4-4.8-6.8c-1.5-3.3-3.1-6.5-4.7-9.7c-1.3-2.6-2.6-5.2-3.9-7.8
	c-1.3-2.4-2.9-5-5-6.8c-2.5-2.2-7.2-2.8-9.6-0.1c-1.8,2.1-1.3,4.6-1.7,7.1c-0.4,2.6-1.5,5.2-2.5,7.6c-1.1,2.6-2.3,5.2-3.5,7.7
	c-0.5,1-0.9,2-1.4,3c-0.8,1.6-1.5,3.6-2.8,4.9c-1.4,1.5-5.5,1.6-3.9,4.6c1,1.9,4.6,1.8,6.4,1.9c2.4,0.1,5.2,0.2,7.4-0.8
	c0.6-0.3,1.3-0.7,1.6-1.3c0.4-0.7,0.5-1.9-0.2-2.4c-0.7-0.6-1.8-0.6-2.5-1.2c-1-0.6-0.3-2.7,0.6-3.2c0.8-0.4,1.8-0.4,2.7-0.4
	c1.3,0,2.6,0,3.8,0c1.7,0,4.5-0.3,6,0.8c0.6,0.5,0.9,1.6,0.6,2.3c-0.4,0.8-1.5,0.9-2.2,1.3c-1.5,1-1,3.1,0.4,3.9
	c1.7,0.9,3.7,0.9,5.5,1c2.3,0.1,4.7,0.1,7,0.1c2-0.1,4.4-0.2,6.3-1c0.8-0.3,1.4-0.8,1.8-1.6c0.3-0.7,0.4-1.9-0.2-2.4
	C48.5,36.3,48.1,36.1,47.5,35.9C46.8,35.7,48.1,36.1,47.5,35.9z M25.2,25.7c-0.7,0-1.4,0-2.1,0c-1,0-2.3,0.2-3.2-0.1
	c-1.2-0.4,0.5-3.4,0.7-4c0.4-1.2,1.4-4.7,3.2-3.3c0.7,0.6,1.2,1.7,1.6,2.5c0.5,1,1.1,1.9,1.5,2.9c0.2,0.3,0.6,1.1,0.4,1.5
	C27.1,25.8,25.7,25.7,25.2,25.7z"/>
<path id="path16_fill" class="st2" d="M84.6,27.8c-1.2,0-1.6,1.3-2,2.3c-0.5,1.2-0.9,2.4-1.8,3.3c-1.6,1.7-4.3,2-6.5,1.7
	c-3.6-0.4-3.4-4-3.4-6.8c0-5.1,0-10.2,0-15.2c0-0.5,0-1.1,0.1-1.6c0.2-1.1,0.7-1.5,1.7-2c1-0.6,2.4-1,2.4-2.4c0-1.2-0.9-2.1-2-2.5
	c-1.2-0.5-2.7-0.7-4.1-0.8c-2.4-0.2-4.9-0.3-7.3-0.2C59.7,3.6,57,3.7,55,4.8c-0.7,0.4-1.3,0.9-1.6,1.6c-0.3,0.7-0.4,1.9,0.3,2.3
	c1.2,0.7,2.5,0.7,3.6,1.6C58,11,58,11.9,58,12.8c0,1.1,0.1,2.3,0.2,3.4c0.1,2.6,0.2,5.1,0.2,7.7c0,2.1,0,4.2-0.1,6.4
	c0,1.4,0.3,4-0.8,5.1c-0.9,0.9-2.7,1.2-3.3,2.4c-0.5,1-0.1,2.5,1,2.8C57,41.2,59,41,60.9,41c2.5,0,5,0,7.5,0c2.2,0,4.3,0,6.5,0
	c0.5,0,1,0,1.5,0c2,0,3.9,0.7,5.9,0.7c2.4,0.1,3.9-2.9,4.7-4.8c1-2.4,1.5-5.4,0.2-7.7C86.5,28.3,85.7,27.8,84.6,27.8z"/>
<path id="path17_fill" class="st2" d="M108.2,15.6c0-1.6,0-3.9,0.9-5.2c0.8-1.2,3.1-1.3,3.3-3c0.5-3.7-5.2-3.8-7.6-4
	c-3.9-0.2-8.3-0.2-11.9,1.4c-1.3,0.6-2.5,1.8-1.8,3.4c0.7,1.3,2.5,1.6,3.2,2.9c0.7,1.1,0.7,2.7,0.8,4.1c0.1,1.6,0.1,3.1,0.1,4.7
	c0,1.7,0,3.4,0,5c0,2.9,0.1,6-0.6,8.8c-0.1,0.6-0.3,1.2-0.7,1.6c-0.6,0.6-1.6,0.9-2.1,1.6c-0.6,0.8-0.4,1.9,0.2,2.6
	c0.8,0.9,2,1.3,3.1,1.5c1.9,0.4,4,0.4,5.9,0.4c2,0,4-0.1,6-0.4c1.4-0.2,3.5-0.5,4.5-1.7c0.8-1,1.1-2.6,0-3.6c-0.9-0.7-2.3-0.9-2.9-2
	c-0.6-1.1-0.5-2.5-0.6-3.7c-0.1-1.4-0.1-2.9-0.1-4.3C108,22.5,108.1,19.1,108.2,15.6C108.2,14.5,108.1,16.7,108.2,15.6z"/>
<path id="path18_fill" class="st2" d="M160.6,4.6c-2.1-1.3-4.9-1.2-7.2-1.2c-2.1,0-5.1-0.1-6.6,1.5c-0.7,0.7-0.8,1.8-0.5,2.7
	c0.4,1.2,1.8,1.5,2.7,2.2c1.4,1.2,1.2,4.1,1.2,5.7c0,1.8-0.4,4.2-2.6,2.8c-0.9-0.6-1.7-1.3-2.5-2c-1.8-1.6-3.6-3.2-5.4-4.7
	c-1.9-1.7-3.8-3.4-5.8-5.1c-0.5-0.4-0.9-0.8-1.4-1.3c-0.7-0.6-1.5-1.2-2.4-1.5c-1-0.3-2.2-0.3-3.3-0.3c-2.4,0-5-0.1-7.2,0.8
	c-0.9,0.4-1.8,0.9-2.1,1.9c-0.3,1-0.1,1.9,0.7,2.5c1,0.6,2.1,1,2.8,2c0.6,0.8,0.8,1.9,1,2.9c0.3,2,0.4,4,0.5,5.9
	c0.1,2.7,0.1,5.5,0,8.2c0,1.3-0.1,2.5-0.3,3.8c-0.1,1.1-0.2,2.3-1,3.2c-0.7,0.8-1.9,1.1-2.5,2c-0.5,0.8-0.3,2,0.1,2.8
	c1.2,1.9,4.3,2.1,6.3,2.2c2.5,0.1,5.6,0.1,7.7-1.4c0.8-0.6,1.3-1.3,1.3-2.3c0.1-1.4-0.8-1.8-1.9-2.5c-2-1.3-2-3.6-2.1-5.7
	c-0.1-1.5-0.4-4.4,0.9-5.7c1.4-1.4,3.8,1.4,4.9,2.4c1.7,1.5,3.4,3.1,5.2,4.6c3.4,3.1,6.8,6.2,10.2,9.2c1,0.9,2.5,1.9,3.9,1.2
	c1.9-0.9,2-4.3,2.1-6.1c0.1-2,0.1-3.9,0.1-5.9c0-2.8,0-5.6,0-8.4c0-2.7-0.1-5.5,0.3-8.1c0.2-1,0.4-2.1,1.2-2.8
	c0.7-0.6,1.7-0.9,2.5-1.6c0.5-0.4,0.4-1.5,0.4-2C161.6,5.6,161.2,5,160.6,4.6C159.8,4.1,161.4,5,160.6,4.6z"/>
<path id="path19_fill" class="st2" d="M207.1,36.5c-1.2-0.9-2.7-0.8-3.6-2.2c-0.8-1.1-1.2-2.5-1.8-3.8c-1.6-3.3-3.2-6.7-4.8-10
	c-2.6-5.2-4.9-11.4-9.2-15.5c-2.4-2.3-7.4-3.1-9.8-0.3c-1.8,2.1-1.3,4.6-1.7,7.1c-0.4,2.6-1.5,5.2-2.5,7.6c-1.1,2.6-2.3,5.2-3.5,7.8
	c-0.5,1.1-1,2.2-1.5,3.2c-0.8,1.6-1.5,3.6-2.9,4.8c-0.8,0.7-2,0.9-2.9,1.4c-1.1,0.6-1.3,2.1-0.6,3.2c1.1,1.7,4.6,1.6,6.4,1.7
	c2.4,0.1,5.2,0.2,7.4-0.8c0.6-0.3,1.3-0.7,1.6-1.3c0.4-0.7,0.5-1.9-0.2-2.4c-0.7-0.6-1.8-0.6-2.5-1.2c-1.1-0.7-0.2-2.8,0.7-3.2
	c1.2-0.6,2.8-0.4,4.1-0.4c1.5,0,3.1,0,4.6,0.1c1.1,0.1,2.7,0,3.6,0.7c0.6,0.5,0.9,1.6,0.6,2.3c-0.4,0.8-1.5,0.9-2.2,1.3
	c-1.5,1-1,3.1,0.4,3.9c1.5,0.8,3.4,0.9,5.1,1c2.1,0.1,4.2,0.1,6.3,0.1c2.1,0,4.1-0.2,6.1-0.6c1.6-0.4,3.2-1.2,3.2-3.1
	C207.5,37.2,207.3,36.8,207.1,36.5C206.8,36.3,207.3,36.8,207.1,36.5z M183.5,25.7c-0.7,0-1.4,0-2.1,0c-1,0-2.3,0.2-3.2-0.1
	c-1.2-0.4,0.5-3.4,0.7-4c0.4-1.2,1.4-4.7,3.3-3.3c0.7,0.6,1.2,1.7,1.6,2.5c0.5,1,1.1,1.9,1.5,2.9c0.2,0.3,0.6,1.1,0.4,1.5
	C185.4,25.8,184,25.7,183.5,25.7z"/>
<path id="path20_fill" class="st3" d="M126.1,58c-4.6,0-8.2-4.9-5.9-9.2c1-1.9,3-3.2,5.1-3.5c1.2-0.2,2.1,0.2,3.3,0.5
	c0.9,0.2,1.8,0,2.5,0.9c1.2,1.4,1.5,4.1-0.2,5.3c1.6,1,0.8,3.5-0.3,4.5c-0.5,0.4-1,0.5-1.6,0.7C128,57.6,127.2,58,126.1,58z
	 M126,50.2c-0.4,1.4,0.9,3,2.3,2.2c-0.6-0.3-1-0.8-1.3-1.4C126.7,50.6,126.5,50.2,126,50.2z"/>
<path id="path21_fill" class="st3" d="M136.1,58c-2.7,0-5.2-1.6-6.1-4.2c-0.9-2.5-0.2-5.4,1.9-7.1c4.5-3.7,11.7-0.1,10.9,5.8
	C142.4,55.9,139.3,58,136.1,58z"/>
<path id="path22_fill" class="st3" d="M146.1,58c-1.5,0-3.8-0.2-4.7-1.6c-0.9-1.2-1.4-3.5-0.2-4.7c-1.8-3.5,1.9-6.6,5.2-6.4
	c0.4,0,0.8,0.1,1.1,0.2c0.5,0.1,0.8,0.1,1.3,0.1c0.7,0,1.3,0.4,1.8,0.9c1,1.1,1.8,3.2,0.5,4.4c1.4,1.9,0.8,4.6-1,6
	C149.1,57.6,147.8,58,146.1,58z"/>
<path id="path23_fill" class="st3" d="M160.6,58c-0.7,0-1.5,0-2.2-0.2c-0.3-0.1-0.7-0.5-1-0.5c-0.3,0-0.7,0.3-1.1,0.3
	c-0.4,0-0.8-0.3-1.1-0.3c-0.2,0-0.5,0.3-0.7,0.4c-0.7,0.3-1.6,0.3-2.3,0.3c-1-0.1-2.2-0.4-2.7-1.4c-0.4-0.9,0-2,0.8-2.5
	c0.1-0.8,0.1-1.6,0.1-2.4c0-0.4,0-0.9,0-1.3c0-0.5,0-0.7-0.3-1c-1-1.1-1.1-2.8,0.4-3.6c1.2-0.6,3.3-0.7,4.5-0.2
	c1,0.5,1.4,1.6,1.9,2.5c0.4-0.8,0.7-1.8,1.5-2.3c0.9-0.6,2.3-0.6,3.3-0.5c1.3,0.2,2.6,1,2.5,2.5c0,0.4-0.2,0.8-0.4,1.1
	c-0.4,0.6-0.5,0.7-0.5,1.5c0,0.7,0,1.4,0,2.1c0,0.3,0,0.7,0.1,1c0.1,0.4,0.2,0.4,0.4,0.7c0.6,0.9,0.8,2-0.1,2.9
	C163,58,161.7,58,160.6,58z"/>
<path id="path24_fill" class="st3" d="M171.6,58c-0.7,0-1.4-0.2-2.1-0.2c-0.8,0-1.6,0-2.4,0c-1.3,0-3.3,0.3-4.4-0.5
	c-1-0.8-1-2.7,0.3-3.3c0.2-1.2,0.2-2.4,0.1-3.5c0-0.3,0-0.8-0.1-1c-0.2-0.4-0.7-0.6-0.9-1c-0.4-1,0-2.2,0.9-2.7
	c0.6-0.4,1.4-0.3,2.1-0.3c1.1,0,2.2,0,3.4,0c1.6,0,3.5-0.8,4.6,0.7c1,1.4,1.2,4.5-1.2,4.8c0,0.2,0,0.4,0,0.6
	c0.7-0.1,1.5,0.2,1.9,0.8C174.9,54,173.8,58,171.6,58z"/>
<path id="path25_fill" class="st3" d="M178,58c-1.3,0-2.3-0.1-3-0.4c-0.9-0.3-1.6-1-1.7-1.9c-0.1-0.8,0.4-1.9,1.2-2.1
	c0.1-0.6,0.1-1.3,0.1-1.9c-0.9,0.4-2,0.1-2.6-0.6c-1.5-1.7-0.1-5.1,1.9-5.7c0.7-0.2,1.5,0.1,2.3,0.1c0.6,0,1.3,0,1.9,0
	c0.5,0,1.1,0,1.6,0c0.9-0.1,1.6-0.4,2.5,0.1c1.8,1,3,4.4,1.1,5.8c-0.6,0.5-1.6,0.6-2.4,0.4c0,0.6,0,1.3,0,1.9c1.9,0.9,1.4,3.4-0.4,4
	C179.9,57.8,179.1,58,178,58z"/>
<path id="path26_fill" class="st3" d="M185.3,57.9c-1.6,0-3.8-0.4-3.7-2.4c0-0.6,0.3-0.9,0.6-1.4c0.3-0.4,0.3-0.5,0.3-1.1
	c0-1.2,0.1-2.4,0-3.5c-1.3-0.9-1.4-2.7,0-3.6c1.4-0.9,3.7-0.9,5.3-0.5c1,0.2,1.8,0.8,2.1,1.7c0.2,0.9-0.1,1.8-1,2.2
	c-0.1,1.1-0.1,2.2,0,3.2c0,0.4,0,0.8,0.2,1.1c0.3,0.6,0.8,0.7,0.9,1.5C190.2,57.6,187.1,57.9,185.3,57.9z"/>
<path id="path27_fill" class="st3" d="M194,58c-4.7,0-8.3-5.1-5.8-9.4c1.1-1.8,3-3.1,5.2-3.4c0.6-0.1,1.1,0,1.7,0
	c0.6,0.1,1.1,0.4,1.6,0.5c0.9,0.2,1.6,0,2.3,0.8c1.2,1.5,1.5,4.1-0.2,5.4c1.4,1.1,1,3.2-0.1,4.4c-0.5,0.5-1.1,0.6-1.8,0.9
	C196,57.6,195.1,58,194,58z M193.9,50.2c-0.4,1.4,0.9,3.1,2.3,2.2c-0.6-0.3-1-0.8-1.3-1.4C194.7,50.6,194.4,50.2,193.9,50.2z"/>
<path id="path28_fill" class="st3" d="M203.1,58c-1.5,0-3.8-0.2-4.7-1.6c-0.7-1.1-1.5-3.7-0.1-4.6c-1.1-2.2,0-4.7,2-5.8
	c0.9-0.5,2-0.7,3.1-0.7c0.6,0,1.1,0.2,1.6,0.3c0.4,0,0.9-0.1,1.4,0c1,0.2,1.8,1.2,2.2,2.1c0.2,0.6,0.4,1.2,0.3,1.8
	c0,0.2-0.1,0.5-0.2,0.7c-0.1,0.1-0.4,0.5-0.4,0.6c0,0.1,0.4,0.7,0.5,0.8c0.1,0.2,0.2,0.5,0.2,0.8c0.1,0.6,0.1,1.2,0,1.7
	c-0.2,1.1-0.8,2-1.7,2.7C206.1,57.6,204.7,58,203.1,58z"/>
<path id="path29_fill" class="st1" d="M126.1,57.5c-4.4,0-7.7-4.7-5.3-8.7c1-1.7,2.8-2.8,4.7-3.1c1.1-0.1,2,0.2,3.1,0.5
	c0.8,0.2,1.5-0.1,2.2,0.7c1,1.3,1.4,3.6-0.1,4.6c-0.7,0.5-1.7,0.5-2.4,0.1c-0.3-0.2-1.8-3-2.5-1.9c-0.5,0.6-0.1,1.8,0.3,2.4
	c0.6,0.9,1.7,1.1,2.6,0.5c0.8-0.5,1.5-0.9,2.4,0c0.8,1.1,0.2,3.1-1,3.7c-0.5,0.3-1.1,0.4-1.6,0.6C127.6,57.3,126.8,57.5,126.1,57.5z
	"/>
<path id="path30_fill" class="st1" d="M136.2,57.5c-3.4,0-6.2-2.8-6-6.2c0.2-3.3,3-5.6,6.2-5.6c3.2,0,5.9,2.5,6.1,5.7
	C142.6,55,139.5,57.5,136.2,57.5z M135.7,49.7C135.6,49.7,135.6,49.7,135.7,49.7c-0.4,0.6,0.3,3.8,1.1,3.8
	C137.4,53,136.5,49.7,135.7,49.7z"/>
<path id="path31_fill" class="st1" d="M146.1,57.5c-1.3,0-3.3-0.2-4.2-1.2c-0.9-1-1.6-3.7-0.1-4.4c-2.1-3.3,1.6-6.4,4.8-6.1
	c0.4,0,0.8,0.2,1.2,0.2c0.4,0,0.6,0,1,0c0.7,0,1.2,0.4,1.6,0.9c0.8,1,1.4,2.9,0.1,3.8c1.6,1.6,1.2,4.3-0.6,5.6
	C148.9,57.1,147.7,57.5,146.1,57.5z M148.5,48.1c0.3,0.2,0.5,0.4,0.8,0.6c-0.1-0.2-0.3-0.6-0.5-0.7C148.7,48,148.6,48.1,148.5,48.1
	C148.7,48.2,148.6,48.1,148.5,48.1z"/>
<path id="path32_fill" class="st1" d="M160.6,57.5c-1,0-2.4,0-3.1-0.9c0,0,0,0,0,0.1c-0.5,0.6-1.5,0.7-2.1,0.1c0,0,0-0.1-0.1-0.1
	c-0.9,1.2-3.4,1.2-4.6,0.5c-1.1-0.7-1-2.2,0.1-2.7c0-0.8,0.1-1.6,0.1-2.3c0-0.7,0.3-1.9,0-2.6c-0.2-0.6-0.9-0.7-1-1.5
	c-0.1-0.9,0.6-1.6,1.4-1.9c1.4-0.4,3.6-0.6,4.4,0.8c0.5,0.8,0.9,1.6,1.3,2.4c0.3-0.6,0.6-1.1,0.9-1.7c0.7-1.4,1.7-1.7,3.2-1.7
	c0.9,0,2,0.2,2.5,1c0.5,0.8,0.2,1.8-0.6,2.3c-0.3,0.3-0.1,1.8-0.1,2.2c0,1,0.1,2,0.2,3c0.6,0.6,1.1,1.3,0.5,2.2
	C163.1,57.6,161.6,57.5,160.6,57.5z"/>
<path id="path33_fill" class="st1" d="M171.6,57.5c-1.5,0-2.9-0.2-4.4-0.2c-1,0-3.4,0.4-4.2-0.4c-1-0.8-0.5-2.1,0.4-2.6
	c0.3-1.3,0.2-2.6,0.2-3.9c0-0.3,0-0.8-0.1-1.1c-0.2-0.4-0.4-0.4-0.7-0.7c-0.8-0.9-0.3-2.3,0.8-2.7c0.6-0.2,1.3-0.1,2-0.1
	c1.4,0,2.8,0.1,4.2,0c1-0.1,1.9-0.6,2.7,0.3c0.8,0.9,1.2,2.6,0.5,3.6c-0.4,0.5-1,0.7-1.5,0.6c0.1,0.6,0.1,1.2,0,1.8
	c0.6-0.4,1.6-0.3,2.1,0.4C174.2,53.9,173.4,57.5,171.6,57.5z"/>
<path id="path34_fill" class="st1" d="M178,57.5c-1.3,0-2.2-0.1-2.9-0.4c-1.6-0.6-1.8-2.6-0.1-3.2c0-1.1,0.2-2.1,0.2-3.2
	c-0.7,0.7-2.1,0.7-2.7-0.1c-1.3-1.4,0.1-4.6,2-4.9c0.6-0.1,1.3,0.2,1.9,0.2c0.6,0,1.1,0,1.7,0c0.5,0,1.1,0,1.6,0
	c0.7,0,1.4-0.4,2.1-0.1c1.7,0.6,2.9,3.9,1.2,5.1c-0.7,0.5-1.9,0.6-2.6-0.1c0,0.5,0,1,0,1.5c0,0.4-0.1,1.2,0,1.6
	c1.6,0.7,1.6,2.6-0.1,3.3C179.8,57.4,179,57.5,178,57.5z"/>
<path id="path35_fill" class="st1" d="M185.3,57.5c-1.8,0-4.3-1-2.6-3c0.3-0.3,0.3-0.3,0.3-0.8c0-0.5,0-0.9,0-1.4
	c0-0.9,0.2-2-0.1-2.9c-1.3-0.7-1.3-2.3,0-2.9c1.3-0.6,3.3-0.6,4.7-0.4c1.6,0.3,2.5,2.3,0.7,3.2c-0.1,0.9-0.1,1.8-0.1,2.7
	c0,0.5,0,1.1,0.1,1.6c0,0.5,0.1,0.4,0.4,0.8c0.7,0.6,0.9,1.5,0.3,2.3C188.2,57.5,186.5,57.5,185.3,57.5z"/>
<path id="path36_fill" class="st1" d="M194,57.5c-4.4,0-7.7-4.7-5.4-8.7c1-1.7,2.8-2.8,4.7-3.1c1.1-0.1,2,0.2,3.1,0.5
	c0.8,0.2,1.5-0.1,2.2,0.7c1,1.3,1.4,3.6-0.1,4.6c-0.7,0.5-1.7,0.5-2.4,0.1c-0.3-0.2-1.8-3-2.5-1.9c-0.5,0.6-0.1,1.8,0.3,2.4
	c0.5,0.9,1.7,1.1,2.6,0.6c0.4-0.2,0.6-0.5,1-0.6c0.6-0.1,1.1,0.1,1.5,0.6c0.8,1.1,0.1,3-1,3.7c-0.5,0.3-1.1,0.4-1.6,0.6
	C195.5,57.3,194.8,57.5,194,57.5z"/>
<path id="path37_fill" class="st1" d="M203.1,57.5c-1.3,0-3.4-0.2-4.3-1.3c-0.8-1-1.4-3.6,0.1-4.3c-2-3.2,1.4-6.3,4.6-6.1
	c0.4,0,0.8,0.1,1.1,0.2c0.5,0.1,0.6,0.1,1.1,0.1c0.7,0,1.2,0.2,1.6,0.6c0.9,0.9,1.9,3.3,0.3,4.1c1.6,1.6,1.1,4.3-0.6,5.7
	C205.9,57.1,204.6,57.5,203.1,57.5z"/>
<path id="path38_fill" class="st3" d="M126,48.7c1,0,1.7,0.6,2.2,1.4c0.4,0.7,0.9,1.3,1.8,0.8c1-0.6,0.6-2.4,0-3.1
	c-0.5-0.5-0.6-0.3-1.2-0.4c-0.5,0-1-0.3-1.5-0.5c-2.6-0.7-5.7,1.1-6.2,3.8c-0.5,2.6,1.3,5.1,3.7,5.7c1.4,0.3,2.4,0,3.7-0.4
	c0.6-0.2,1-0.2,1.4-0.7c0.4-0.5,0.7-1.3,0.3-1.9c-0.4-0.5-0.8,0.1-1.2,0.3c-0.4,0.3-0.9,0.4-1.4,0.4c-1,0-1.9-0.4-2.5-1.3
	c-0.6-1-0.9-2.6-0.2-3.6C125.1,48.8,125.5,48.7,126,48.7z"/>
<path id="path39_fill" class="st3" d="M139.4,47.7c-2-1.6-5.2-1.3-7,0.5c-1.9,2-1.7,5.4,0.4,7.1c2.2,1.8,5.7,1.4,7.5-0.7
	C142.1,52.6,141.5,49.4,139.4,47.7C138.5,47.1,140,48.2,139.4,47.7z M137.6,54.1c-1.8,2-3.6-3.5-2.9-4.9c0.9-1.4,2.2,0.3,2.6,1.2
	C137.7,51.3,138.3,53.2,137.6,54.1C137.4,54.4,137.8,53.8,137.6,54.1z"/>
<path id="path40_fill" class="st3" d="M148.8,50.6c-0.5-0.3-4.1-1-2.6-2.1c1.4-1,2.9,2.4,3.9,1.1c0.7-0.7-0.2-2.4-1-2.7
	c-0.4-0.1-0.7,0.1-1.1,0.1c-0.5,0-1-0.3-1.5-0.3c-2.1-0.2-4.9,1.5-4.1,3.9c0.3,1,1.2,1.7,2.1,2.1c0.6,0.2,2.4,0.5,2.4,1.3
	c0,1.1-2,0.6-2.5,0.3c-0.4-0.2-1.6-2.5-2.2-1.5c-0.5,0.7,0.1,2.5,0.7,2.9c0.8,0.6,2.2,0.7,3.1,0.7c2.1,0,4.6-0.9,4.6-3.3
	C150.5,52.1,149.9,51.2,148.8,50.6z"/>
<path id="path41_fill" class="st3" d="M162.3,54.8c-0.3-0.3-0.2-1.3-0.2-1.7c0-0.7-0.1-1.5-0.1-2.2c0-0.6,0-1.3,0.2-1.9
	c0.1-0.5,0.8-0.8,0.8-1.3c0-0.9-1.4-0.9-1.9-0.9c-1.4,0-1.8,0.5-2.4,1.7c-0.2,0.5-0.5,1-0.8,1.5c-0.4,0.8-0.8,1.2-1.3,0.2
	c-0.5-1-0.9-2.2-1.6-3c-0.5-0.6-1.7-0.5-2.5-0.4c-0.5,0.1-1.2,0.1-1.4,0.7c-0.2,0.6,0.4,0.7,0.7,1c0.6,0.7,0.3,2.3,0.3,3.2
	c0,0.8,0.2,2.5-0.3,3.2c-0.2,0.4-0.8,0.4-0.8,0.8c0,0.4,0.3,0.5,0.6,0.6c0.6,0.2,2.6,0.3,3-0.4c0.3-0.6-0.3-0.6-0.6-0.9
	c-0.2-0.2-0.2-0.6-0.2-0.9c0-0.5-0.1-3.1,0.7-1.7c0.3,0.6,0.6,1.3,0.9,1.9c0.2,0.5,0.7,2,1.4,1.5c0.5-0.3,0.8-1.5,1-2
	c0.1-0.3,1.1-2.3,1.4-1.6c0.2,0.6,0.2,1.9-0.1,2.5c-0.2,0.3-0.5,0.4-0.6,0.7c-0.1,0.5,0.4,0.7,0.8,0.8c0.9,0.2,2.1,0.2,3,0
	c0.4-0.1,1.1-0.3,1-0.8C162.9,55.2,162.5,55.1,162.3,54.8C162.3,54.7,162.4,54.9,162.3,54.8z"/>
<path id="path42_fill" class="st3" d="M172.2,53.1c-0.7,0-0.8,0.9-1.2,1.4c-0.5,0.5-1.1,0.5-1.7,0.5c-0.6,0-1.2,0.1-1.5-0.5
	c-0.2-0.4-0.3-1.7,0-2.1c0.2-0.3,0.8-0.2,1,0c0.3,0.3,0.1,0.8,0.4,1.1c0.5,0.8,1.1-1,1.2-1.2c0.1-0.7,0.2-2-0.3-2.6
	c-0.9-1.1-1,0.9-1.3,1.1c-0.6,0.4-1.2,0.1-1.3-0.5c-0.1-0.6,0-1.2,0.1-1.7c0.3-0.5,1.4-0.3,1.9-0.2c0.6,0.1,1,0.3,1.4,0.7
	c1.2,1.4,1.6-0.7,1.1-1.7c-0.5-0.9-1.1-0.5-2-0.4c-0.5,0.1-1,0-1.6,0c-0.7,0-1.4,0-2.1,0c-0.7,0-1.6-0.1-2.3,0
	c-0.5,0.1-0.9,0.6-0.5,1c0.2,0.2,0.5,0.1,0.7,0.4c0.1,0.1,0.1,0.3,0.1,0.5c0.3,1.4,0.2,2.9,0.1,4.3c0,0.5,0,1.3-0.3,1.8
	c-0.3,0.4-1.2,0.5-0.6,1.2c0.5,0.3,1.5,0.2,2,0.2c1,0,2.1,0,3.1,0c0.7,0,1.4,0,2.2,0.1c0.9,0.1,1.1-0.1,1.5-1
	c0.3-0.6,0.6-1.5,0.2-2.1C172.5,53.1,172.3,53.1,172.2,53.1z"/>
<path id="path43_fill" class="st3" d="M181.2,46.7c-0.5,0-1.1,0.2-1.6,0.2c-0.4,0-0.8,0-1.2,0c-0.8,0-1.6,0-2.3,0
	c-0.7,0-1.3-0.3-1.9,0.1c-0.7,0.5-1.2,1.6-1.1,2.5c0.1,0.7,0.7,1.1,1.4,0.7c0.4-0.3,0.9-1.4,1.4-1.4c0.8,0.1,0.4,3.7,0.3,4.4
	c0,0.5,0,1.3-0.4,1.6c-0.4,0.3-1.3,0.5-0.6,1.2c0.9,0.8,3.4,0.6,4.4,0.4c0.5-0.1,1.3-0.3,1.3-0.9c0-0.7-0.9-0.6-1.1-1.2
	c-0.3-0.7-0.1-1.9-0.1-2.6c0-0.8-0.2-2,0.1-2.7c0.4-0.8,0.9,0.4,1.1,0.6c0.4,0.5,1,1.1,1.7,0.5C183.3,49.4,182.3,46.7,181.2,46.7z"
	/>
<path id="path44_fill" class="st3" d="M187.8,48.3c0.5-0.2,0.8-0.6,0.3-1.1c-0.5-0.5-1.6-0.4-2.2-0.4c-0.7,0-3.9,0.1-2.8,1.4
	c0.4,0.5,0.7,0.6,0.8,1.3c0.1,0.7,0.1,1.4,0.1,2.1c0,0.8,0,1.5-0.1,2.3c0,0.6-0.2,0.8-0.6,1.3c-1.8,2.1,6.5,1.7,4.7-0.1
	c-0.4-0.4-0.6-0.4-0.7-1c-0.1-0.6-0.1-1.1-0.1-1.7C187.3,51.5,186.9,48.8,187.8,48.3C188.1,48.2,187.6,48.4,187.8,48.3z"/>
<path id="path45_fill" class="st3" d="M193.9,48.7c1,0,1.7,0.6,2.2,1.4c0.4,0.7,0.9,1.3,1.8,0.8c1-0.7,0.5-2.4-0.1-3.2
	c-0.4-0.5-0.8-0.2-1.4-0.2c-0.7-0.1-1.3-0.6-2.1-0.6c-1.4-0.1-2.9,0.5-4,1.4c-2.2,2.1-1.9,5.7,0.6,7.4c1.1,0.8,2.6,1.1,4,0.9
	c1.2-0.2,2.8-0.7,3.2-1.9c0.1-0.4,0.2-1.4-0.5-1.4c-0.4,0-1,0.7-1.5,0.8c-1.2,0.3-2.5-0.1-3.1-1.2c-0.6-1-1-2.6-0.2-3.6
	C193.1,48.8,193.5,48.7,193.9,48.7z"/>
<path id="path46_fill" class="st3" d="M205.7,50.6c-0.5-0.3-4.1-1-2.6-2.1c1.3-1,2.9,2.4,3.9,1.1c0.7-0.7-0.2-2.3-0.9-2.7
	c-0.4-0.2-0.8,0-1.2,0c-0.5,0-0.9-0.3-1.4-0.3c-2.1-0.2-4.9,1.3-4.3,3.8c0.3,1,1.1,1.8,2.1,2.2c0.6,0.3,2.6,0.6,2.5,1.5
	c-0.2,1-2.1,0.5-2.6,0.1c-0.3-0.2-1.5-2.4-2-1.4c-0.4,0.6,0,1.8,0.3,2.4c0.3,0.6,0.9,0.8,1.5,1c1.7,0.4,3.9,0.5,5.4-0.7
	C208.1,54.2,207.7,51.6,205.7,50.6z"/>
</svg>
