<svg width="19" height="13" viewBox="0 0 19 13" version="1.1" xmlns="http://www.w3.org/2000/svg" xmlns:xlink="http://www.w3.org/1999/xlink" xmlns:figma="http://www.figma.com/figma/ns">
<title>Vector</title>
<desc>Created using Figma</desc>
<g id="Canvas" transform="translate(-3321 -7136)" figma:type="canvas">
<g id="Vector" style="mix-blend-mode:normal;" figma:type="vector">
<use xlink:href="#path0_fill" transform="translate(3321 7136.12)" fill="#828282" style="mix-blend-mode:normal;"/>
</g>
</g>
<defs>
<path id="path0_fill" d="M 17.7394 1.24003e-07L 1.26064 1.24003e-07C 0.565515 1.24003e-07 -9.4534e-09 0.501217 -9.4534e-09 1.11731L -9.4534e-09 10.8829C -9.4534e-09 11.4988 0.565515 12 1.26064 12L 17.7394 12C 18.4345 12 19 11.4988 19 10.8829L 19 1.11731C 19 0.501437 18.4345 1.24003e-07 17.7394 1.24003e-07ZM 17.7394 0.319356C 17.9032 0.319356 18.0546 0.361087 18.1872 0.429175L 10.2551 7.45896C 9.8514 7.81719 9.1481 7.81675 8.74441 7.45896L 0.812586 0.429175C 0.94492 0.361087 1.09683 0.319356 1.26064 0.319356L 17.7394 0.319356ZM 18.6399 10.8829C 18.6399 11.0709 18.5631 11.2418 18.4399 11.3782L 12.7999 6.37965L 12.5452 6.60544L 18.1616 11.5836C 18.035 11.6437 17.8928 11.6811 17.7391 11.6811L 1.26064 11.6811C 1.10699 11.6811 0.964497 11.6437 0.837864 11.5833L 6.45435 6.60522L 6.1996 6.37943L 0.560063 11.3782C 0.436898 11.2418 0.360076 11.0709 0.360076 10.8831L 0.360076 1.11731C 0.360076 0.93808 0.429464 0.774449 0.542468 0.640908L 8.4899 7.68452C 8.75978 7.92371 9.11836 8.0555 9.50025 8.0555C 9.88164 8.0555 10.2402 7.92371 10.5101 7.68452L 18.4578 0.640688C 18.5708 0.774009 18.6402 0.93786 18.6402 1.11709L 18.6402 10.8829L 18.6399 10.8829Z"/>
</defs>
</svg>
