<svg width="30" height="28" viewBox="0 0 30 28" version="1.1" xmlns="http://www.w3.org/2000/svg" xmlns:xlink="http://www.w3.org/1999/xlink" xmlns:figma="http://www.figma.com/figma/ns">
<title>Group</title>
<desc>Created using Figma</desc>
<g id="Canvas" transform="translate(-3428 -1100)" figma:type="canvas">
<g id="Group" style="mix-blend-mode:normal;" figma:type="frame">
<g id="Group" style="mix-blend-mode:normal;" figma:type="frame">
<g id="Vector 11" style="mix-blend-mode:normal;" figma:type="vector">
<use xlink:href="#path0_stroke" transform="translate(3429.5 1106.52)" fill="#FF6565" style="mix-blend-mode:normal;"/>
</g>
<g id="Ellipse 8" style="mix-blend-mode:normal;" figma:type="ellipse">
<use xlink:href="#path1_fill" transform="translate(3436.08 1124.43)" fill="#FF6565" style="mix-blend-mode:normal;"/>
</g>
<g id="Ellipse 8" style="mix-blend-mode:normal;" figma:type="ellipse">
<use xlink:href="#path1_fill" transform="translate(3446.23 1124.43)" fill="#FF6565" style="mix-blend-mode:normal;"/>
</g>
<g id="Vector 12" style="mix-blend-mode:normal;" figma:type="vector">
<use xlink:href="#path2_stroke" transform="translate(3438.31 1110.53)" fill="#FF6565" style="mix-blend-mode:normal;"/>
</g>
</g>
<g id="Ellipse" style="mix-blend-mode:normal;" figma:type="ellipse">
<use xlink:href="#path3_fill" transform="translate(3441.22 1100.25)" fill="#FF6565" style="mix-blend-mode:normal;"/>
<mask id="mask0_outline_ins">
<use xlink:href="#path3_fill" fill="white" transform="translate(3441.22 1100.25)"/>
</mask>
<g mask="url(#mask0_outline_ins)">
<use xlink:href="#path4_stroke_2x" transform="translate(3441.22 1100.25)" fill="#FFFFFF" style="mix-blend-mode:normal;"/>
</g>
</g>
<g id="+" style="mix-blend-mode:normal;" figma:type="text">
<use xlink:href="#path5_fill" transform="translate(3446.5 1102.52)" fill="#FFFFFF" style="mix-blend-mode:normal;"/>
</g>
</g>
</g>
<defs>
<path id="path0_stroke" d="M 0 -1C -0.552285 -1 -1 -0.552285 -1 0C -1 0.552285 -0.552285 1 0 1L 0 -1ZM 22.4493 6.14618L 21.4738 5.92603L 22.4493 6.14618ZM 4.48052 2.70588C 3.92823 2.70588 3.48052 3.1536 3.48052 3.70588C 3.48052 4.25817 3.92823 4.70588 4.48052 4.70588L 4.48052 2.70588ZM 19.7143 17.6765C 20.2666 17.6765 20.7143 17.2288 20.7143 16.6765C 20.7143 16.1242 20.2666 15.6765 19.7143 15.6765L 19.7143 17.6765ZM 6.87013 16.6765L 6.66764 17.6558L 6.76782 17.6765L 6.87013 17.6765L 6.87013 16.6765ZM 21.2611 11.4109L 20.2856 11.1907L 21.2611 11.4109ZM 0 1L 1.69395 1L 1.69395 -1L 0 -1L 0 1ZM 6.27273 13.9706L 19.3102 13.9706L 19.3102 11.9706L 6.27273 11.9706L 6.27273 13.9706ZM 22.2366 11.631L 23.4247 6.36633L 21.4738 5.92603L 20.2856 11.1907L 22.2366 11.631ZM 20.4983 2.70588L 4.48052 2.70588L 4.48052 4.70588L 20.4983 4.70588L 20.4983 2.70588ZM 2.66844 1.77558L 5.29823 13.195L 7.24722 12.7462L 4.61743 1.32675L 2.66844 1.77558ZM 19.7143 15.6765L 6.87013 15.6765L 6.87013 17.6765L 19.7143 17.6765L 19.7143 15.6765ZM 6.37662 14.8235C 6.37662 14.2597 6.53437 14.0288 6.59452 13.9562C 6.63216 13.9015 6.62282 13.9148 6.66685 13.8884C 6.67186 13.8841 6.66453 13.8898 6.65789 13.8927C 6.66262 13.8907 6.63401 13.903 6.63571 13.9022C 6.64047 13.9004 6.61689 13.9095 6.61916 13.9086C 6.62222 13.9075 6.60788 13.9128 6.60938 13.9122C 6.61109 13.9116 6.60325 13.9144 6.6041 13.9141C 6.605 13.9138 6.60091 13.9152 6.60136 13.915C 6.6009 13.9152 6.60019 13.9155 6.59996 13.9155C 6.59926 13.9158 6.59855 13.916 6.27273 12.9706C 5.9469 12.0252 5.94619 12.0254 5.94547 12.0257C 5.94523 12.0257 5.9445 12.026 5.94401 12.0262C 5.94351 12.0263 5.94204 12.0268 5.94103 12.0272C 5.93996 12.0276 5.93691 12.0287 5.93477 12.0294C 5.9324 12.0303 5.92591 12.0326 5.92115 12.0344C 5.91549 12.0365 5.90095 12.0421 5.88962 12.0466C 5.87479 12.0526 5.8398 12.0676 5.81056 12.0811C 5.7682 12.1011 5.67758 12.1488 5.59857 12.1976C 5.47458 12.2773 5.24121 12.4644 5.05483 12.6798C 4.66693 13.1477 4.37662 13.8433 4.37662 14.8235L 6.37662 14.8235ZM 4.37662 14.8235C 4.37662 15.9809 4.96098 16.7222 5.53709 17.1391C 5.8037 17.3265 6.10834 17.4725 6.28229 17.5392C 6.38126 17.5762 6.48187 17.6078 6.53577 17.623C 6.56827 17.632 6.60217 17.6407 6.61884 17.6447C 6.62984 17.6474 6.64225 17.6502 6.64777 17.6515C 6.65183 17.6524 6.65684 17.6535 6.65887 17.6539C 6.66052 17.6543 6.66272 17.6547 6.66355 17.6549C 6.66428 17.6551 6.6653 17.6553 6.66567 17.6553C 6.66601 17.6554 6.6665 17.6555 6.66667 17.6556C 6.66716 17.6557 6.66764 17.6558 6.87013 16.6765C 7.07262 15.6972 7.07309 15.6973 7.07356 15.6974C 7.0737 15.6974 7.07416 15.6975 7.07446 15.6976C 7.07418 15.6975 7.07672 15.698 7.07617 15.6979C 7.07571 15.6978 7.08016 15.6988 7.07923 15.6986C 7.07864 15.6985 7.08515 15.6999 7.08392 15.6996C 7.08405 15.6996 7.08793 15.7005 7.08787 15.7005C 7.09307 15.7017 7.08448 15.6998 7.07615 15.6974C 7.04836 15.6897 7.03229 15.6851 6.99125 15.669C 6.88517 15.6295 6.81643 15.6018 6.70966 15.5189C 6.53902 15.3954 6.37662 15.2103 6.37662 14.8235L 4.37662 14.8235ZM 1.69395 1C 2.15977 1 2.5639 1.32164 2.66844 1.77558L 4.61743 1.32675C 4.30381 -0.0350837 3.09142 -1 1.69395 -1L 1.69395 1ZM 19.3102 13.9706C 20.7126 13.9706 21.9278 12.999 22.2366 11.631L 20.2856 11.1907C 20.1827 11.6467 19.7776 11.9706 19.3102 11.9706L 19.3102 13.9706ZM 23.4247 6.36633C 23.8481 4.49021 22.4216 2.70588 20.4983 2.70588L 20.4983 4.70588C 21.1394 4.70588 21.6149 5.30066 21.4738 5.92603L 23.4247 6.36633Z"/>
<path id="path1_fill" d="M 2.98701 1.54412C 2.98701 2.39691 2.31835 3.08824 1.49351 3.08824C 0.668666 3.08824 0 2.39691 0 1.54412C 0 0.691325 0.668666 0 1.49351 0C 2.31835 0 2.98701 0.691325 2.98701 1.54412Z"/>
<path id="path2_stroke" d="M -0.990588 0.136874L 0.204217 8.78393L 2.18539 8.51018L 0.990588 -0.136874L -0.990588 0.136874ZM 3.93907 0L 3.93907 8.64706L 5.93907 8.64706L 5.93907 0L 3.93907 0ZM 8.86655 -0.136874L 7.67175 8.51018L 9.65293 8.78393L 10.8477 0.136874L 8.86655 -0.136874Z"/>
<path id="path3_fill" d="M 16 8C 16 12.4183 12.4183 16 8 16C 3.58172 16 0 12.4183 0 8C 0 3.58172 3.58172 0 8 0C 12.4183 0 16 3.58172 16 8Z"/>
<path id="path4_stroke_2x" d="M 14 8C 14 11.3137 11.3137 14 8 14L 8 18C 13.5228 18 18 13.5228 18 8L 14 8ZM 8 14C 4.68629 14 2 11.3137 2 8L -2 8C -2 13.5228 2.47715 18 8 18L 8 14ZM 2 8C 2 4.68629 4.68629 2 8 2L 8 -2C 2.47715 -2 -2 2.47715 -2 8L 2 8ZM 8 2C 11.3137 2 14 4.68629 14 8L 18 8C 18 2.47715 13.5228 -2 8 -2L 8 2Z"/>
<path id="path5_fill" d="M 5.67188 5.63086C 5.67188 5.74023 5.66602 5.83203 5.6543 5.90625C 5.64258 5.98047 5.625 6.04102 5.60156 6.08789C 5.57812 6.13086 5.55078 6.16211 5.51953 6.18164C 5.48828 6.20117 5.45508 6.21094 5.41992 6.21094L 3.59766 6.21094L 3.59766 8.19727C 3.59766 8.23633 3.58789 8.27148 3.56836 8.30273C 3.54883 8.33008 3.51562 8.35547 3.46875 8.37891C 3.42188 8.39844 3.35937 8.41406 3.28125 8.42578C 3.20313 8.4375 3.10547 8.44336 2.98828 8.44336C 2.87109 8.44336 2.77344 8.4375 2.69531 8.42578C 2.61719 8.41406 2.55469 8.39844 2.50781 8.37891C 2.46094 8.35547 2.42578 8.33008 2.40234 8.30273C 2.38281 8.27148 2.37305 8.23633 2.37305 8.19727L 2.37305 6.21094L 0.556641 6.21094C 0.521484 6.21094 0.488281 6.20117 0.457031 6.18164C 0.429688 6.16211 0.404297 6.13086 0.380859 6.08789C 0.357422 6.04102 0.337891 5.98047 0.322266 5.90625C 0.310547 5.83203 0.304688 5.74023 0.304688 5.63086C 0.304688 5.52539 0.310547 5.43555 0.322266 5.36133C 0.333984 5.2832 0.349609 5.22266 0.369141 5.17969C 0.392578 5.13281 0.417969 5.09961 0.445312 5.08008C 0.472656 5.06055 0.503906 5.05078 0.539062 5.05078L 2.37305 5.05078L 2.37305 3.07031C 2.37305 3.03125 2.38281 2.99609 2.40234 2.96484C 2.42578 2.92969 2.46094 2.90234 2.50781 2.88281C 2.55469 2.85938 2.61719 2.8418 2.69531 2.83008C 2.77344 2.81836 2.87109 2.8125 2.98828 2.8125C 3.10547 2.8125 3.20313 2.81836 3.28125 2.83008C 3.35937 2.8418 3.42188 2.85938 3.46875 2.88281C 3.51562 2.90234 3.54883 2.92969 3.56836 2.96484C 3.58789 2.99609 3.59766 3.03125 3.59766 3.07031L 3.59766 5.05078L 5.4375 5.05078C 5.46875 5.05078 5.49805 5.06055 5.52539 5.08008C 5.55664 5.09961 5.58203 5.13281 5.60156 5.17969C 5.625 5.22266 5.64258 5.2832 5.6543 5.36133C 5.66602 5.43555 5.67188 5.52539 5.67188 5.63086Z"/>
</defs>
</svg>
