<svg width="36" height="51" viewBox="0 0 36 51" version="1.1" xmlns="http://www.w3.org/2000/svg" xmlns:xlink="http://www.w3.org/1999/xlink" xmlns:figma="http://www.figma.com/figma/ns">
<title>Vector</title>
<desc>Created using Figma</desc>
<g id="Canvas" transform="translate(-3083 -377)" figma:type="canvas">
<g id="Vector" style="mix-blend-mode:normal;" figma:type="vector">
<use xlink:href="#path0_fill" transform="translate(3083 377)" fill="#FFFFFF" style="mix-blend-mode:normal;"/>
</g>
</g>
<defs>
<path id="path0_fill" d="M 11.8125 9.97826C 9 9.97826 6.75 7.76087 6.75 4.98913C 6.75 2.21739 9 0 11.8125 0C 14.625 0 16.875 2.21739 16.875 4.98913C 16.875 7.76087 14.625 9.97826 11.8125 9.97826ZM 11.8125 2.21739C 10.2375 2.21739 9 3.43696 9 4.98913C 9 6.5413 10.2375 7.76087 11.8125 7.76087C 13.3875 7.76087 14.625 6.5413 14.625 4.98913C 14.625 3.43696 13.3875 2.21739 11.8125 2.21739ZM 33.75 18.8478L 28.4062 18.8478C 28.9688 18.0717 29.25 17.0739 29.25 16.0761C 29.25 13.3043 27 11.087 24.1875 11.087C 21.375 11.087 19.125 13.3043 19.125 16.0761C 19.125 17.0739 19.4625 18.0717 19.9688 18.8478L 11.1375 18.8478L 28.35 1.88478C 28.8 1.4413 28.8 0.776087 28.35 0.332609C 27.9 -0.11087 27.225 -0.11087 26.775 0.332609L 7.9875 18.8478L 2.25 18.8478C 1.0125 18.8478 0 19.8457 0 21.0652L 0 48.7826C 0 50.0022 1.0125 51 2.25 51L 33.75 51C 34.9875 51 36 50.0022 36 48.7826L 36 21.0652C 36 19.8457 34.9875 18.8478 33.75 18.8478ZM 21.375 16.0761C 21.375 14.5239 22.6125 13.3043 24.1875 13.3043C 25.7625 13.3043 27 14.5239 27 16.0761C 27 17.6283 25.7625 18.8478 24.1875 18.8478C 22.6125 18.8478 21.375 17.6283 21.375 16.0761ZM 2.25 48.7826L 2.25 21.0652L 33.75 21.0652L 33.75 48.7826L 2.25 48.7826ZM 27.5625 28.2717L 27.5625 25.5C 27.5625 24.8902 27.0562 24.3913 26.4375 24.3913C 25.8188 24.3913 25.3125 24.8902 25.3125 25.5L 25.3125 28.2717C 25.3125 32.3739 22.1625 35.4783 18 35.4783C 13.8375 35.4783 10.6875 32.3739 10.6875 28.2717L 10.6875 25.5C 10.6875 24.8902 10.1812 24.3913 9.5625 24.3913C 8.94375 24.3913 8.4375 24.8902 8.4375 25.5L 8.4375 28.2717C 8.4375 33.6489 12.5437 37.6957 18 37.6957C 23.4562 37.6957 27.5625 33.6489 27.5625 28.2717Z"/>
</defs>
</svg>
