<svg width="21" height="21" viewBox="0 0 21 21" version="1.1" xmlns="http://www.w3.org/2000/svg" xmlns:xlink="http://www.w3.org/1999/xlink" xmlns:figma="http://www.figma.com/figma/ns">
<title>Group</title>
<desc>Created using Figma</desc>
<g id="Canvas" transform="translate(-2062 -7159)" figma:type="canvas">
<g id="Group" style="mix-blend-mode:normal;" figma:type="frame">
<g id="Vector" style="mix-blend-mode:normal;" figma:type="vector">
<use xlink:href="#path0_fill" transform="translate(2062.94 7159.12)" fill="#828282" style="mix-blend-mode:normal;"/>
</g>
</g>
</g>
<defs>
<path id="path0_fill" d="M 19.5307 15.1184C 19.1672 14.827 17.3859 13.6248 16.1862 12.8233C 15.8227 12.5683 15.5318 12.3862 15.3864 12.2769C 15.1683 12.1311 14.9502 12.0583 14.7684 12.0583C 14.2231 12.0583 13.9686 12.5683 13.8959 12.7505C 13.3506 13.7705 12.8053 14.3534 12.5508 14.3534C 12.1146 14.0984 10.1879 12.204 8.98821 11.0018C 7.78855 9.79964 5.89817 7.90528 5.6437 7.43169C 5.6437 7.43169 5.6437 7.39526 5.6437 7.35883C 5.75276 7.0674 6.40712 6.52095 7.24325 6.08379C 7.60678 5.90164 7.8249 5.64663 7.89761 5.39162C 7.97032 5.13661 7.89761 4.8816 7.67949 4.59016C 7.60678 4.48087 7.38866 4.18944 7.17054 3.82514C 6.40712 2.69581 5.1711 0.837887 4.88027 0.473588C 4.69851 0.255009 4.48039 2.77938e-07 4.11685 2.77938e-07C 3.93508 2.77938e-07 3.75332 0.0728599 3.49884 0.14572L 3.38978 0.18215C 2.80813 0.364299 2.33553 0.582878 1.46305 1.4572C 0.227036 2.69581 -0.718153 4.29873 0.735984 7.72313C 2.04471 10.8197 5.46193 14.2441 5.60734 14.3898C 5.75276 14.5355 9.20633 17.9599 12.26 19.2714C 13.4233 19.7814 14.4049 20 15.2774 20C 16.8406 20 17.8221 19.235 18.4765 18.5428C 19.3489 17.6685 19.5671 17.1949 19.7488 16.612L 19.7852 16.5027C 20.0396 15.9927 20.1851 15.6284 19.5307 15.1184ZM 19.3126 16.3206L 19.2762 16.4299C 19.1308 16.867 18.9854 17.3042 18.1493 18.1421C 17.2404 19.0528 16.4043 19.4171 15.3501 19.4171C 14.5503 19.4171 13.6414 19.1985 12.5508 18.725C 9.56987 17.4499 6.11629 13.9891 6.07994 13.9526C 6.04358 13.9162 2.59001 10.4554 1.31764 7.46812C 0.0816223 4.55373 0.663277 3.13297 1.89929 1.85792C 2.73542 1.02004 3.17166 0.874317 3.6079 0.728598L 3.71696 0.692168C 3.89873 0.619308 4.04414 0.582878 4.11685 0.582878C 4.1532 0.582878 4.22591 0.582878 4.40768 0.801457C 4.69851 1.16576 5.93452 3.02368 6.66159 4.11658C 6.91607 4.48087 7.09783 4.77231 7.17054 4.8816C 7.24325 4.99089 7.31595 5.10018 7.2796 5.20947C 7.24325 5.31876 7.13419 5.42805 6.91607 5.53734C 6.40712 5.79235 5.24381 6.48452 5.02569 7.17668C 4.95298 7.35883 4.98933 7.54098 5.06204 7.72313C 5.42558 8.37887 8.18844 11.1111 8.51562 11.4025C 8.80644 11.7304 11.533 14.4991 12.1873 14.8634C 12.2964 14.8998 12.4054 14.9362 12.5145 14.9362C 13.2416 14.9362 13.9686 13.7341 14.3685 13.0055C 14.5866 12.6047 14.7321 12.5683 15.0229 12.7505C 15.1683 12.8233 15.4591 13.0419 15.8227 13.2969C 16.9133 14.0255 18.7673 15.2641 19.1308 15.5556C 19.458 15.8106 19.458 15.847 19.3126 16.3206Z"/>
</defs>
</svg>
