<svg xmlns="http://www.w3.org/2000/svg" fill-rule="evenodd" stroke-miterlimit="1.5" viewBox="0 0 21 20" clip-rule="evenodd" stroke-linecap="round" stroke-linejoin="round">
  <g fill="none" stroke="#000">
    <path d="M10.037 16.083l4.415-4.261m2.975-3.563c.765.602 3.095 3.514 1.18 6.841-2.979-1.085-7.329-6.892-7.541-7.576 3.6-1.53 5.597.134 6.361.735z"/>
    <circle cx="4.829" cy="4.886" r="1.747"/>
    <path d="M4.753 7.823v1.215M2.674 6.894l-.862.857m.056-2.986L.653 4.757M2.81 2.692l-.85-.868m2.985.076L4.961.685m2.05 2.171l.874-.844m-.096 2.984l1.215.025M6.819 7.056l.839.88"/>
    <path stroke-miterlimit="1.4142" d="M.508 17.49c.784 0 1.541.365 1.99 1.009.56.729 1.597.897 2.326.337.112-.084.224-.196.336-.337.841-1.093 2.411-1.317 3.504-.504.196.14.364.308.505.504.56.729 1.597.897 2.326.337.112-.084.224-.196.336-.337.841-1.093 2.411-1.317 3.504-.504.196.14.364.308.505.504.56.729 1.597.897 2.326.337.112-.084.224-.196.336-.337.477-.644 1.206-1.009 1.991-1.009"/>
  </g>
</svg>
