<svg width="83" height="76" viewBox="0 0 83 76" version="1.1" xmlns="http://www.w3.org/2000/svg" xmlns:xlink="http://www.w3.org/1999/xlink" xmlns:figma="http://www.figma.com/figma/ns">
<title>noun_18758_cc</title>
<desc>Created using Figma</desc>
<g id="Canvas" transform="translate(-2691 -6003)" figma:type="canvas">
<g id="noun_18758_cc" style="mix-blend-mode:normal;" opacity="0.05" figma:type="frame">
<g id="Vector" style="mix-blend-mode:normal;" figma:type="vector">
<use xlink:href="#path0_fill" transform="translate(2691 6003.12)" style="mix-blend-mode:normal;"/>
</g>
</g>
</g>
<defs>
<path id="path0_fill" d="M 71.184 2.76063e-08L 11.8168 2.76063e-08L -2.65963e-07 19.8932L -2.65963e-07 26.7923C -2.65963e-07 30.2186 2.02107 33.1929 4.96843 34.6708L 4.96843 75L 49.5839 75L 49.5839 30.9543C 51.1285 33.7541 54.173 35.6622 57.6673 35.6622C 61.1691 35.6622 64.2136 33.7541 65.7582 30.9543C 67.2962 33.7541 70.3407 35.6622 73.8417 35.6622L 73.8417 75L 78.0316 75L 78.0316 34.6708C 80.9798 33.1929 83 30.2186 83 26.7923L 83 19.8932L 71.184 2.76063e-08ZM 18.9225 20.8412L 24.7733 3.59107L 34.0735 3.59107L 32.1363 20.7415L 32.1363 25.673C 32.1363 29.2022 29.1756 32.0704 25.5327 32.0704C 21.8898 32.0704 18.9292 29.2022 18.9292 25.673L 18.9292 20.8412L 18.9225 20.8412ZM 45.6397 49.598L 9.15914 49.598L 9.15914 35.6622C 12.6609 35.6622 15.7046 33.7541 17.2434 30.9543C 18.7881 33.7541 21.8325 35.6622 25.3335 35.6622C 28.8278 35.6622 31.8723 33.7541 33.4178 30.9543C 34.9558 33.7541 38.0069 35.6622 41.5012 35.6622C 42.9944 35.6622 44.3971 35.3004 45.6397 34.6829L 45.6397 49.598ZM 64.0725 25.673C 64.0725 29.2022 61.1127 32.0704 57.4689 32.0704C 53.826 32.0704 50.8654 29.2022 50.8654 25.673L 50.8654 20.7415L 48.9282 3.59107L 58.2284 3.59107L 64.0791 20.8412L 64.0791 25.673L 64.0725 25.673Z"/>
</defs>
</svg>
