<svg width="9" height="16" viewBox="0 0 9 16" version="1.1" xmlns="http://www.w3.org/2000/svg" xmlns:xlink="http://www.w3.org/1999/xlink" xmlns:figma="http://www.figma.com/figma/ns">
<title>Vector 2</title>
<desc>Created using Figma</desc>
<g id="Canvas" transform="translate(-3432 54)" figma:type="canvas">
<g id="Vector 2" style="mix-blend-mode:normal;" figma:type="vector">
<use xlink:href="#path0_stroke" transform="matrix(1 -2.67189e-24 -2.67189e-24 -1 3433 -39)" fill="#FFFFFF" style="mix-blend-mode:normal;"/>
</g>
</g>
<defs>
<path id="path0_stroke" d="M -0.707107 13.2929C -1.09763 13.6834 -1.09763 14.3166 -0.707107 14.7071C -0.316583 15.0976 0.316583 15.0976 0.707107 14.7071L -0.707107 13.2929ZM 7 7L 7.70711 7.70711C 8.09763 7.31658 8.09763 6.68342 7.70711 6.29289L 7 7ZM 0.707107 -0.707107C 0.316583 -1.09763 -0.316583 -1.09763 -0.707107 -0.707107C -1.09763 -0.316583 -1.09763 0.316583 -0.707107 0.707107L 0.707107 -0.707107ZM 0.707107 14.7071C 1.87377 13.5404 3.62377 11.7904 5.08211 10.3321C 5.81127 9.60294 6.46752 8.94669 6.94148 8.47273C 7.17846 8.23575 7.36987 8.04435 7.50203 7.91218C 7.56811 7.8461 7.61938 7.79483 7.65413 7.76009C 7.6715 7.74271 7.68475 7.72947 7.69365 7.72056C 7.6981 7.71611 7.70146 7.71275 7.70372 7.7105C 7.70484 7.70937 7.70569 7.70852 7.70626 7.70796C 7.70654 7.70767 7.70675 7.70746 7.70689 7.70732C 7.70696 7.70725 7.70702 7.7072 7.70705 7.70716C 7.70709 7.70712 7.70711 7.70711 7 7C 6.29289 6.29289 6.29288 6.29291 6.29284 6.29295C 6.2928 6.29298 6.29275 6.29304 6.29268 6.29311C 6.29254 6.29325 6.29233 6.29346 6.29204 6.29374C 6.29148 6.29431 6.29063 6.29516 6.2895 6.29628C 6.28725 6.29854 6.28389 6.3019 6.27944 6.30635C 6.27053 6.31525 6.25729 6.3285 6.23991 6.34587C 6.20517 6.38062 6.1539 6.43189 6.08782 6.49797C 5.95565 6.63013 5.76425 6.82154 5.52727 7.05852C 5.05331 7.53248 4.39706 8.18873 3.66789 8.91789C 2.20956 10.3762 0.45956 12.1262 -0.707107 13.2929L 0.707107 14.7071ZM 7.70711 6.29289C 6.54044 5.12623 4.79044 3.37623 3.33211 1.91789C 2.60294 1.18873 1.94669 0.532477 1.47273 0.0585182C 1.23575 -0.178461 1.04435 -0.369867 0.912185 -0.502029C 0.846104 -0.568109 0.794835 -0.619379 0.760085 -0.654128C 0.742711 -0.671503 0.729466 -0.684748 0.720565 -0.693649C 0.716115 -0.698099 0.71275 -0.701464 0.710498 -0.703716C 0.709372 -0.704841 0.708524 -0.705689 0.707958 -0.706256C 0.707675 -0.706539 0.707462 -0.706752 0.70732 -0.706894C 0.707249 -0.706965 0.707196 -0.707018 0.70716 -0.707053C 0.707125 -0.707089 0.707107 -0.707107 0 0C -0.707107 0.707107 -0.707089 0.707125 -0.707053 0.70716C -0.707018 0.707196 -0.706965 0.707249 -0.706894 0.70732C -0.706752 0.707462 -0.706539 0.707675 -0.706256 0.707958C -0.705689 0.708524 -0.704841 0.709372 -0.703716 0.710498C -0.701464 0.71275 -0.698099 0.716115 -0.693649 0.720565C -0.684748 0.729466 -0.671503 0.742711 -0.654128 0.760085C -0.619379 0.794835 -0.568109 0.846104 -0.502029 0.912185C -0.369867 1.04435 -0.178461 1.23575 0.0585182 1.47273C 0.532477 1.94669 1.18873 2.60294 1.91789 3.33211C 3.37623 4.79044 5.12623 6.54044 6.29289 7.70711L 7.70711 6.29289Z"/>
</defs>
</svg>
