<svg width="122" height="96" viewBox="0 0 122 96" version="1.1" xmlns="http://www.w3.org/2000/svg" xmlns:xlink="http://www.w3.org/1999/xlink" xmlns:figma="http://www.figma.com/figma/ns">
<title>noun_493876_cc</title>
<desc>Created using Figma</desc>
<g id="Canvas" transform="translate(-2692 -2096)" figma:type="canvas">
<g id="noun_493876_cc" style="mix-blend-mode:normal;" opacity="0.05" figma:type="frame">
<g id="Vector" style="mix-blend-mode:normal;" figma:type="vector">
<use xlink:href="#path0_fill" transform="matrix(0.5 0.866025 -0.866025 0.5 2800 2077.54)" style="mix-blend-mode:normal;"/>
</g>
</g>
</g>
<defs>
<path id="path0_fill" d="M 59.6409 48.371L 41.3232 29.4699C 41.0839 29.2205 40.7547 29.0859 40.4056 29.0859L 33.0845 29.0859C 33.688 24.0489 35.4484 5.56662 29.4639 1.04829C 28.2869 0.160583 26.2572 -0.61242 23.2499 0.704179C 21.2551 1.5869 19.8288 3.17779 19.0059 5.44194C 16.9263 11.1921 19.1555 20.7424 22.0181 29.0859L 19.5894 29.0859C 19.2403 29.0859 18.9161 29.2205 18.6718 29.4699L 0.359073 48.371C 0.124679 48.6054 6.65852e-07 48.9246 6.65852e-07 49.2538L 6.65852e-07 123.502C 6.65852e-07 124.21 0.568532 124.779 1.2767 124.779L 58.7233 124.779C 59.4315 124.779 60 124.21 60 123.502L 60 49.2538C 59.995 48.9246 59.8703 48.6054 59.6409 48.371ZM 21.4097 6.3097C 21.9882 4.70883 22.9258 3.63162 24.2773 3.04812C 26.5464 2.0507 27.5837 2.83368 27.9279 3.09301C 30.0673 4.70883 31.2393 9.9104 31.2193 17.7352C 31.2044 22.7023 30.7107 27.3753 30.5112 29.0908L 24.7361 29.0908C 21.8535 20.9668 19.4996 11.596 21.4097 6.3097ZM 57.4366 122.225L 2.5534 122.225L 2.5534 49.7774L 20.128 31.6393L 22.9258 31.6393C 23.8085 34.048 24.7162 36.3022 25.544 38.2622C 23.4744 39.6087 22.1029 41.9227 22.1029 44.5659C 22.1029 48.7151 25.4692 52.0814 29.6135 52.0814C 33.7578 52.0814 37.1191 48.7151 37.1191 44.5659C 37.1191 40.4315 33.7578 37.0652 29.6135 37.0652C 29.03 37.0652 28.4615 37.1351 27.9129 37.2548C 27.1947 35.5741 26.4217 33.669 25.6587 31.6393L 39.862 31.6393L 57.4366 49.7774L 57.4366 122.225ZM 28.8555 45.5234C 29.0749 45.9772 29.5337 46.2266 29.9975 46.2266C 30.187 46.2266 30.3815 46.1917 30.561 46.0969C 31.1944 45.7877 31.4537 45.0097 31.1396 44.3863C 31.1046 44.3165 30.207 42.4962 28.9552 39.6685C 29.1696 39.6386 29.3891 39.6186 29.6185 39.6186C 32.3514 39.6186 34.5757 41.8329 34.5757 44.5659C 34.5757 47.3038 32.3514 49.528 29.6185 49.528C 26.8905 49.528 24.6613 47.3038 24.6613 44.5659C 24.6613 42.9849 25.4193 41.5586 26.5913 40.661C 27.8082 43.4138 28.7108 45.2441 28.8555 45.5234ZM 18.3177 101.299L 39.9867 69.9752C 40.3907 69.3967 41.1836 69.2571 41.7621 69.656C 42.3456 70.055 42.4902 70.853 42.0913 71.4364L 20.4173 102.746C 20.1729 103.115 19.7739 103.304 19.37 103.304C 19.1206 103.304 18.8663 103.224 18.6418 103.075C 18.0633 102.666 17.9187 101.873 18.3177 101.299ZM 22.6066 83.9391C 26.1125 83.9391 28.9602 81.0915 28.9602 77.5806C 28.9602 74.0846 26.1076 71.232 22.6066 71.232C 19.0957 71.232 16.248 74.0846 16.248 77.5806C 16.248 81.0915 19.0957 83.9391 22.6066 83.9391ZM 22.6066 73.7804C 24.7012 73.7804 26.4068 75.491 26.4068 77.5806C 26.4068 79.6802 24.7012 81.3907 22.6066 81.3907C 20.507 81.3907 18.8014 79.6802 18.8014 77.5806C 18.8014 75.491 20.507 73.7804 22.6066 73.7804ZM 32.3115 94.0281C 32.3115 97.534 35.1642 100.387 38.6651 100.387C 42.1711 100.387 45.0237 97.534 45.0237 94.0281C 45.0237 90.5172 42.1711 87.6645 38.6651 87.6645C 35.1642 87.6595 32.3115 90.5172 32.3115 94.0281ZM 42.4703 94.0281C 42.4703 96.1277 40.7697 97.8283 38.6701 97.8283C 36.5755 97.8283 34.8699 96.1277 34.8699 94.0281C 34.8699 91.9285 36.5705 90.2229 38.6701 90.2229C 40.7697 90.2229 42.4703 91.9285 42.4703 94.0281Z"/>
</defs>
</svg>
